SplineFontDB: 3.2
FontName: Solidaric-Italic
FullName: Solidaric-Italic
FamilyName: Solidaric
Weight: Regular
Copyright: Copyright (c) 2020, Bob Mottram
UComments: "A font based upon the typeface from Mother Earth, edited by Emma Goldman.+AAoACgAA-2020-7-28: Created with FontForge (http://fontforge.org)"
Version: 001.000
ItalicAngle: 0
UnderlinePosition: -100
UnderlineWidth: 50
Ascent: 800
Descent: 200
InvalidEm: 0
LayerCount: 3
Layer: 0 0 "Back" 1
Layer: 1 0 "Fore" 0
Layer: 2 0 "Back 2" 1
XUID: [1021 76 -1213197630 13816753]
StyleMap: 0x0000
FSType: 0
OS2Version: 0
OS2_WeightWidthSlopeOnly: 0
OS2_UseTypoMetrics: 1
CreationTime: 1595974993
ModificationTime: 1596471114
OS2TypoAscent: 0
OS2TypoAOffset: 1
OS2TypoDescent: 0
OS2TypoDOffset: 1
OS2TypoLinegap: 90
OS2WinAscent: 0
OS2WinAOffset: 1
OS2WinDescent: 0
OS2WinDOffset: 1
HheadAscent: 0
HheadAOffset: 1
HheadDescent: 0
HheadDOffset: 1
OS2Vendor: 'PfEd'
Lookup: 258 0 0 "'kern' Horizontal Kerning in Latin lookup 0" { "'kern' Horizontal Kerning in Latin lookup 0-1" [150,15,2] } ['kern' ('DFLT' <'dflt' > 'latn' <'dflt' > ) ]
MarkAttachClasses: 1
DEI: 91125
Encoding: Custom
UnicodeInterp: none
NameList: AGL For New Fonts
DisplaySize: -48
AntiAlias: 1
FitToEm: 0
WinInfo: 0 38 14
BeginPrivate: 0
EndPrivate
Grid
-1042 487 m 5
 -1042 487 2144 497 2144 473 c 1024
EndSplineSet
BeginChars: 258 106

StartChar: A
Encoding: 65 65 0
Width: 756
Flags: HW
LayerCount: 3
Fore
SplineSet
541 488 m 0
 542 498 540 509 539 518 c 1
 542 528 538 532 537 540 c 0
 538 554 531 571 517 571 c 0
 505 571 487 554 479 543 c 0
 473 536 468 530 463 520 c 0
 457 509 453 506 448 494 c 0
 442 486 436 477 431 467 c 0
 418 442 399 426 391 395 c 0
 388 383 391 382 404 381 c 0
 415 379 448 378 461 378 c 2
 465 378 l 2
 469 378 520 382 523 383 c 0
 530 383 537 391 539 399 c 0
 544 419 540 438 542 456 c 0
 543 467 538 478 541 488 c 0
228 131 m 0
 223 114 234 98 238 87 c 1
 242 87 241 64 239 56 c 2
 238 54 l 2
 231 28 206 17 187 11 c 0
 177 7 147 4 115 4 c 0
 79 4 45 6 37 18 c 0
 34 18 32 32 34 38 c 0
 37 50 48 61 58 69 c 0
 67 78 74 79 81 85 c 0
 86 89 96 92 100 95 c 0
 101 96 104 98 107 99 c 0
 117 107 131 117 140 129 c 0
 144 136 150 140 154 147 c 0
 165 162 176 177 186 193 c 0
 191 203 196 204 201 216 c 0
 216 237 229 259 242 281 c 0
 249 288 252 299 259 306 c 0
 262 310 265 315 267 319 c 0
 268 322 272 328 275 331 c 0
 279 339 284 350 291 357 c 0
 298 364 303 377 309 384 c 0
 314 390 319 403 325 408 c 0
 328 413 336 430 341 434 c 0
 344 438 352 454 357 458 c 0
 364 471 373 484 382 496 c 0
 387 506 393 512 398 522 c 0
 402 531 410 537 414 546 c 0
 425 566 441 588 453 608 c 0
 458 614 464 628 470 633 c 0
 482 655 498 674 510 694 c 0
 514 703 522 709 527 718 c 0
 531 727 536 729 541 737 c 0
 545 746 550 747 555 755 c 0
 564 767 587 785 596 788 c 1
 606 788 l 2
 612 788 617 770 620 765 c 0
 624 762 622 753 625 749 c 0
 628 747 629 735 631 731 c 0
 634 726 632 719 635 714 c 0
 636 702 639 692 641 682 c 0
 642 678 642 672 643 670 c 0
 643 667 645 663 644 660 c 0
 644 653 648 645 648 638 c 0
 646 631 651 621 651 613 c 0
 650 603 654 598 653 587 c 0
 653 576 657 571 655 558 c 0
 656 547 658 542 657 530 c 0
 656 519 660 513 660 503 c 0
 659 494 662 490 663 482 c 0
 663 479 664 475 666 474 c 0
 666 472 669 466 670 460 c 2
 672 450 l 1
 669 431 l 2
 664 406 668 405 667 387 c 0
 667 377 670 366 669 357 c 0
 669 348 673 343 672 334 c 0
 670 327 675 319 675 313 c 0
 674 304 678 297 678 288 c 0
 677 284 678 278 679 273 c 0
 680 264 679 248 678 239 c 0
 679 236 680 230 680 226 c 0
 679 216 685 200 691 191 c 0
 691 184 695 183 696 175 c 0
 697 167 698 162 700 154 c 0
 700 150 700 145 701 145 c 0
 703 142 706 129 707 124 c 0
 708 122 709 118 709 116 c 0
 710 113 722 92 728 86 c 0
 733 81 752 65 748 50 c 0
 747 46 744 42 739 38 c 1
 732 28 714 18 701 16 c 0
 696 15 689 13 685 11 c 0
 675 7 659 6 625 6 c 0
 575 6 567 10 541 16 c 0
 529 19 521 27 526 44 c 0
 531 61 538 71 547 82 c 0
 555 97 571 109 576 128 c 0
 577 132 577 136 576 139 c 0
 574 146 575 159 574 166 c 0
 571 173 572 182 571 190 c 0
 568 198 569 208 568 217 c 0
 566 227 572 251 569 260 c 0
 567 268 561 278 558 278 c 0
 557 278 553 280 549 282 c 0
 543 286 541 287 522 289 c 0
 511 291 501 293 498 293 c 0
 494 295 445 296 429 296 c 0
 400 296 387 295 364 290 c 0
 330 285 318 273 295 244 c 0
 286 232 281 222 271 209 c 0
 268 205 264 198 262 194 c 0
 259 182 249 175 244 163 c 0
 237 150 231 144 228 131 c 0
EndSplineSet
EndChar

StartChar: B
Encoding: 66 66 1
Width: 626
Flags: HW
LayerCount: 3
Fore
SplineSet
543 230 m 0x7840
 546 241 543 250 544 260 c 0
 546 269 543 275 543 283 c 0
 544 292 542 296 541 304 c 0
 544 316 535 329 535 339 c 0x7a
 535 341 534 345 534 347 c 0
 530 353 528 366 522 368 c 0
 520 368 516 370 513 371 c 0
 510 373 503 374 500 375 c 0
 494 376 452 376 421 376 c 0
 398 376 387 376 370 373 c 0
 352 369 342 366 341 365 c 0
 333 360 329 357 325 351 c 0
 319 344 320 346 309 317 c 0
 296 283 290 265 270 189 c 2
 252 120 l 1
 251 106 l 2
 250 85 250 85 251 83 c 0
 259 71 260 72 289 69 c 0
 296 69 309 68 322 68 c 0
 327 68 332 68 339 68 c 0
 366 68 407 69 422 75 c 0
 427 77 440 81 444 83 c 0
 445 84 448 86 450 87 c 0
 458 91 472 102 494 122 c 0
 520 145 529 157 538 190 c 0
 543 207 542 216 543 230 c 0x7840
608 580 m 0x39
 617 615 619 630 618 648 c 0x3a
 620 654 617 662 616 667 c 0
 613 684 597 705 581 709 c 0
 567 712 569 715 547 717 c 0
 540 718 522 719 505 719 c 0
 486 719 462 718 454 714 c 0
 452 713 446 711 441 710 c 0
 429 705 421 698 411 683 c 0
 407 677 393 633 382 591 c 0
 375 565 359 496 358 488 c 0
 357 462 360 457 385 454 c 0
 404 452 415 450 428 450 c 0
 439 450 511 455 521 460 c 0
 523 461 529 462 534 463 c 0
 542 465 545 466 549 468 c 0
 556 473 565 483 567 486 c 0x3c
 567 487 570 491 573 494 c 0
 587 519 596 537 608 580 c 0x39
274 786 m 0
 294 786 312 787 339 787 c 0
 388 787 456 786 479 785 c 0
 502 785 535 780 560 778 c 0
 592 777 594 774 618 770 c 0
 636 769 642 768 649 765 c 0
 652 763 657 761 660 761 c 0
 669 757 673 751 680 747 c 0
 681 745 683 743 684 743 c 0
 687 743 690 735 692 735 c 0
 694 734 696 731 697 729 c 0
 706 715 723 692 725 679 c 0
 727 672 734 660 732 651 c 0xba
 733 647 734 633 732 626 c 0
 731 618 730 610 728 601 c 0xb9
 722 578 714 568 705 553 c 0xba
 703 546 695 537 692 532 c 0xb880
 691 530 688 526 686 524 c 0
 682 517 678 513 674 507 c 0
 672 505 670 503 670 502 c 0xbc
 670 501 659 491 658 489 c 0
 652 481 635 467 626 463 c 0
 624 462 622 461 622 460 c 1
 621 460 617 458 614 456 c 0
 601 448 587 433 583 417 c 0
 581 410 581 402 584 395 c 0
 587 389 594 377 595 377 c 0
 598 372 606 368 609 363 c 0
 609 362 610 361 612 360 c 0
 620 355 632 329 634 316 c 0xb880
 636 306 640 295 641 283 c 0
 640 271 644 272 643 260 c 0
 641 236 642 209 634 179 c 0
 631 168 627 158 623 149 c 0
 621 145 618 139 617 136 c 0
 615 131 602 109 598 109 c 1
 598 108 594 106 593 104 c 0
 580 87 542 59 524 53 c 0
 516 50 512 46 504 44 c 0
 493 41 486 37 475 35 c 0
 457 32 456 29 436 26 c 0x7840
 429 26 420 24 415 23 c 0
 395 18 347 16 322 14 c 0
 300 11 244 10 141 10 c 0
 80 10 55 10 52 11 c 0
 44 13 43 21 45 30 c 0
 48 40 56 52 63 58 c 0
 74 68 80 69 91 76 c 0
 93 77 97 79 99 79 c 0xb840
 129 93 137 102 151 134 c 0
 162 159 159 146 215 354 c 0
 267 547 277 591 286 630 c 0
 291 655 296 684 296 687 c 0
 297 689 293 696 293 697 c 0
 296 708 274 715 270 721 c 0
 269 722 267 724 265 725 c 0
 260 731 244 754 248 770 c 0
 249 772 249 773 249 774 c 0
 252 780 263 784 274 786 c 0
EndSplineSet
EndChar

StartChar: C
Encoding: 67 67 2
Width: 675
Flags: HW
LayerCount: 3
Fore
SplineSet
129 248 m 0xb0
 130 268 126 288 129 310 c 0
 132 323 130 337 132 351 c 0
 135 374 134 383 139 406 c 0
 142 418 145 428 147 437 c 0
 156 463 170 480 182 503 c 0
 189 517 196 528 203 541 c 0
 209 548 213 558 219 565 c 0
 220 567 223 571 224 573 c 0
 233 589 245 600 255 614 c 0
 256 615 259 618 261 620 c 0
 273 635 316 671 331 680 c 0xd0
 333 682 336 683 336 684 c 0
 336 685 349 692 350 693 c 0
 356 698 366 704 372 709 c 0
 374 711 376 713 377 713 c 0
 378 713 390 722 392 723 c 0
 400 727 407 732 410 734 c 0
 412 736 416 738 417 738 c 0
 428 743 437 752 449 756 c 0
 457 759 459 761 468 765 c 0
 475 765 482 770 488 772 c 0
 491 773 497 775 500 776 c 0
 511 781 539 783 559 783 c 0xb0
 584 783 598 780 622 780 c 0
 651 777 665 776 699 774 c 0
 705 774 726 773 747 773 c 0
 795 771 807 773 814 740 c 0
 815 738 816 734 815 730 c 0
 815 727 816 721 816 718 c 0
 818 710 815 700 810 680 c 0
 805 660 801 649 797 644 c 0
 790 634 791 632 776 627 c 0
 764 623 755 623 747 626 c 0
 744 627 741 629 738 629 c 0
 735 630 726 638 723 638 c 1
 721 639 717 646 714 647 c 0
 712 647 708 655 705 655 c 1
 703 658 693 665 694 668 c 1
 688 668 682 680 677 680 c 0xd0
 676 680 674 682 672 684 c 0
 669 686 666 688 664 689 c 0
 659 689 651 695 646 697 c 0
 631 702 640 703 609 707 c 0
 596 710 586 711 580 711 c 0
 573 711 552 709 546 707 c 0
 531 707 510 700 498 697 c 0
 495 696 488 694 485 693 c 0
 478 689 469 688 463 685 c 0
 451 678 436 673 424 668 c 0
 423 666 419 665 417 664 c 0
 405 658 383 636 373 623 c 0
 366 612 356 606 349 594 c 0
 345 588 340 585 337 579 c 0
 332 571 330 568 324 561 c 0
 322 557 318 553 316 551 c 0
 315 549 312 545 311 543 c 0
 309 535 301 527 297 519 c 0
 296 515 292 509 289 506 c 0
 284 498 277 477 272 459 c 0
 267 439 264 421 264 410 c 0
 265 405 264 398 262 392 c 0
 260 375 261 356 260 337 c 0
 261 333 261 325 260 319 c 0
 259 314 258 306 259 302 c 0
 258 293 257 274 256 265 c 0
 258 259 254 240 256 234 c 0
 257 228 256 214 258 208 c 0
 259 206 259 202 258 200 c 0
 262 183 260 183 271 165 c 0
 275 157 285 144 288 142 c 0
 289 142 291 140 291 140 c 1
 289 134 310 126 312 123 c 0
 314 120 322 118 324 115 c 0
 325 113 329 111 332 110 c 0
 336 110 342 102 348 102 c 0
 357 97 363 94 380 94 c 0
 402 94 418 99 437 102 c 0
 456 104 474 109 493 114 c 0
 499 118 516 119 521 123 c 0
 548 132 567 145 590 156 c 1
 596 163 617 170 625 173 c 0
 630 177 638 178 643 182 c 0
 649 185 657 188 664 190 c 0
 667 192 672 194 675 194 c 0
 681 196 694 200 699 198 c 1
 704 198 l 1
 702 192 702 186 700 180 c 1
 691 176 682 163 674 156 c 0
 671 152 665 146 661 144 c 0
 660 142 653 137 646 131 c 0
 630 116 602 92 585 82 c 0
 569 71 568 72 557 63 c 0
 554 61 551 60 551 60 c 1
 547 60 539 52 535 52 c 0
 523 47 513 39 501 35 c 0
 494 35 484 28 475 26 c 0
 461 23 460 20 444 18 c 0
 439 18 431 16 426 15 c 0
 409 12 395 11 373 11 c 0
 348 13 339 15 318 18 c 0
 294 21 279 29 259 35 c 0
 250 37 250 41 242 43 c 0
 236 45 234 51 228 51 c 0
 219 55 212 64 204 69 c 0
 200 71 200 74 196 76 c 0
 183 84 160 122 154 136 c 0
 153 139 152 142 151 143 c 0
 144 143 140 176 139 181 c 0
 136 186 138 193 135 197 c 0
 133 200 134 211 131 215 c 0
 131 217 130 222 130 225 c 0
 130 228 130 234 130 237 c 0
 129 239 128 245 129 248 c 0xb0
EndSplineSet
EndChar

StartChar: D
Encoding: 68 68 3
Width: 757
Flags: HW
LayerCount: 3
Fore
SplineSet
618 187 m 0xcc
 619 189 629 198 631 201 c 0
 631 202 634 206 637 209 c 0
 644 215 650 232 656 241 c 0
 663 252 674 282 679 294 c 0
 681 299 685 308 687 314 c 0
 697 340 711 387 723 431 c 0
 742 501 746 528 747 567 c 0
 747 579 745 594 742 603 c 0
 740 606 739 609 739 610 c 0
 740 614 736 619 734 623 c 0
 731 629 721 645 715 652 c 0
 710 659 708 664 702 667 c 0
 695 670 695 674 688 678 c 0
 680 681 681 685 673 687 c 0
 662 694 646 699 632 703 c 0
 624 708 603 710 595 714 c 0
 587 717 560 719 551 722 c 0
 527 728 512 730 486 730 c 0
 474 730 466 729 462 727 c 0
 457 724 445 716 444 714 c 0xe4
 444 713 440 710 437 707 c 0
 432 701 427 688 421 681 c 0
 416 672 413 665 404 638 c 0
 401 626 396 611 393 605 c 0
 391 599 383 575 376 551 c 0
 365 515 358 487 334 398 c 0xd4
 318 338 303 280 301 268 c 0
 296 242 285 197 282 178 c 0
 279 166 279 161 279 152 c 0
 280 145 280 138 279 136 c 0
 279 128 286 113 290 108 c 0
 304 95 332 92 366 92 c 0
 399 92 415 95 438 99 c 0
 461 101 465 104 483 110 c 0
 496 112 501 117 512 120 c 0
 521 122 528 127 536 131 c 0
 546 134 555 141 564 145 c 0
 566 147 571 150 573 151 c 0
 582 156 614 182 618 187 c 0xcc
239 769 m 0
 245 783 264 789 280 789 c 0
 285 789 315 787 319 786 c 0
 336 782 394 778 446 778 c 0
 498 778 564 781 609 781 c 0
 636 781 669 779 680 775 c 0
 688 772 708 769 714 765 c 0
 722 760 729 760 737 755 c 0
 742 751 749 748 754 745 c 0
 757 740 766 737 769 733 c 0
 771 731 774 729 775 729 c 0
 778 729 785 720 786 718 c 0
 796 714 802 701 809 693 c 0
 819 679 837 649 836 647 c 0
 833 637 846 626 847 618 c 0
 849 613 852 606 852 600 c 0
 850 593 856 586 856 579 c 0
 856 569 861 570 859 557 c 0
 859 547 861 539 861 526 c 0
 860 520 860 512 861 508 c 0
 861 502 855 464 849 441 c 0
 838 399 825 370 813 343 c 0
 803 318 800 312 796 305 c 0
 789 296 782 276 776 268 c 0
 768 253 758 239 751 226 c 0
 746 218 740 213 736 205 c 0
 731 197 726 193 722 186 c 0
 714 177 708 170 700 161 c 0
 698 159 695 156 695 155 c 0
 694 153 675 132 674 132 c 0
 671 132 656 115 654 113 c 0
 647 107 631 94 619 89 c 0
 610 86 608 81 597 79 c 0
 586 76 579 71 566 68 c 0
 543 64 513 51 490 48 c 0
 471 43 445 38 425 32 c 0
 411 29 387 25 373 23 c 0
 357 19 351 18 328 17 c 0
 285 13 255 9 204 9 c 0
 183 9 142 12 129 12 c 0
 121 13 97 15 71 17 c 0
 52 18 40 26 47 53 c 0
 52 73 74 87 87 90 c 0
 97 90 103 96 111 99 c 0
 118 101 125 107 132 111 c 0
 138 114 152 125 159 134 c 0
 166 143 168 149 174 170 c 0xcc
 185 212 191 238 198 277 c 0
 200 289 205 312 209 327 c 0
 216 356 233 424 251 493 c 0xd4
 262 535 274 577 284 610 c 0
 297 660 305 691 305 693 c 0
 307 701 288 710 283 713 c 0
 282 717 272 721 270 724 c 0
 267 728 259 729 258 734 c 0
 257 736 245 743 244 745 c 0
 244 746 243 748 241 750 c 0
 236 754 237 761 239 769 c 0
EndSplineSet
EndChar

StartChar: E
Encoding: 69 69 4
Width: 690
Flags: HW
LayerCount: 3
Fore
SplineSet
142 99 m 0x7a
 146 99 150 103 152 104 c 1
 188 239 l 1x7a
 229 388 253 474 269 527 c 0
 273 542 276 552 279 562 c 0
 288 595 305 679 305 679 c 2
 306 685 302 702 300 705 c 0
 289 718 286 716 277 724 c 0
 272 728 267 729 264 734 c 0
 255 740 247 748 243 761 c 0
 241 765 242 768 243 772 c 0
 245 781 258 790 267 791 c 0
 303 801 394 802 475 802 c 0
 509 802 542 802 568 802 c 0
 621 802 666 802 682 801 c 0
 729 799 717 795 749 792 c 0
 767 789 767 785 778 781 c 0
 786 778 785 775 790 770 c 0
 795 766 803 750 804 745 c 0
 807 734 811 723 813 711 c 0
 812 708 812 702 813 698 c 0
 814 689 813 678 810 670 c 0
 807 657 795 648 784 644 c 0
 775 641 772 641 758 645 c 0
 744 648 743 653 734 657 c 0
 728 659 729 664 724 667 c 0
 718 669 716 675 711 679 c 0
 709 681 708 682 708 683 c 0
 710 689 694 699 691 703 c 0
 688 708 680 709 675 714 c 0
 656 722 624 722 571 722 c 0
 555 722 539 722 523 721 c 0
 474 720 464 719 456 713 c 0
 452 711 444 707 441 703 c 0
 437 698 429 693 426 687 c 0
 424 684 422 680 419 677 c 0
 414 672 409 661 406 648 c 0
 403 636 400 622 400 610 c 0
 401 605 400 598 399 594 c 0
 398 583 390 546 380 510 c 0x76
 372 482 372 476 372 474 c 0
 373 471 378 470 391 469 c 0
 410 469 433 465 456 465 c 0
 487 465 485 466 504 472 c 0
 511 472 519 478 526 482 c 0
 534 484 536 489 544 493 c 0
 547 494 551 496 551 497 c 0
 562 506 575 512 587 518 c 0
 594 524 611 529 615 522 c 0
 616 519 614 511 605 469 c 0
 601 455 598 440 598 435 c 0
 597 430 593 412 588 395 c 0
 585 383 584 376 582 370 c 0
 580 362 577 357 574 348 c 0
 563 321 559 316 543 316 c 0
 532 316 528 318 523 322 c 0
 522 324 519 327 517 328 c 0
 516 328 512 334 509 339 c 0
 494 361 491 365 482 370 c 0
 476 373 475 377 468 379 c 0
 464 380 458 382 454 384 c 0
 446 388 431 390 414 390 c 0
 402 390 388 389 379 384 c 0
 368 380 344 368 337 355 c 0
 325 339 329 351 314 313 c 0
 304 288 297 267 288 234 c 0
 279 200 274 174 271 152 c 0
 266 117 266 120 271 113 c 0
 276 104 278 102 295 100 c 0
 308 99 324 96 340 94 c 0
 344 94 367 93 390 92 c 0xba
 452 92 472 94 515 100 c 0
 543 102 546 104 564 111 c 0
 573 113 583 121 590 121 c 0
 595 124 602 128 607 131 c 0
 612 134 623 141 638 153 c 0
 645 158 650 162 651 162 c 0
 660 167 674 175 687 175 c 0
 691 175 695 174 698 173 c 0
 703 172 705 163 707 157 c 1
 705 148 l 1
 703 143 700 136 698 132 c 0
 695 128 691 120 689 114 c 0
 684 101 678 96 672 85 c 0
 668 76 663 70 657 61 c 0
 648 46 629 29 609 29 c 1
 580 23 575 20 533 17 c 0x7a
 472 12 478 9 385 8 c 0
 361 7 336 7 310 7 c 0xba
 202 7 156 11 89 17 c 0
 59 19 55 20 45 26 c 0
 35 33 34 34 38 48 c 0
 42 65 42 66 53 73 c 0
 64 80 73 80 84 84 c 0
 95 89 117 92 130 95 c 0
 135 97 141 99 142 99 c 0x7a
EndSplineSet
EndChar

StartChar: F
Encoding: 70 70 5
Width: 578
Flags: HW
LayerCount: 3
Fore
SplineSet
231 112 m 0x68
 231 108 233 99 234 97 c 1
 233 93 253 65 259 55 c 0
 264 46 266 44 265 43 c 0
 261 34 248 32 240 25 c 0
 223 17 203 13 181 13 c 0
 151 13 119 17 93 21 c 0
 74 23 71 26 58 30 c 0
 54 31 45 37 47 43 c 0
 47 44 47 46 47 47 c 0
 51 63 86 73 94 80 c 0
 98 83 107 86 112 90 c 0
 123 99 135 108 141 119 c 0
 144 124 151 146 177 243 c 0
 186 275 196 316 210 367 c 0
 275 614 291 675 290 677 c 0
 288 680 281 689 276 689 c 0
 268 694 261 702 253 708 c 0
 245 713 238 723 236 732 c 0
 235 735 236 739 236 740 c 0
 238 748 244 751 252 755 c 0
 264 761 265 761 284 762 c 0
 329 767 326 772 376 774 c 0
 389 774 426 775 465 775 c 0
 549 775 573 775 648 772 c 0
 675 771 701 771 705 770 c 2
 714 769 l 1
 725 747 727 717 726 685 c 0
 726 677 726 668 723 657 c 0
 722 655 722 653 721 651 c 0
 719 644 714 628 709 628 c 0
 704 625 700 624 694 624 c 0
 681 624 667 631 664 636 c 0
 660 639 648 652 644 658 c 0
 643 662 635 665 632 667 c 0
 631 671 616 674 612 676 c 0
 607 680 589 683 583 685 c 0
 576 689 551 690 538 692 c 0
 518 694 506 695 494 695 c 0
 471 695 421 687 416 685 c 0
 414 683 409 681 407 680 c 0
 395 676 381 663 371 643 c 0
 362 624 360 613 347 564 c 0
 344 552 341 542 339 534 c 0x68
 331 505 330 496 328 473 c 0
 325 459 329 460 330 451 c 0
 329 448 336 441 339 440 c 0
 342 437 351 436 367 437 c 0x70
 398 437 403 441 425 445 c 0
 437 447 439 447 447 451 c 0
 449 452 454 454 457 454 c 0
 463 456 466 457 468 460 c 0
 469 460 484 467 485 468 c 0
 486 470 489 472 490 472 c 0
 498 479 509 487 519 495 c 0
 524 499 529 499 532 504 c 0
 541 511 553 511 554 503 c 0
 551 492 547 466 546 454 c 0
 544 440 542 434 530 388 c 0
 520 350 516 335 513 328 c 0
 506 310 499 293 497 290 c 0
 496 286 482 276 479 275 c 0
 465 275 459 302 459 311 c 0
 459 319 457 321 456 327 c 0
 453 342 442 352 425 356 c 0
 420 357 414 359 412 359 c 0xb0
 405 362 390 363 362 363 c 0
 347 363 332 363 329 362 c 0
 321 362 307 354 301 349 c 0
 294 342 286 326 282 312 c 0
 277 302 271 281 254 219 c 0
 237 154 233 141 232 127 c 0
 232 121 232 115 231 112 c 0x68
EndSplineSet
EndChar

StartChar: G
Encoding: 71 71 6
Width: 635
Flags: HW
LayerCount: 3
Fore
SplineSet
485 773 m 0xa6
 495 775 508 783 523 783 c 0
 527 783 531 783 538 783 c 0x96
 563 783 587 783 606 779 c 0
 615 775 638 774 645 769 c 0
 648 768 651 766 654 765 c 0xa6
 664 765 678 758 690 758 c 0
 704 758 741 765 749 765 c 0
 764 763 761 730 760 712 c 0
 761 704 760 702 756 673 c 0
 755 666 753 660 752 655 c 0
 746 633 738 622 717 622 c 0xc6
 700 622 694 628 686 633 c 0
 680 635 681 640 675 642 c 0
 672 646 671 648 667 651 c 0
 660 658 653 665 644 671 c 0
 638 673 637 679 631 681 c 0
 621 690 607 696 595 704 c 0
 587 709 578 712 571 718 c 0x96
 562 721 553 729 543 729 c 0x8e
 534 729 523 722 515 718 c 0x96
 509 718 499 710 494 708 c 0
 485 704 474 698 465 694 c 0
 463 692 459 690 457 689 c 0
 452 689 446 682 441 680 c 0
 435 677 426 671 420 666 c 1
 419 664 409 659 407 657 c 0
 391 645 367 622 359 615 c 0
 346 604 334 586 324 573 c 2
 317 563 l 1
 311 550 307 548 300 533 c 0
 298 526 294 516 291 510 c 0
 284 494 271 451 263 420 c 0
 253 384 243 344 240 323 c 0
 238 313 236 298 234 290 c 0
 227 248 232 261 227 230 c 0
 226 215 226 209 227 198 c 0
 226 192 227 186 229 185 c 0
 228 181 232 172 233 168 c 0
 239 156 255 135 263 123 c 0
 270 113 277 107 286 99 c 0
 293 96 292 93 299 90 c 0
 304 88 309 85 314 82 c 1
 326 82 338 82 350 82 c 1
 358 85 366 88 375 90 c 0
 388 93 394 98 408 100 c 0
 421 103 429 104 441 109 c 0
 455 111 453 113 464 118 c 0
 468 120 472 122 472 122 c 2
 472 123 475 125 477 126 c 0
 485 131 516 160 517 162 c 0xa6
 518 165 530 176 531 178 c 0
 544 196 558 210 566 240 c 0
 568 249 569 262 568 265 c 0
 567 269 553 292 547 296 c 0
 545 297 545 299 545 300 c 0
 539 309 516 326 522 350 c 0
 523 354 525 358 528 363 c 0
 534 371 540 372 549 377 c 1
 567 377 l 2
 595 377 599 372 626 372 c 0
 657 369 662 366 687 362 c 0
 702 360 706 358 709 353 c 0
 710 351 710 348 709 344 c 0
 706 332 692 313 689 307 c 0
 685 300 678 295 676 288 c 0
 672 282 664 269 660 261 c 0
 659 257 656 250 654 246 c 0
 648 235 645 224 640 206 c 0xa5
 636 191 628 161 623 141 c 0
 621 134 620 128 618 121 c 0
 612 97 604 77 586 71 c 0
 573 65 559 56 543 53 c 0
 522 48 500 37 478 34 c 0
 459 31 449 27 428 24 c 0
 421 24 408 22 398 20 c 0
 381 17 381 17 343 16 c 0
 302 16 284 17 275 20 c 0
 267 22 249 26 242 29 c 0
 236 33 229 33 225 39 c 0
 215 45 204 53 197 63 c 0
 194 65 194 69 190 71 c 0
 187 76 184 80 179 84 c 0
 168 98 165 103 157 116 c 0
 152 124 147 133 146 136 c 0
 145 140 139 148 140 151 c 1
 140 151 140 154 138 157 c 0
 137 162 138 173 134 176 c 0
 133 180 133 192 132 197 c 0
 129 201 132 218 131 223 c 0
 128 227 130 242 129 248 c 0
 127 254 129 270 129 278 c 0
 127 284 130 301 129 309 c 0
 129 325 129 344 130 360 c 0
 133 370 134 395 137 407 c 0
 139 413 141 418 144 425 c 0
 146 430 149 443 155 444 c 0
 186 448 158 457 161 462 c 0
 164 466 167 472 169 475 c 0
 171 483 181 491 183 498 c 0
 189 511 191 507 197 520 c 0
 204 534 217 547 225 561 c 0
 228 565 237 574 238 579 c 1
 251 597 l 1
 255 604 258 605 264 612 c 0
 271 624 280 634 289 644 c 0
 293 651 298 652 302 659 c 0
 305 662 306 664 307 664 c 0
 311 668 318 677 320 679 c 0
 330 687 330 691 349 708 c 0
 374 730 371 725 391 732 c 0
 396 735 409 739 415 741 c 0
 420 745 429 748 435 750 c 0
 440 754 451 757 456 760 c 0
 458 762 463 764 466 765 c 0
 472 765 479 773 485 773 c 0xa6
EndSplineSet
EndChar

StartChar: H
Encoding: 72 72 7
Width: 768
Flags: HW
LayerCount: 3
Fore
SplineSet
74 62 m 0xe8
 75 63 88 75 89 77 c 1
 89 77 92 80 94 82 c 0
 101 88 105 97 111 106 c 0
 119 119 128 142 153 235 c 0
 161 265 170 302 183 349 c 0
 238 563 236 561 252 646 c 0
 261 687 263 694 262 705 c 0
 261 711 261 718 261 722 c 0
 262 725 260 731 260 734 c 0
 257 745 259 753 266 760 c 0
 271 764 290 774 298 777 c 0
 320 783 340 798 367 798 c 0
 387 798 406 793 428 791 c 0
 469 789 475 787 477 781 c 0
 479 771 470 761 464 756 c 0
 460 750 451 742 442 734 c 0
 437 731 418 713 403 699 c 0
 392 687 384 677 376 661 c 0
 367 643 363 638 355 616 c 0
 346 588 331 559 322 525 c 0
 315 498 315 496 317 481 c 0
 318 470 323 464 335 457 c 0
 347 450 352 449 406 445 c 0
 428 444 456 443 487 443 c 0
 555 443 630 446 651 450 c 0
 672 454 695 479 706 498 c 0
 710 501 710 504 713 515 c 0
 714 518 714 521 715 524 c 0
 720 541 715 552 718 569 c 0
 722 597 719 606 728 643 c 0
 736 679 734 677 732 697 c 0
 732 702 731 707 730 710 c 0
 729 713 728 715 728 716 c 0
 728 717 721 730 721 731 c 0
 721 732 719 734 718 737 c 0
 715 742 713 761 714 766 c 0
 715 771 727 782 732 784 c 0
 734 785 738 785 741 785 c 0
 753 785 769 781 780 781 c 0
 794 781 831 787 844 793 c 0
 852 796 853 796 877 796 c 2
 902 796 l 1
 913 792 l 2
 920 790 926 787 928 787 c 0
 934 785 937 779 942 776 c 0
 945 774 945 767 943 760 c 0
 941 752 936 743 932 741 c 0
 931 740 928 737 925 734 c 0
 921 730 909 719 897 709 c 0
 860 678 859 676 846 644 c 0
 833 615 837 625 744 300 c 0
 737 278 732 260 727 243 c 0xe8
 718 210 713 183 705 144 c 0
 699 114 698 105 699 100 c 0
 699 100 702 78 703 77 c 0
 705 72 705 58 702 47 c 0
 697 27 679 21 664 14 c 0
 654 12 630 10 600 10 c 0
 567 10 556 11 553 16 c 0
 551 18 551 19 554 29 c 0xf0
 555 34 558 42 560 45 c 0
 571 66 580 95 590 117 c 0
 601 143 618 195 631 244 c 0
 633 252 635 259 637 266 c 0
 648 310 649 319 648 333 c 0
 647 338 648 344 647 345 c 0
 648 347 639 358 637 361 c 1
 621 365 l 2
 597 371 584 371 476 371 c 0
 361 370 372 370 316 362 c 0
 309 361 303 360 301 360 c 0
 296 357 284 345 282 342 c 0
 277 322 265 288 257 260 c 0
 249 229 241 192 233 156 c 0
 227 134 227 115 225 97 c 0
 221 73 229 63 222 36 c 0
 218 20 210 16 191 14 c 0
 173 12 129 10 97 10 c 0
 90 10 84 10 78 10 c 0
 50 12 37 10 39 19 c 0
 40 21 40 23 42 26 c 0
 45 31 50 37 54 41 c 0
 58 44 60 47 60 48 c 2
 60 48 73 60 74 62 c 0xe8
EndSplineSet
EndChar

StartChar: I
Encoding: 73 73 8
Width: 363
Flags: HW
LayerCount: 3
Fore
SplineSet
277 787 m 0x8c
 298 790 377 795 418 795 c 0
 464 795 475 794 506 790 c 0
 523 788 525 788 532 781 c 0
 537 778 542 766 543 761 c 0
 543 756 538 740 535 736 c 0
 516 707 477 704 450 688 c 0
 446 685 443 683 442 683 c 0
 441 682 433 675 426 666 c 1
 424 657 412 629 407 618 c 0
 400 599 390 566 377 519 c 0
 351 422 320 280 289 159 c 0
 281 127 273 100 274 99 c 0
 272 91 298 83 301 78 c 0
 306 73 313 73 318 68 c 0
 319 66 322 63 324 63 c 0x54
 327 62 335 51 338 51 c 0
 342 49 352 34 343 24 c 0
 336 18 325 12 314 10 c 0x24
 279 3 270 1 217 0 c 0x44
 167 -1 132 -5 83 -5 c 0
 65 -5 36 -1 32 1 c 0
 29 5 26 15 28 23 c 0
 33 42 60 64 72 68 c 0
 79 74 88 75 97 79 c 0
 102 81 107 82 118 83 c 0
 143 86 152 95 162 116 c 0
 167 127 182 179 210 285 c 0
 260 472 265 501 292 626 c 0
 300 661 301 664 299 675 c 0
 298 681 297 682 291 687 c 0
 287 690 284 693 283 693 c 0
 282 694 258 697 242 698 c 0
 217 702 210 699 217 730 c 0
 223 753 222 751 233 764 c 0
 241 772 247 777 253 779 c 0
 254 779 259 781 262 783 c 0
 266 785 273 787 277 787 c 0x8c
EndSplineSet
EndChar

StartChar: J
Encoding: 74 74 9
Width: 510
Flags: HW
LayerCount: 3
Fore
SplineSet
490 795 m 0xa0
 508 796 531 796 555 796 c 0
 593 796 632 795 645 794 c 0
 696 788 697 788 698 780 c 0
 699 777 699 773 698 770 c 0
 694 755 673 741 663 738 c 0
 660 737 645 734 628 731 c 0
 594 725 590 724 586 720 c 0
 583 717 578 699 551 600 c 0xa0
 503 427 479 363 431 198 c 0
 416 149 412 135 397 101 c 0
 389 81 373 36 364 25 c 0
 357 17 346 -10 339 -18 c 0
 331 -26 326 -38 319 -44 c 0
 317 -46 311 -52 307 -56 c 0
 299 -66 290 -74 279 -83 c 0
 268 -93 229 -123 219 -130 c 0
 206 -139 203 -143 191 -149 c 0
 182 -153 175 -160 167 -163 c 0
 160 -165 150 -173 143 -175 c 0
 140 -176 131 -179 124 -182 c 2
 110 -188 l 1
 88 -189 l 1
 63 -189 53 -188 46 -182 c 0
 40 -177 34 -175 28 -170 c 0
 16 -157 12 -157 -2 -136 c 0
 -7 -129 -7 -117 -4 -105 c 0
 -2 -98 1 -91 5 -86 c 0
 11 -79 38 -59 45 -56 c 0
 60 -52 68 -45 88 -45 c 2
 103 -45 l 1
 115 -52 l 2
 121 -56 129 -61 131 -64 c 0
 145 -82 146 -82 154 -84 c 0
 157 -85 161 -85 166 -85 c 0
 203 -85 219 -62 239 -38 c 0
 249 -24 269 38 278 64 c 0
 297 121 302 134 321 199 c 0xc0
 338 258 401 484 445 645 c 1
 461 706 l 1
 457 715 457 719 440 722 c 0
 430 726 419 733 411 736 c 0
 407 736 402 739 400 742 c 0
 394 749 379 759 382 770 c 0
 383 772 384 775 386 777 c 0
 393 785 401 788 429 790 c 0
 443 791 456 792 460 793 c 0
 463 793 477 794 490 795 c 0xa0
EndSplineSet
EndChar

StartChar: K
Encoding: 75 75 10
Width: 709
Flags: HW
LayerCount: 3
Fore
SplineSet
193 312 m 0xc8
 232 457 242 494 272 617 c 0
 282 656 290 690 291 693 c 0
 291 699 292 699 282 711 c 0
 274 721 269 726 266 731 c 0
 261 739 247 762 247 763 c 0
 247 764 246 766 245 769 c 0
 241 780 245 794 255 797 c 1
 255 797 306 805 338 805 c 0
 352 805 369 804 383 803 c 0
 444 799 456 797 464 794 c 0
 469 791 475 785 475 783 c 0
 472 773 459 760 452 755 c 0
 438 743 421 729 417 723 c 0
 414 720 412 716 411 716 c 0
 407 713 400 702 397 697 c 0
 392 691 380 666 376 657 c 0
 369 643 364 626 348 566 c 0xe0
 330 499 328 487 328 469 c 0
 328 462 328 454 327 452 c 0
 329 444 331 435 344 435 c 0
 364 435 375 447 390 456 c 0
 398 460 408 469 425 482 c 2
 437 492 l 1
 468 516 586 617 609 642 c 0
 613 645 626 656 627 659 c 0
 628 663 639 671 641 675 c 0
 643 678 647 683 648 685 c 0
 653 691 658 701 664 723 c 0
 667 735 679 789 681 795 c 0
 684 799 688 800 703 800 c 0
 710 800 774 803 820 803 c 0
 822 803 825 803 829 803 c 0
 849 803 890 802 888 793 c 0
 884 779 849 760 841 753 c 0
 838 750 827 745 826 743 c 0
 822 740 814 736 809 732 c 0
 797 722 779 713 768 704 c 1
 746 688 l 1
 727 672 710 662 691 644 c 0
 676 632 617 581 601 566 c 0
 595 560 588 553 584 550 c 2
 554 520 l 1
 548 513 539 504 534 499 c 0
 531 496 529 494 529 493 c 0
 529 492 525 489 523 487 c 0
 518 483 513 474 509 469 c 0
 503 463 501 459 499 450 c 0
 495 435 499 429 501 419 c 0
 501 412 503 412 504 406 c 0
 505 398 510 392 512 385 c 0
 513 385 515 383 515 381 c 0
 520 370 528 352 536 340 c 0
 540 332 546 321 568 280 c 0
 581 260 587 250 599 228 c 0
 610 209 615 197 626 181 c 0
 629 174 633 167 634 164 c 0
 641 152 673 91 674 87 c 1
 679 80 683 68 688 61 c 0
 690 55 691 50 694 46 c 0
 697 43 698 37 696 30 c 0
 693 19 680 13 673 11 c 0
 666 9 649 8 628 8 c 0
 576 8 553 14 518 18 c 0
 508 20 498 21 496 22 c 0
 492 24 488 30 489 34 c 0
 491 41 498 49 502 56 c 0
 506 63 513 71 517 78 c 0
 524 89 531 94 534 107 c 0
 534 108 534 110 535 112 c 0
 539 126 534 129 534 138 c 0
 531 142 529 149 528 154 c 0
 529 156 519 173 516 175 c 0
 511 182 500 185 495 192 c 0
 494 194 493 196 491 196 c 0
 470 227 459 233 445 260 c 0
 441 265 435 274 432 280 c 0
 414 307 402 324 393 335 c 0
 389 341 384 349 379 352 c 0
 376 356 373 361 366 361 c 0
 357 361 353 354 346 352 c 0
 340 349 336 345 330 342 c 0
 322 338 302 320 299 316 c 0
 287 300 289 304 275 264 c 0
 272 254 269 245 266 235 c 0xc8
 263 225 261 214 257 199 c 0
 246 150 243 136 243 124 c 0
 242 112 241 94 242 84 c 0
 244 76 243 67 241 58 c 0xd0
 237 43 225 34 213 29 c 0
 210 29 205 27 201 25 c 0
 193 22 185 20 167 18 c 0
 160 18 146 16 137 15 c 0
 120 13 88 11 68 11 c 0
 50 11 34 13 31 23 c 0
 29 27 33 43 38 51 c 0
 42 58 44 59 59 64 c 0
 70 68 75 69 91 72 c 0
 101 72 105 76 113 80 c 0
 118 83 124 88 130 98 c 0
 133 101 137 114 148 148 c 0
 154 168 173 238 193 312 c 0xc8
EndSplineSet
EndChar

StartChar: L
Encoding: 76 76 11
Width: 689
Flags: HW
LayerCount: 3
Fore
SplineSet
357 76 m 0x58
 380 72 400 67 428 67 c 0x38
 461 67 485 75 512 84 c 0
 522 89 524 89 533 94 c 0
 541 97 545 100 552 104 c 0
 561 106 560 110 567 112 c 0
 573 115 576 119 582 122 c 0
 589 124 599 131 605 136 c 0
 606 138 610 140 612 140 c 0
 617 144 625 149 630 151 c 0
 638 155 638 156 647 160 c 0
 650 161 655 163 657 165 c 0
 657 165 681 173 692 173 c 0
 693 173 694 173 695 173 c 0
 701 171 707 168 708 166 c 0
 708 165 709 161 710 156 c 0
 712 148 711 148 709 140 c 0
 706 128 694 104 687 98 c 0
 682 91 678 85 672 77 c 0
 669 74 666 71 666 70 c 0
 665 66 656 60 654 56 c 0
 650 52 647 48 634 36 c 0
 621 24 605 13 597 11 c 0
 587 6 553 7 542 4 c 0
 503 0 407 -2 366 -5 c 0x58
 309 -9 272 -9 198 -9 c 0
 155 -9 117 -8 110 -8 c 0
 67 -3 45 0 38 18 c 0
 36 28 37 32 43 42 c 0
 46 46 48 50 49 51 c 0
 51 54 70 71 82 80 c 0
 91 86 93 89 102 94 c 0
 104 95 107 97 107 98 c 1
 110 98 127 111 129 113 c 0
 134 116 134 112 146 155 c 0x94
 152 178 161 215 177 274 c 0
 219 432 233 487 239 518 c 0
 242 528 244 545 247 555 c 0
 249 566 252 582 255 592 c 0
 262 622 259 624 262 649 c 0
 265 666 261 667 262 680 c 0
 263 689 259 694 258 700 c 0
 258 702 256 706 251 713 c 0
 239 729 234 739 234 740 c 0
 234 741 234 744 232 748 c 0
 230 756 230 765 232 774 c 0
 235 785 241 794 252 798 c 0
 253 799 261 800 272 800 c 0
 282 801 315 801 349 801 c 0
 397 801 450 801 459 800 c 0
 491 797 510 794 516 771 c 0
 517 766 517 761 517 760 c 0
 515 751 495 737 487 734 c 0
 484 732 473 724 470 724 c 0
 467 724 458 716 455 715 c 0
 440 707 423 691 416 674 c 0
 413 668 409 660 406 654 c 0
 400 641 396 628 379 568 c 0x98
 346 455 328 399 299 290 c 0
 295 275 292 263 290 254 c 0x94
 279 214 280 201 271 168 c 0
 267 142 269 142 270 125 c 0
 271 120 274 111 276 108 c 0
 275 103 288 95 292 94 c 0
 294 92 299 90 301 90 c 0x98
 305 85 326 82 337 80 c 0
 342 78 351 76 357 76 c 0x58
EndSplineSet
EndChar

StartChar: M
Encoding: 77 77 12
Width: 877
Flags: HW
LayerCount: 3
Fore
SplineSet
253 770 m 0xe0
 273 777 282 778 302 778 c 0
 310 778 319 778 333 778 c 0
 395 778 393 775 423 766 c 0
 431 764 431 759 437 756 c 0
 443 752 457 732 459 724 c 0
 460 717 462 714 464 706 c 0
 463 693 467 695 468 683 c 0
 470 669 472 656 472 640 c 0
 475 636 474 612 475 607 c 0
 476 601 474 578 476 572 c 0
 476 562 477 544 478 535 c 0
 478 526 477 509 479 501 c 0
 481 492 477 473 480 465 c 0
 481 457 479 437 481 431 c 0
 483 421 483 409 484 398 c 0
 486 388 484 374 486 364 c 0
 488 354 484 335 486 325 c 0
 484 303 484 273 482 252 c 0
 481 242 483 226 492 226 c 0
 493 226 495 226 496 227 c 0
 504 229 513 242 520 248 c 0
 525 252 533 264 536 270 c 0
 542 275 549 290 555 295 c 0
 559 301 567 315 572 321 c 0
 578 329 584 344 591 351 c 0
 598 361 602 370 609 380 c 0
 617 388 622 403 629 411 c 0
 636 420 642 434 649 444 c 0
 655 452 660 468 667 475 c 0
 672 481 683 502 687 508 c 0
 694 515 700 534 707 541 c 0
 724 570 741 597 757 625 c 0
 762 638 769 647 777 659 c 0
 782 669 790 677 795 687 c 0
 799 695 811 706 813 713 c 0
 814 715 816 718 818 719 c 0
 820 721 824 725 828 729 c 0
 834 737 855 753 861 756 c 2
 872 761 l 1
 876 764 881 766 886 767 c 0
 889 767 898 770 904 772 c 0
 921 777 936 778 985 778 c 0
 1030 777 1029 777 1045 769 c 0
 1055 764 1059 758 1049 743 c 0
 1046 738 1031 726 1022 720 c 0
 988 698 958 672 951 660 c 0
 945 648 936 638 930 624 c 0
 925 610 918 586 906 541 c 0xe0
 899 514 890 479 879 435 c 0
 831 249 823 218 817 174 c 0
 816 167 814 154 812 146 c 0
 809 128 809 91 823 84 c 0
 826 83 828 81 830 79 c 0
 833 74 846 71 851 67 c 0
 854 64 856 62 858 61 c 0
 861 59 868 47 867 43 c 0
 866 41 853 30 850 28 c 0
 840 28 826 24 814 22 c 0
 786 17 768 16 715 16 c 0
 649 18 664 17 622 25 c 0
 606 27 601 28 596 31 c 0
 590 35 586 41 587 44 c 0
 590 55 612 61 619 67 c 0
 622 72 639 75 644 79 c 0
 646 81 652 83 656 84 c 0
 666 88 674 93 683 96 c 0
 690 98 690 90 707 154 c 0xd0
 715 182 724 222 740 283 c 0
 768 388 789 471 791 481 c 0
 796 501 799 528 800 543 c 0
 802 554 802 557 798 557 c 0
 793 555 785 544 782 538 c 0
 775 531 771 523 765 514 c 0
 759 507 753 495 747 488 c 0
 741 483 734 468 728 460 c 0
 721 453 718 440 711 433 c 0
 704 425 699 414 692 405 c 0
 686 396 680 383 673 375 c 0
 666 365 662 354 655 345 c 0
 647 336 641 324 635 315 c 0
 628 307 622 294 616 285 c 0
 613 281 609 274 607 271 c 0
 604 261 593 250 589 241 c 0
 584 230 576 223 570 212 c 0
 565 201 556 192 551 182 c 0
 547 173 536 162 532 153 c 0
 527 143 520 137 515 127 c 0
 512 123 509 117 506 113 c 0
 502 109 498 103 496 99 c 0
 491 89 486 85 479 76 c 0
 476 71 472 65 469 62 c 0
 465 59 462 56 462 55 c 0
 461 52 445 37 439 34 c 0
 430 30 427 30 423 33 c 0
 423 35 421 36 420 36 c 0
 419 36 416 40 414 45 c 0
 409 52 408 59 410 65 c 0
 410 66 410 71 408 75 c 0
 406 85 409 100 407 110 c 0
 405 116 404 132 404 139 c 0
 402 147 403 164 402 172 c 0
 399 179 401 197 399 205 c 0
 397 214 399 229 397 238 c 0
 398 260 393 273 396 298 c 0
 399 317 398 331 400 349 c 0
 402 363 399 374 399 386 c 0
 400 396 394 402 395 411 c 0
 395 421 390 430 391 440 c 0
 391 444 391 449 390 453 c 0
 389 456 387 461 388 465 c 0
 389 475 384 483 385 494 c 0
 386 503 380 513 381 522 c 0
 378 531 378 549 366 549 c 0
 361 549 357 545 353 537 c 0
 330 485 322 462 309 414 c 0
 302 388 293 355 280 306 c 0
 259 227 239 150 238 143 c 0
 237 137 237 126 237 117 c 0
 238 94 247 89 260 78 c 0
 265 71 268 71 271 61 c 0
 276 48 275 45 262 35 c 0
 250 25 222 21 217 19 c 0
 207 16 192 15 162 15 c 0
 153 15 142 15 130 15 c 0
 78 16 73 16 56 22 c 0
 46 26 42 29 43 33 c 0
 44 37 50 46 55 50 c 0
 72 64 92 81 97 84 c 0
 104 88 112 96 119 98 c 0
 122 100 124 102 124 102 c 1
 124 103 142 113 143 114 c 0
 144 116 148 118 149 119 c 0
 155 122 155 116 174 188 c 0
 201 288 252 489 272 566 c 0
 296 660 297 665 296 670 c 0
 295 677 292 682 285 685 c 0
 276 691 269 698 259 702 c 0
 256 707 245 709 242 714 c 0
 229 720 220 727 223 739 c 0
 224 744 228 751 235 759 c 0
 240 765 242 766 253 770 c 0xe0
EndSplineSet
EndChar

StartChar: N
Encoding: 78 78 13
Width: 787
Flags: HW
LayerCount: 3
Fore
SplineSet
567 428 m 2x58
 567 427 575 405 576 405 c 0
 578 405 584 387 584 385 c 0
 584 381 591 372 590 368 c 0
 590 367 591 365 592 363 c 0
 593 360 597 344 599 344 c 0
 600 342 601 330 604 328 c 0
 605 323 607 315 608 310 c 0
 612 304 613 290 615 282 c 0
 615 275 620 271 621 265 c 0
 622 260 629 249 634 249 c 0
 639 249 644 251 645 254 c 0
 650 261 664 293 667 302 c 0
 674 321 693 386 722 496 c 0
 751 604 766 664 766 670 c 0
 766 696 735 706 722 721 c 0
 717 729 716 734 721 749 c 0
 725 762 729 767 738 773 c 0
 750 781 750 781 786 782 c 0
 823 782 850 783 880 790 c 0
 890 793 900 795 902 796 c 0
 903 796 904 796 906 796 c 0x98
 915 796 938 792 942 789 c 0
 943 787 945 785 948 784 c 0
 955 777 961 767 963 756 c 0
 964 753 962 746 960 742 c 0
 948 726 921 714 905 704 c 0x58
 902 702 899 700 898 700 c 0
 896 700 868 675 867 674 c 0
 866 672 863 669 860 666 c 0
 855 661 853 658 847 645 c 0
 831 613 825 596 756 340 c 0
 725 224 696 116 691 102 c 0
 684 79 668 30 657 23 c 0
 653 20 650 15 646 13 c 0
 637 8 632 2 620 2 c 0
 610 2 605 6 601 12 c 0
 594 18 580 43 576 57 c 0
 573 66 568 72 566 81 c 0
 563 85 562 92 561 96 c 0
 558 98 556 106 555 110 c 0
 553 111 551 125 549 125 c 0
 546 125 541 143 541 147 c 0
 538 154 537 156 534 163 c 0
 533 169 531 171 529 177 c 0
 529 180 528 183 527 183 c 0
 525 186 524 195 521 199 c 0
 516 206 515 214 512 222 c 1
 513 224 505 234 506 236 c 0
 507 238 500 252 499 253 c 0
 497 258 491 270 488 278 c 0
 485 288 479 297 476 307 c 0
 473 316 470 320 467 329 c 0
 465 332 464 334 464 335 c 0
 460 346 453 364 450 371 c 0
 449 373 445 383 444 383 c 0
 442 383 438 398 437 399 c 0
 436 401 433 412 432 412 c 0
 431 412 426 424 426 426 c 0
 423 430 422 439 420 442 c 0
 418 444 416 455 415 457 c 0
 414 459 412 474 409 474 c 0
 407 477 406 489 404 492 c 0
 402 495 401 505 399 508 c 0
 397 520 389 533 379 538 c 0
 375 540 371 542 370 542 c 0
 366 542 358 537 354 534 c 0
 354 533 350 527 348 521 c 0
 345 514 339 490 330 456 c 0x98
 321 422 309 377 297 329 c 0
 267 211 260 179 255 150 c 0
 249 116 249 112 253 104 c 0
 255 101 257 99 257 98 c 0
 259 95 268 85 269 85 c 0
 271 85 280 75 281 75 c 0
 283 75 284 73 285 71 c 0
 286 69 290 67 292 65 c 0
 301 58 310 48 307 38 c 0
 306 33 302 28 292 23 c 0
 282 17 280 16 267 12 c 0
 248 9 246 5 223 2 c 0
 216 2 204 0 197 -1 c 0
 186 -3 161 -4 148 -4 c 0
 125 -4 78 1 64 10 c 0
 54 17 40 28 44 42 c 0
 49 52 60 54 67 60 c 0
 68 61 72 63 75 64 c 0
 83 71 95 73 103 80 c 0
 108 84 130 97 131 102 c 0
 132 104 142 114 143 116 c 0xa8
 144 119 147 126 152 133 c 0
 163 153 166 161 198 268 c 0
 225 360 242 420 264 498 c 0
 292 601 293 610 298 652 c 0
 298 664 299 665 296 673 c 0
 292 680 286 691 284 691 c 0
 283 691 276 700 274 700 c 2x98
 274 700 269 702 265 704 c 0
 250 710 241 709 233 721 c 0
 227 730 224 737 224 744 c 0
 225 747 224 750 225 752 c 0
 233 782 260 783 293 783 c 0
 320 783 354 782 368 779 c 0
 393 775 397 774 410 773 c 0
 428 772 430 771 433 763 c 0
 433 753 439 745 442 737 c 0
 444 733 444 730 444 729 c 0
 443 725 448 719 449 714 c 0
 450 711 451 707 452 707 c 0
 454 704 455 693 458 691 c 0
 459 689 462 677 463 675 c 0
 464 673 467 661 469 659 c 0
 472 655 472 649 475 645 c 0
 477 638 480 629 484 623 c 0
 484 616 489 610 491 604 c 0
 494 595 495 592 497 587 c 0
 500 583 501 574 504 570 c 0
 505 569 507 557 509 557 c 0
 515 548 518 537 521 528 c 0
 523 526 523 523 523 522 c 0
 523 522 531 509 531 508 c 2
 531 508 531 505 533 502 c 0
 538 495 540 483 545 475 c 0
 547 472 549 468 549 468 c 1
 548 464 555 457 555 454 c 0
 556 449 558 445 564 434 c 0
 566 431 567 428 567 428 c 2x58
EndSplineSet
EndChar

StartChar: O
Encoding: 79 79 14
Width: 748
Flags: HW
LayerCount: 3
Fore
SplineSet
548 732 m 0
 537 735 526 741 515 741 c 0
 510 741 504 740 499 737 c 0
 493 734 482 732 477 728 c 0
 472 725 464 723 459 720 c 0
 430 700 413 691 391 670 c 0
 381 662 368 651 358 641 c 0
 354 636 351 635 347 629 c 0
 346 627 335 618 334 615 c 0
 333 612 323 604 320 600 c 0
 315 593 314 593 309 585 c 0
 303 576 299 575 294 566 c 0
 289 556 285 554 280 545 c 0
 270 526 267 527 257 495 c 0
 256 490 253 482 250 471 c 0
 239 429 220 352 218 324 c 0
 217 310 211 288 212 276 c 0
 213 265 211 249 212 240 c 0
 214 233 212 223 214 216 c 0
 216 211 215 203 217 198 c 0
 219 194 220 186 222 181 c 0
 225 177 225 172 228 168 c 0
 238 151 245 141 247 139 c 0
 251 136 249 134 254 131 c 0
 260 128 261 124 266 121 c 0
 273 119 276 114 283 112 c 0
 291 109 294 105 304 102 c 0
 320 98 320 95 342 92 c 0
 369 88 371 85 411 84 c 0
 418 84 424 84 430 84 c 0
 448 84 458 85 465 88 c 0
 472 91 485 93 492 98 c 0
 497 101 506 103 511 107 c 0
 513 109 525 114 526 116 c 0
 526 116 531 119 534 121 c 0
 552 131 577 154 590 169 c 0
 596 176 600 178 605 186 c 0
 611 195 613 194 618 204 c 0
 624 214 626 214 632 225 c 0
 639 237 644 242 649 255 c 0
 658 275 663 276 672 304 c 0
 675 310 678 320 681 327 c 0
 690 346 695 360 709 412 c 0
 723 466 726 479 727 501 c 0
 729 518 733 534 732 545 c 0
 731 552 732 566 730 572 c 0
 729 577 728 589 727 594 c 0
 725 598 725 606 723 610 c 0
 721 611 720 614 720 616 c 0
 717 627 703 650 696 657 c 0
 692 661 690 665 686 667 c 0
 681 670 681 673 676 676 c 0
 670 679 669 683 663 686 c 0
 657 688 655 693 647 695 c 0
 639 698 637 702 629 705 c 0
 619 708 616 712 605 714 c 0
 594 717 592 721 579 724 c 0
 566 726 562 730 548 732 c 0
701 188 m 0
 701 188 688 175 688 174 c 0
 686 168 619 114 599 98 c 0
 595 95 592 94 592 94 c 0
 590 94 579 85 577 84 c 0
 575 82 565 74 562 74 c 0
 560 74 550 66 548 65 c 0
 545 64 534 56 532 56 c 0
 528 56 515 47 511 46 c 0
 501 42 501 39 489 36 c 0
 479 33 475 29 463 27 c 0
 445 23 443 19 422 18 c 0
 403 16 390 15 379 15 c 0
 371 15 363 16 352 16 c 0
 322 19 317 23 298 27 c 0
 285 29 282 34 270 36 c 0
 262 38 254 44 246 46 c 0
 239 48 233 54 227 56 c 0
 221 57 215 62 210 65 c 0
 203 67 202 71 195 74 c 0
 188 79 192 78 184 84 c 0
 175 91 167 100 158 114 c 0
 147 130 145 132 144 137 c 0
 143 142 141 142 140 148 c 0
 138 153 134 157 133 163 c 0
 133 170 131 170 129 178 c 0
 127 184 124 185 124 191 c 0
 125 197 121 203 121 209 c 0
 120 216 117 220 116 227 c 0
 115 235 113 238 113 246 c 0
 113 253 110 258 110 266 c 0
 109 273 106 278 107 287 c 0
 107 291 107 297 107 300 c 0
 107 319 109 330 122 383 c 0
 126 398 129 413 133 428 c 0
 141 459 151 486 161 504 c 0
 166 514 169 524 176 531 c 0
 180 537 186 546 190 552 c 0
 194 557 200 569 204 572 c 0
 208 575 214 585 217 589 c 0
 222 593 227 602 231 606 c 0
 235 609 240 618 243 620 c 0
 244 620 248 624 250 626 c 0
 269 648 275 652 292 668 c 0
 306 681 337 707 364 723 c 0
 372 728 373 731 380 733 c 0
 386 736 387 738 396 742 c 0
 405 746 408 750 416 752 c 0
 423 754 428 758 436 760 c 0
 451 763 465 767 485 769 c 0
 514 772 512 774 529 780 c 0
 537 782 544 787 554 788 c 0
 559 789 564 789 569 789 c 0
 590 789 604 782 622 780 c 0
 634 778 643 773 653 770 c 0
 658 769 669 762 674 762 c 0
 681 762 687 754 695 752 c 0
 702 749 705 744 712 742 c 0
 718 740 719 735 725 733 c 0
 731 731 733 726 738 723 c 0
 744 720 745 717 750 714 c 0
 755 711 755 708 760 705 c 0
 762 703 767 696 769 696 c 0
 771 696 788 674 796 661 c 0
 798 659 809 644 813 633 c 0
 814 629 816 628 817 624 c 0
 818 618 821 614 823 608 c 0
 824 601 827 601 827 592 c 0
 828 584 830 581 830 573 c 0
 829 564 833 555 832 544 c 0
 829 522 831 522 824 488 c 0
 816 447 819 449 817 423 c 0
 816 412 819 404 818 394 c 0
 817 384 817 370 814 357 c 0
 813 354 813 352 811 349 c 0
 798 326 795 325 787 310 c 0
 782 300 776 298 771 288 c 0
 766 278 761 271 756 261 c 0
 750 250 745 248 740 238 c 0
 736 230 732 227 728 220 c 0
 725 216 714 204 713 201 c 0
 713 200 702 190 701 188 c 0
EndSplineSet
EndChar

StartChar: P
Encoding: 80 80 15
Width: 597
Flags: HW
LayerCount: 3
Fore
SplineSet
554 717 m 0
 545 720 526 722 507 722 c 0
 487 722 466 720 454 715 c 0
 448 712 438 710 432 706 c 0
 427 703 419 701 415 698 c 0
 409 692 401 689 394 682 c 0
 382 670 374 662 367 642 c 0
 355 612 345 586 335 547 c 0
 334 543 332 538 331 533 c 0
 323 499 325 503 322 474 c 0
 321 465 323 448 326 442 c 0
 327 440 328 438 328 438 c 0
 326 429 355 420 362 419 c 0
 367 418 373 418 380 418 c 0
 407 418 440 424 462 426 c 0
 482 427 487 431 504 434 c 0
 517 437 518 440 528 443 c 0
 549 451 573 476 584 502 c 0
 590 516 601 543 607 565 c 0
 609 573 609 580 610 586 c 0
 610 592 615 627 614 631 c 0
 612 639 615 646 612 654 c 0
 611 657 611 660 611 660 c 0
 612 663 606 670 606 672 c 0
 605 677 595 692 593 694 c 0
 588 697 576 708 567 711 c 0
 562 713 559 716 554 717 c 0
462 787 m 0
 473 791 509 796 537 796 c 0
 549 796 560 795 567 793 c 0
 575 791 593 789 598 786 c 0
 603 782 616 781 621 777 c 0
 626 773 632 773 636 768 c 0
 640 765 648 763 651 759 c 0
 652 756 659 754 662 751 c 0
 666 747 669 746 672 742 c 0
 674 741 675 738 677 737 c 0
 683 732 692 719 701 710 c 0
 716 696 727 667 736 649 c 0
 737 647 737 644 737 643 c 0
 737 643 739 640 739 638 c 0
 743 631 740 619 736 605 c 0
 733 593 729 580 725 569 c 0
 716 540 712 538 704 519 c 0
 699 507 694 501 689 491 c 0
 685 482 680 480 675 471 c 0
 671 464 668 461 664 456 c 0
 655 442 627 415 615 408 c 0
 609 404 610 403 605 400 c 0
 599 397 594 393 588 390 c 0
 583 388 578 383 572 381 c 0
 565 379 561 375 553 373 c 0
 546 370 536 365 528 363 c 0
 514 361 509 357 492 354 c 0
 458 350 451 346 402 346 c 0
 366 346 336 344 329 342 c 0
 302 334 308 337 295 328 c 0
 289 324 290 323 284 316 c 0
 279 311 279 310 270 290 c 0
 260 266 258 259 242 201 c 0
 226 141 226 141 225 117 c 0
 223 91 234 84 242 67 c 0
 246 58 257 41 253 26 c 0
 251 20 248 15 241 10 c 0
 239 8 220 2 213 1 c 0
 205 0 125 -2 79 -2 c 0
 44 -2 34 -1 31 1 c 0
 27 4 27 9 29 16 c 0
 31 23 36 30 40 35 c 0
 48 45 63 58 70 61 c 0
 75 63 78 67 85 70 c 0
 89 72 94 77 96 77 c 0
 99 77 106 82 108 85 c 0
 109 87 150 237 190 386 c 0
 230 536 269 686 269 688 c 0
 269 691 262 695 261 698 c 0
 259 700 253 703 251 706 c 0
 249 708 242 713 240 716 c 0
 239 717 238 718 236 719 c 0
 234 722 225 737 225 741 c 0
 224 745 226 752 229 756 c 0
 232 762 248 771 262 774 c 0
 297 780 282 781 374 782 c 0
 410 783 442 783 447 784 c 0
 453 784 457 786 462 787 c 0
EndSplineSet
EndChar

StartChar: Q
Encoding: 81 81 16
Width: 763
Flags: HW
LayerCount: 3
Fore
SplineSet
619 728 m 0x2e
 599 730 574 735 554 735 c 0
 548 735 542 734 537 733 c 0
 526 730 511 729 503 724 c 0
 494 719 481 716 473 710 c 0
 471 709 451 700 450 698 c 0
 449 695 432 686 428 683 c 0
 424 680 420 678 420 678 c 0
 414 678 367 636 353 623 c 0
 347 618 339 606 333 600 c 0
 327 594 321 581 315 572 c 0
 306 561 297 538 289 523 c 0
 280 506 277 495 263 448 c 0
 261 441 259 434 257 427 c 0
 244 380 237 342 236 322 c 0
 235 309 231 276 233 266 c 0
 235 255 232 238 235 228 c 0
 237 219 235 205 238 197 c 0
 241 189 242 184 245 175 c 0
 253 158 246 164 261 141 c 0
 265 135 269 130 270 130 c 0x1e
 271 130 273 128 274 125 c 0
 279 120 288 115 292 110 c 0
 296 105 307 103 313 98 c 0
 321 92 340 89 350 85 c 0
 363 80 376 79 408 79 c 0
 454 79 461 84 493 91 c 0
 509 94 517 100 529 104 c 0
 535 106 553 118 557 118 c 0
 560 118 579 130 582 132 c 0
 588 135 590 140 597 144 c 0
 603 147 610 157 616 161 c 0
 620 165 630 181 634 185 c 0
 640 190 647 205 653 213 c 0
 662 225 668 244 676 256 c 0
 685 269 696 301 705 316 c 0
 713 331 727 370 733 390 c 0
 741 413 747 431 751 446 c 0
 758 471 760 491 765 519 c 0
 769 540 769 542 768 554 c 0
 764 575 768 572 759 597 c 0
 754 610 750 623 743 635 c 0
 736 645 722 668 708 683 c 0
 702 690 698 692 692 698 c 0
 691 701 688 703 686 703 c 0
 685 703 683 706 679 709 c 0
 668 719 642 726 619 728 c 0x2e
575 -169 m 0
 573 -169 557 -181 555 -181 c 0
 554 -181 550 -184 545 -187 c 0
 529 -197 509 -204 488 -204 c 0x8e
 479 -204 469 -203 460 -200 c 0
 444 -196 434 -196 423 -189 c 0
 414 -184 405 -182 398 -176 c 0
 395 -173 382 -167 380 -163 c 0
 378 -159 369 -154 366 -151 c 0
 363 -147 354 -141 350 -137 c 0
 342 -127 318 -116 294 -116 c 0x2e
 284 -116 273 -118 263 -124 c 0
 255 -128 245 -132 237 -138 c 0
 221 -149 202 -162 191 -169 c 0
 186 -172 181 -175 181 -176 c 0
 180 -179 160 -187 157 -189 c 0
 147 -195 132 -198 118 -198 c 0
 110 -198 101 -197 96 -194 c 0
 91 -191 85 -180 81 -169 c 0
 78 -162 78 -161 81 -150 c 0
 84 -138 84 -138 92 -129 c 0
 100 -120 118 -104 120 -104 c 0
 121 -104 125 -101 130 -98 c 0
 138 -92 148 -90 157 -84 c 0
 165 -78 178 -76 189 -71 c 0
 200 -66 217 -64 228 -59 c 0
 232 -57 241 -54 248 -53 c 0
 259 -50 267 -47 291 -36 c 0
 304 -30 320 -14 324 2 c 0
 326 9 326 16 322 22 c 0
 318 27 305 32 290 35 c 0
 266 38 255 41 250 46 c 0
 242 52 234 53 226 60 c 0
 222 64 218 66 217 66 c 0x5e
 216 66 213 68 212 71 c 0
 210 74 205 77 203 79 c 0x2e
 172 101 145 150 127 185 c 0
 123 193 123 200 120 208 c 0
 116 215 118 227 117 237 c 0
 116 242 116 249 118 259 c 0
 124 295 118 290 113 312 c 0
 110 327 116 358 124 389 c 0
 134 425 146 460 154 473 c 0
 159 482 174 512 181 520 c 0
 188 529 194 545 201 551 c 0
 204 554 215 572 218 575 c 0
 222 578 232 595 236 598 c 0
 243 602 250 615 257 622 c 0
 261 626 265 631 265 631 c 0
 265 632 268 635 273 639 c 0
 299 664 340 702 360 716 c 0
 382 732 406 749 421 756 c 0
 433 762 431 764 442 768 c 0
 453 772 466 780 478 782 c 0
 491 785 500 791 512 793 c 0
 527 795 562 801 586 801 c 0
 592 801 597 801 600 800 c 0
 622 798 672 794 678 791 c 0
 686 788 695 784 704 782 c 0
 715 780 723 772 731 769 c 0
 743 766 745 760 755 756 c 0
 763 752 766 747 772 743 c 0
 779 740 782 733 788 730 c 0
 794 726 793 723 799 718 c 0
 804 713 807 709 821 689 c 0
 834 669 844 650 846 644 c 0
 847 637 851 629 853 621 c 0
 855 611 858 610 859 599 c 0
 861 588 864 585 864 572 c 0
 864 561 868 557 868 547 c 0
 865 506 870 514 860 462 c 0
 859 455 856 444 853 431 c 0
 841 388 820 325 811 309 c 0
 806 299 794 270 787 261 c 0
 780 253 774 239 766 230 c 0
 759 223 756 213 749 206 c 0
 745 203 734 185 730 184 c 0
 729 183 726 180 722 176 c 0
 706 156 647 105 620 90 c 0
 617 88 613 85 613 84 c 0
 612 81 585 66 581 65 c 0
 575 62 567 55 559 53 c 0
 552 50 541 42 534 39 c 0
 527 37 516 28 509 26 c 0
 501 24 493 17 484 13 c 0
 475 10 470 5 461 1 c 0
 455 -2 443 -11 436 -15 c 0
 429 -19 428 -22 422 -28 c 0
 418 -31 415 -34 415 -35 c 0
 410 -52 433 -56 447 -61 c 0
 456 -64 484 -66 514 -66 c 0x8e
 524 -66 536 -66 547 -65 c 0
 583 -64 591 -62 606 -58 c 0
 620 -53 640 -51 654 -45 c 0
 661 -43 668 -41 678 -40 c 0
 683 -39 686 -39 690 -39 c 0
 703 -39 707 -44 706 -53 c 0
 705 -56 704 -60 703 -62 c 0
 689 -78 685 -83 679 -89 c 0
 652 -114 608 -145 582 -164 c 0
 578 -167 575 -169 575 -169 c 0
EndSplineSet
EndChar

StartChar: R
Encoding: 82 82 17
Width: 681
Flags: HW
LayerCount: 3
Fore
SplineSet
530 702 m 0
 512 704 482 710 462 710 c 0
 427 710 405 697 391 657 c 0
 388 649 383 627 377 609 c 0
 364 561 336 449 336 445 c 0
 336 438 359 436 368 433 c 0
 382 428 399 428 417 424 c 0
 430 422 440 421 448 421 c 0
 461 421 472 423 489 427 c 0
 501 430 529 448 538 462 c 0
 544 469 546 470 552 479 c 0
 558 487 561 490 565 498 c 0
 568 507 576 515 582 526 c 0
 592 546 593 540 600 567 c 0
 608 595 603 594 605 616 c 0
 607 632 605 635 605 647 c 0
 606 657 603 660 602 669 c 0
 601 679 591 689 576 692 c 0
 557 695 554 700 530 702 c 0
320 792 m 0
 332 792 346 793 360 793 c 0
 406 793 457 791 498 789 c 0
 576 786 596 785 606 780 c 0
 612 778 631 774 635 771 c 0
 639 767 646 764 649 760 c 0
 651 757 660 753 661 750 c 0
 662 747 671 741 673 739 c 0
 673 737 675 734 677 732 c 0
 692 716 705 693 709 675 c 0
 711 668 712 671 713 662 c 0
 714 652 716 650 716 639 c 0
 716 622 719 628 714 602 c 0
 712 588 709 573 706 560 c 0
 701 542 695 527 686 516 c 0
 682 511 678 501 674 496 c 0
 669 491 664 484 660 479 c 0
 653 472 647 465 640 458 c 0
 629 446 601 423 586 411 c 0
 565 394 550 387 530 368 c 0
 519 358 518 356 515 345 c 0
 514 343 514 341 514 340 c 0
 509 323 512 318 514 307 c 0
 515 299 516 302 518 294 c 0
 521 286 532 264 534 255 c 0
 538 244 543 234 547 222 c 0
 550 214 554 208 555 200 c 0
 556 196 558 193 559 188 c 0
 562 174 575 145 578 130 c 0
 579 123 583 117 587 110 c 0
 592 98 598 84 612 80 c 0
 622 77 623 73 629 69 c 0
 634 66 634 62 639 58 c 0
 647 50 657 30 657 30 c 1
 656 28 661 18 660 14 c 0
 659 -2 653 -3 639 -8 c 0
 630 -11 620 -12 610 -12 c 0
 589 -12 566 -7 548 -5 c 0
 535 -4 522 4 513 6 c 0
 507 8 504 13 499 16 c 0
 491 21 477 46 474 60 c 0
 473 62 468 72 469 75 c 0
 470 79 466 87 465 91 c 0
 465 100 462 100 461 108 c 0
 460 116 458 119 457 127 c 0
 455 135 454 134 453 143 c 0
 452 153 451 152 449 160 c 0
 448 168 445 170 444 178 c 0
 443 185 442 184 441 192 c 0
 440 198 436 204 436 210 c 0
 436 216 432 219 431 224 c 0
 430 229 428 234 427 239 c 0
 426 242 421 252 422 254 c 0
 423 257 418 266 417 269 c 0
 413 282 410 288 403 302 c 0
 399 313 382 344 381 344 c 0
 379 344 373 353 371 355 c 0
 365 359 364 363 352 362 c 0
 337 362 319 346 314 336 c 0
 305 318 304 324 293 293 c 0
 277 247 272 238 251 166 c 0
 248 154 246 146 244 139 c 0
 239 120 239 119 244 112 c 0
 262 89 276 66 290 39 c 0
 294 33 295 20 294 15 c 0
 293 11 291 10 286 5 c 0
 275 -5 260 -5 243 -7 c 0
 233 -8 196 -9 163 -9 c 0
 151 -9 139 -9 131 -9 c 0
 94 -7 61 -4 58 -3 c 0
 55 -1 48 8 48 11 c 0
 49 14 58 30 62 33 c 0
 75 45 82 45 93 53 c 0
 98 57 105 59 110 63 c 0
 111 65 116 68 118 69 c 0
 136 79 155 107 162 126 c 0
 164 131 179 189 210 300 c 0
 263 498 269 520 273 560 c 0
 276 581 283 609 284 628 c 0
 285 644 289 658 287 669 c 0
 285 680 287 685 281 695 c 0
 274 708 272 710 264 713 c 0
 256 717 254 719 246 722 c 0
 236 726 226 742 231 762 c 0
 234 772 238 782 246 786 c 0
 251 788 284 792 320 792 c 0
EndSplineSet
EndChar

StartChar: S
Encoding: 83 83 18
Width: 493
Flags: HW
LayerCount: 3
Fore
SplineSet
381 782 m 0xd8
 393 787 408 788 425 788 c 0
 445 788 465 786 478 782 c 0
 488 778 508 776 517 774 c 0
 523 772 533 771 543 771 c 0
 552 771 563 772 570 774 c 0
 580 777 591 779 599 779 c 0
 604 779 607 778 609 777 c 0
 615 773 620 755 622 746 c 0
 627 736 624 721 625 709 c 0
 626 699 623 680 618 663 c 0
 615 653 612 644 609 638 c 0
 601 628 584 617 568 617 c 0
 564 617 560 618 557 619 c 0
 552 620 542 622 539 625 c 0
 537 628 530 632 528 636 c 0
 527 637 526 638 526 638 c 0
 524 638 510 663 509 664 c 0
 504 667 504 670 499 672 c 0
 493 675 495 678 487 680 c 0
 482 682 478 686 471 688 c 0
 463 691 463 694 453 696 c 0
 440 699 444 702 427 705 c 0
 424 705 421 705 418 705 c 0
 405 705 393 703 386 700 c 0
 380 697 370 695 364 692 c 0
 359 689 352 688 347 684 c 0
 343 681 336 679 331 676 c 0
 323 670 312 665 306 656 c 0
 299 646 296 642 293 629 c 0xe8
 288 612 290 609 290 597 c 0
 289 589 290 586 291 579 c 0
 291 574 293 571 294 567 c 0
 296 557 311 530 319 524 c 0
 322 521 322 518 326 516 c 0
 331 512 335 509 338 504 c 0
 341 500 345 499 348 496 c 0
 350 493 355 491 357 488 c 0
 360 484 365 482 367 479 c 0
 368 477 369 475 370 475 c 0
 372 475 378 466 379 464 c 0
 382 460 387 458 391 455 c 0
 395 451 400 450 405 447 c 0
 409 444 417 442 421 438 c 0
 425 435 435 434 439 431 c 0
 444 427 450 426 455 422 c 0
 460 419 464 418 468 414 c 0
 471 412 476 410 479 406 c 0
 483 401 494 396 497 389 c 0
 500 383 508 378 511 372 c 0
 517 362 526 347 529 337 c 0
 530 333 532 329 532 325 c 0
 533 320 534 318 535 313 c 0
 534 306 538 301 537 294 c 0
 536 285 538 282 537 271 c 0
 537 267 536 259 535 253 c 0
 535 242 531 226 527 210 c 0
 523 194 518 178 512 167 c 0
 508 158 503 144 499 136 c 0
 492 122 491 117 484 108 c 0
 480 104 476 94 473 90 c 0
 471 88 465 79 463 77 c 0
 461 76 453 66 452 64 c 0
 439 52 424 36 411 28 c 0
 407 25 400 20 397 18 c 0
 392 15 387 12 382 9 c 0
 377 7 373 3 368 1 c 0
 362 -1 358 -5 352 -6 c 0
 328 -12 334 -14 291 -14 c 0
 246 -14 214 -10 170 -7 c 0
 137 -5 127 -1 99 1 c 0
 77 4 70 8 65 26 c 0xd8
 63 35 59 45 59 55 c 0
 58 60 57 66 57 71 c 0
 57 78 55 80 55 88 c 0
 55 96 53 101 54 110 c 0
 55 120 55 128 57 137 c 0
 58 142 61 147 64 152 c 0
 73 169 81 173 96 181 c 1
 103 181 110 181 117 181 c 1
 124 176 130 169 135 165 c 0
 141 161 144 153 150 149 c 0
 153 147 155 142 159 140 c 0
 162 139 165 135 168 133 c 0
 172 131 177 125 180 124 c 0
 183 122 186 118 190 116 c 0
 194 113 195 111 199 108 c 0
 204 106 205 102 211 99 c 0
 216 97 217 94 222 91 c 0
 227 90 230 85 234 83 c 0
 238 82 243 77 247 75 c 0
 251 74 255 69 260 67 c 0
 263 66 265 64 268 63 c 0
 272 59 286 54 301 54 c 0
 307 54 312 55 316 56 c 0
 322 57 337 60 341 62 c 0
 345 65 355 68 357 70 c 0
 359 72 363 74 365 75 c 0
 376 81 401 103 410 114 c 0
 416 121 425 130 430 139 c 0
 432 144 438 149 440 154 c 0
 442 159 443 165 445 171 c 0
 449 185 452 199 451 206 c 0
 450 210 452 225 451 229 c 0
 448 241 445 257 434 263 c 0
 430 265 428 269 423 271 c 0
 417 273 416 277 409 279 c 0
 402 282 401 285 394 288 c 0
 388 290 387 293 381 295 c 0
 373 298 374 300 367 303 c 0
 362 305 359 310 355 312 c 0
 352 313 347 319 344 320 c 0
 341 321 336 327 333 328 c 0
 329 330 324 335 320 337 c 0
 314 339 312 343 306 345 c 0
 298 347 294 351 286 353 c 0
 278 355 275 359 269 361 c 0
 260 365 255 373 249 378 c 0
 246 380 244 384 242 386 c 0
 239 388 240 390 237 393 c 0
 233 397 228 401 226 406 c 0
 223 412 218 411 214 418 c 0
 209 425 208 431 207 436 c 0
 206 445 201 450 200 459 c 0
 199 467 198 467 197 474 c 0
 196 481 195 481 194 488 c 0
 193 495 193 495 192 503 c 0
 192 511 190 513 190 521 c 0
 191 523 190 528 190 532 c 0
 189 542 194 564 200 586 c 0xe8
 206 609 214 634 220 645 c 0
 226 657 230 668 236 678 c 0
 239 682 242 686 242 687 c 0
 243 689 249 695 252 698 c 0
 262 711 288 732 296 737 c 0
 302 741 301 742 306 745 c 0
 311 748 314 751 319 753 c 0
 323 755 328 759 332 761 c 0
 341 764 341 767 348 770 c 0
 355 772 362 776 369 778 c 0
 373 779 378 780 381 782 c 0xd8
EndSplineSet
EndChar

StartChar: T
Encoding: 84 84 19
Width: 730
Flags: HW
LayerCount: 3
Fore
SplineSet
311 694 m 0xb0
 311 693 294 684 294 683 c 0
 294 682 279 674 278 672 c 0
 272 668 254 657 247 652 c 0
 244 650 240 648 239 648 c 0
 236 648 226 639 223 638 c 0
 216 636 203 629 194 629 c 0
 192 629 191 629 189 630 c 0
 184 633 185 644 188 656 c 0
 192 670 198 686 203 693 c 0
 208 703 215 719 222 727 c 0
 226 733 232 746 237 751 c 0xd0
 239 753 242 757 245 760 c 0
 256 776 273 787 292 789 c 0
 350 795 430 797 513 797 c 0xb0
 605 797 699 794 773 791 c 0
 834 788 824 788 855 781 c 0
 869 777 870 774 878 769 c 0
 894 761 897 728 894 708 c 0
 891 689 891 668 886 650 c 0
 884 641 881 633 875 626 c 0
 866 615 861 613 848 616 c 0
 835 619 836 622 828 627 c 0
 816 637 805 651 796 664 c 0
 786 677 763 709 749 720 c 0
 747 722 745 724 745 724 c 0
 746 727 731 738 728 739 c 0
 721 742 717 748 707 750 c 0
 704 751 699 751 694 751 c 0xd0
 682 751 668 749 664 745 c 0
 663 744 660 742 656 740 c 0
 647 736 633 725 627 718 c 0
 622 711 617 707 612 697 c 0
 603 674 598 666 588 636 c 0
 587 634 587 631 586 628 c 0
 573 578 550 470 528 383 c 0
 523 363 518 342 512 321 c 0
 496 263 480 207 473 184 c 0
 470 175 467 167 465 159 c 0
 459 137 457 118 459 111 c 0
 463 100 473 84 483 78 c 0
 491 73 494 71 506 69 c 0
 518 67 517 65 524 60 c 0
 530 55 534 45 531 32 c 0
 531 31 530 29 530 28 c 0
 527 21 525 19 516 18 c 0
 467 10 453 9 369 8 c 0
 358 8 347 8 337 8 c 0
 290 8 248 9 239 11 c 0
 225 15 213 20 211 23 c 0
 207 29 201 32 207 44 c 0
 211 52 225 59 233 64 c 0
 238 68 250 71 255 74 c 0
 261 78 273 81 278 84 c 0
 284 88 292 90 297 94 c 0
 308 102 319 106 328 118 c 0
 333 125 338 141 359 216 c 0
 368 247 385 311 404 381 c 0
 434 493 467 621 473 646 c 0
 480 675 482 718 481 723 c 0
 479 729 478 734 475 739 c 0
 474 741 471 746 469 750 c 0
 458 770 457 772 453 772 c 0
 445 772 433 763 425 760 c 0
 418 757 413 752 406 749 c 0
 399 746 393 741 387 739 c 0
 381 736 374 731 368 729 c 0
 362 727 357 722 351 719 c 0
 345 716 340 711 333 708 c 0
 327 705 326 703 318 698 c 0
 315 696 311 694 311 694 c 0xb0
EndSplineSet
EndChar

StartChar: U
Encoding: 85 85 20
Width: 761
Flags: HW
LayerCount: 3
Fore
SplineSet
754 784 m 0x88
 780 786 832 790 870 790 c 0
 887 790 902 789 909 787 c 0
 912 786 917 784 921 783 c 0
 930 781 940 773 937 762 c 0
 936 759 935 755 931 752 c 0
 930 751 927 747 925 743 c 0
 920 737 914 731 889 708 c 0
 879 698 870 690 870 689 c 0
 870 689 868 685 865 682 c 0
 858 674 852 659 847 649 c 0
 840 636 833 616 815 555 c 0x88
 786 456 767 401 742 313 c 0
 723 250 718 246 703 205 c 0
 697 190 692 184 685 171 c 0
 680 162 674 156 669 148 c 0
 666 143 658 137 654 132 c 0
 651 126 649 126 642 119 c 0
 635 111 627 104 605 84 c 0
 582 64 574 58 567 54 c 0
 561 51 558 47 550 44 c 0
 544 41 536 35 529 33 c 0
 518 30 511 24 496 22 c 0
 470 18 440 14 407 14 c 0
 403 14 399 14 395 14 c 0
 366 15 343 20 325 22 c 0
 305 24 303 28 289 33 c 0
 279 36 280 38 271 44 c 0
 263 48 265 49 259 53 c 0
 254 56 255 59 250 63 c 0
 238 74 215 111 212 124 c 0
 211 130 209 129 208 137 c 0
 207 148 205 149 204 162 c 0
 203 177 202 181 205 199 c 0
 207 216 207 230 210 248 c 0
 215 270 240 375 265 470 c 0xb0
 286 553 286 559 296 605 c 0
 305 641 305 646 304 658 c 0
 302 668 304 671 301 678 c 0
 300 680 298 684 297 686 c 0
 294 698 277 715 268 723 c 0
 262 728 251 730 245 734 c 0
 240 738 231 741 230 748 c 0
 228 763 238 769 248 776 c 0
 257 782 279 784 296 786 c 0
 311 788 329 789 346 789 c 0
 374 789 402 787 426 785 c 0
 486 780 482 781 500 775 c 0
 511 770 519 766 516 754 c 0
 514 745 494 740 487 734 c 0
 481 729 476 728 469 723 c 0
 466 720 462 717 461 716 c 0
 432 699 427 691 413 668 c 0
 410 663 406 655 404 649 c 0xc0
 401 640 379 563 359 490 c 0
 347 445 335 400 329 374 c 0
 311 302 313 297 304 246 c 0
 300 229 302 213 301 199 c 0
 300 189 303 182 303 173 c 0
 303 165 307 161 308 155 c 0
 309 150 320 131 323 129 c 0
 327 126 332 120 337 118 c 0
 352 114 349 110 373 107 c 0
 387 105 402 105 418 105 c 0
 444 105 472 106 496 107 c 0
 526 109 532 113 550 118 c 0
 561 121 586 141 607 164 c 0
 614 171 614 170 620 178 c 0
 627 188 629 188 636 201 c 0
 650 229 648 215 668 280 c 0xb0
 689 348 722 457 744 540 c 0
 748 554 751 566 754 578 c 0
 765 621 764 629 767 654 c 0
 767 662 767 664 764 673 c 0
 763 679 760 684 760 684 c 0
 758 684 749 695 747 697 c 0
 741 700 729 717 727 725 c 0
 726 731 723 731 722 739 c 0
 722 746 719 756 722 766 c 0
 723 769 724 772 727 775 c 0
 733 782 735 783 754 784 c 0x88
EndSplineSet
EndChar

StartChar: V
Encoding: 86 86 21
Width: 694
Flags: HW
LayerCount: 3
Fore
SplineSet
789 789 m 0x80
 802 792 817 798 829 798 c 0
 835 798 839 797 843 794 c 0
 848 791 859 788 862 784 c 0
 868 778 875 771 874 760 c 0
 874 759 873 758 873 757 c 0x80
 870 744 861 735 854 726 c 0
 849 719 846 718 842 712 c 0
 838 706 831 700 826 694 c 0
 821 687 820 688 815 681 c 0
 810 674 806 670 801 663 c 0
 793 650 790 651 782 631 c 0
 779 624 776 617 773 613 c 0
 770 609 768 606 768 605 c 0
 767 602 756 591 753 587 c 0
 748 580 744 576 740 568 c 0
 737 564 725 549 724 544 c 0
 722 538 711 524 708 518 c 0
 704 510 695 500 691 492 c 0
 687 483 680 474 675 464 c 0
 669 453 665 449 658 436 c 0
 652 423 648 422 642 410 c 0
 635 397 632 395 626 383 c 0
 619 372 616 369 610 358 c 0
 604 347 600 346 594 335 c 0
 589 325 584 321 579 312 c 0
 575 303 568 297 563 288 c 0
 559 279 552 273 547 264 c 0
 542 254 538 251 533 241 c 0
 526 230 522 227 516 215 c 0
 513 208 504 199 501 192 c 0
 497 183 490 177 485 167 c 0
 480 157 474 150 468 139 c 0
 463 128 456 119 451 108 c 0
 445 96 441 93 434 80 c 0
 427 66 424 66 418 53 c 0
 405 28 372 -9 352 -9 c 0
 337 -9 321 21 319 31 c 0
 317 39 317 38 316 46 c 0
 316 55 312 60 312 69 c 0
 312 79 309 82 310 93 c 0
 311 106 307 110 308 124 c 0
 309 140 307 139 308 158 c 0
 310 171 308 182 310 196 c 0
 311 211 310 219 311 235 c 0
 312 251 311 255 312 269 c 0
 313 282 309 288 310 301 c 0
 310 312 308 315 308 326 c 0
 309 336 306 344 307 354 c 0
 307 364 304 370 304 380 c 0
 305 390 302 397 302 407 c 0
 302 418 300 424 300 435 c 0
 300 446 297 448 297 459 c 0
 298 469 295 474 296 483 c 0
 295 491 292 501 293 509 c 0
 294 519 291 523 291 534 c 0
 290 546 288 546 287 557 c 0
 287 567 284 570 284 580 c 0
 284 590 282 592 281 602 c 0
 281 612 278 616 278 625 c 0
 278 633 275 640 275 647 c 0
 274 652 270 657 270 663 c 0
 269 670 267 671 265 677 c 0
 263 686 246 712 241 716 c 0
 236 720 236 721 231 725 c 0
 224 730 217 744 221 759 c 0
 222 763 224 767 227 771 c 0
 233 778 233 779 274 779 c 0
 312 779 380 778 392 776 c 0
 404 774 422 767 423 764 c 0
 424 761 423 755 421 746 c 0
 419 738 414 726 408 710 c 0
 405 701 402 692 400 684 c 0
 396 668 393 653 391 637 c 0
 387 617 390 611 389 594 c 0
 388 585 392 576 391 567 c 0
 391 559 393 554 394 546 c 0
 394 534 397 533 398 521 c 0
 397 510 400 507 400 497 c 0
 399 486 402 477 401 466 c 0
 399 453 402 445 401 432 c 0
 400 418 402 414 400 399 c 0
 399 386 402 377 400 364 c 0
 399 352 402 342 401 331 c 0
 401 320 403 313 402 302 c 0
 401 293 406 285 405 276 c 0
 404 267 407 264 408 255 c 0
 410 245 413 229 426 229 c 0
 427 229 428 230 430 230 c 0
 443 233 451 251 460 260 c 0
 465 266 470 276 475 282 c 0
 481 290 483 296 489 304 c 0
 495 311 500 322 505 327 c 0
 510 332 517 346 521 351 c 0
 526 356 531 369 536 375 c 0
 542 382 546 392 552 399 c 0
 559 408 561 416 567 425 c 0
 574 435 580 449 587 460 c 0
 590 464 592 469 593 471 c 0
 598 485 606 493 612 502 c 0
 616 509 622 515 626 522 c 0
 629 528 638 536 641 543 c 0
 646 551 652 557 656 566 c 0
 662 577 666 579 672 591 c 0
 681 607 679 598 690 618 c 0
 694 627 699 631 703 640 c 0
 711 656 720 664 726 686 c 0x40
 730 700 731 708 728 715 c 0
 726 720 727 725 724 731 c 0
 722 737 719 753 720 757 c 0
 723 767 736 769 744 773 c 0
 753 778 765 780 774 784 c 0
 777 786 784 788 789 789 c 0x80
EndSplineSet
EndChar

StartChar: W
Encoding: 87 87 22
Width: 888
Flags: HW
LayerCount: 3
Fore
SplineSet
1005 796 m 0
 1037 796 1076 792 1068 762 c 0
 1068 761 1067 760 1067 759 c 0
 1061 738 1046 724 1034 710 c 0
 1025 700 1017 695 1012 686 c 0
 1003 673 996 666 988 648 c 0
 980 629 975 622 966 603 c 0
 958 585 950 578 943 562 c 0
 936 546 929 538 922 523 c 0
 916 510 906 498 899 484 c 0
 892 470 885 461 878 447 c 0
 871 431 866 427 858 412 c 0
 851 396 844 390 837 375 c 0
 830 359 822 351 814 335 c 0
 801 309 783 281 770 255 c 0
 761 237 757 233 748 214 c 0
 740 196 733 188 725 170 c 0
 717 151 709 143 700 122 c 0
 694 107 690 97 671 59 c 0
 667 51 661 44 656 37 c 0
 649 28 606 -16 598 -16 c 0
 584 -16 589 6 588 19 c 0
 586 31 588 47 586 59 c 0
 585 70 589 93 587 103 c 0
 585 113 589 138 588 148 c 0
 586 159 590 182 588 192 c 0
 587 204 590 228 589 240 c 0
 588 252 592 273 591 286 c 0
 590 300 593 324 593 338 c 0
 591 353 598 378 597 393 c 0
 596 405 601 438 599 447 c 0
 598 457 600 473 598 482 c 0
 596 491 595 509 585 509 c 0
 569 509 557 475 546 460 c 0
 539 450 529 424 522 413 c 0
 514 400 507 380 499 367 c 0
 493 357 482 330 475 320 c 0
 468 310 457 286 452 279 c 0
 445 271 436 249 430 240 c 0
 420 227 417 216 408 200 c 0
 397 183 392 164 382 148 c 0
 375 137 362 100 356 90 c 0
 349 78 342 61 335 52 c 0
 330 46 323 31 317 27 c 0
 314 25 311 22 309 19 c 0
 306 14 286 4 280 4 c 0
 265 4 258 32 259 48 c 0
 259 59 256 68 256 80 c 0
 256 95 254 99 255 115 c 0
 256 130 253 140 254 156 c 0
 255 174 252 181 254 201 c 0
 257 224 256 237 261 262 c 0
 267 299 259 314 259 344 c 0
 259 358 257 365 258 380 c 0
 260 412 258 448 263 484 c 0
 265 499 265 528 259 537 c 0
 255 542 254 562 257 584 c 0
 262 620 251 638 244 669 c 0
 242 679 238 682 237 690 c 0
 236 698 233 697 232 705 c 0
 231 712 226 724 226 732 c 0
 226 738 222 757 225 770 c 0
 227 776 230 781 235 783 c 0
 244 787 282 794 296 796 c 0
 303 796 308 797 315 797 c 0
 342 797 384 789 402 782 c 0
 409 779 409 773 403 752 c 0
 393 716 374 703 364 666 c 0
 355 634 355 589 352 562 c 0
 349 542 352 530 350 512 c 0
 348 494 350 483 348 464 c 0
 347 445 351 441 349 421 c 0
 347 403 350 399 348 382 c 0
 347 368 351 353 349 339 c 0
 347 326 351 313 350 300 c 0
 350 288 354 267 357 266 c 0
 362 266 377 284 382 294 c 0
 389 307 395 311 402 325 c 0
 411 342 413 342 422 360 c 0
 431 379 436 382 444 400 c 0
 452 417 460 424 467 441 c 0
 480 471 500 500 514 530 c 0
 523 549 530 559 539 578 c 0
 551 609 567 619 580 669 c 0
 586 692 577 712 571 725 c 0
 568 733 566 753 568 759 c 0
 569 764 573 769 582 779 c 0
 591 789 635 797 652 797 c 0
 660 797 669 796 679 795 c 0
 713 791 727 785 722 766 c 0
 720 759 705 736 704 731 c 0
 704 730 700 723 696 717 c 0
 688 706 687 704 684 691 c 0
 679 671 683 666 682 649 c 0
 681 634 684 625 683 611 c 0
 682 596 686 588 684 571 c 0
 683 554 685 542 683 525 c 0
 681 508 684 498 682 480 c 0
 681 461 683 456 682 437 c 0
 680 420 683 410 682 394 c 0
 681 378 684 370 683 353 c 0
 682 338 685 330 684 315 c 0
 682 298 687 296 686 278 c 0
 685 267 686 264 692 267 c 0
 703 272 712 293 721 304 c 0
 727 312 736 332 742 340 c 0
 749 348 757 369 764 378 c 0
 770 386 778 406 784 415 c 0
 791 425 800 446 807 456 c 0
 824 482 835 513 852 539 c 0
 859 549 866 565 873 575 c 0
 881 586 888 605 895 615 c 0
 904 627 910 644 918 658 c 0
 925 670 926 673 930 689 c 0
 938 718 933 721 935 746 c 0
 935 755 935 762 937 768 c 0
 943 791 980 796 1005 796 c 0
EndSplineSet
EndChar

StartChar: X
Encoding: 88 88 23
Width: 516
Flags: HW
LayerCount: 3
Fore
SplineSet
200 219 m 0xd0
 201 221 214 237 215 239 c 0
 216 242 227 252 230 257 c 0
 236 266 238 264 243 274 c 0
 249 282 253 285 259 294 c 0
 264 303 267 303 272 312 c 0
 277 322 282 326 288 335 c 0
 292 344 299 349 303 358 c 0
 309 371 317 379 325 396 c 2
 332 412 l 1
 334 428 l 2
 335 446 332 451 332 464 c 0
 333 477 329 476 329 486 c 0
 329 494 326 502 325 510 c 0
 324 518 322 520 320 528 c 0
 319 536 316 537 316 544 c 0
 315 550 312 556 311 561 c 0
 311 564 305 575 306 577 c 0
 307 580 302 589 301 593 c 0
 297 609 278 644 271 655 c 0
 252 685 249 679 233 708 c 0
 224 723 220 735 224 755 c 0
 224 756 225 756 225 757 c 0
 229 771 240 782 247 783 c 0
 274 789 284 793 322 795 c 0
 338 796 355 797 360 798 c 0
 362 798 364 798 366 798 c 0
 381 798 388 791 389 779 c 0
 390 772 393 768 392 759 c 0
 390 733 389 722 382 689 c 0
 372 644 375 650 374 624 c 0
 374 614 378 609 379 600 c 0
 381 584 391 565 402 555 c 2
 411 549 l 1
 426 550 443 554 452 566 c 0
 457 571 463 577 467 584 c 0
 474 597 480 603 486 620 c 0
 502 661 504 656 524 731 c 0
 529 750 531 763 534 773 c 0
 537 786 540 792 545 794 c 0
 550 796 608 800 612 800 c 0
 614 800 650 795 655 794 c 0
 659 793 669 785 673 784 c 0
 682 780 692 763 689 750 c 0xe0
 684 733 664 719 644 715 c 0
 629 712 629 711 618 706 c 0
 608 702 600 696 582 679 c 0
 564 663 555 654 551 648 c 0
 548 645 537 634 536 631 c 0
 536 630 534 628 532 626 c 0
 528 623 518 607 515 605 c 0
 512 603 502 586 499 583 c 0
 494 578 490 568 485 563 c 0
 480 557 475 543 469 536 c 0
 464 530 455 508 450 501 c 0
 442 490 441 482 431 450 c 0
 419 405 425 408 422 379 c 0
 419 362 423 358 422 343 c 0
 422 331 424 328 424 317 c 0
 424 307 428 302 427 292 c 0
 427 284 429 278 430 270 c 0
 431 263 434 257 434 250 c 0
 435 242 437 239 439 231 c 0
 440 223 442 222 444 215 c 0
 445 208 447 204 448 197 c 0
 450 189 454 185 457 177 c 0
 470 144 493 119 507 87 c 0
 509 82 511 67 509 61 c 0
 506 49 495 42 489 36 c 0
 483 31 473 29 465 25 c 0
 462 23 422 13 410 13 c 0
 409 13 409 13 408 13 c 0
 400 15 382 21 381 23 c 0
 365 38 365 50 361 70 c 0
 361 73 361 80 363 92 c 0
 374 162 375 174 374 184 c 0
 373 196 375 203 373 214 c 0
 371 223 373 230 370 238 c 0
 368 244 369 254 367 260 c 0
 366 265 364 275 363 280 c 0
 361 284 360 294 358 297 c 0
 356 298 355 301 355 304 c 0
 355 306 352 314 348 321 c 0
 340 334 337 336 329 336 c 0
 322 336 317 333 305 322 c 0
 293 312 291 306 283 297 c 0
 278 292 271 280 267 275 c 0
 261 268 257 258 252 250 c 0
 246 242 238 226 233 217 c 0
 225 205 217 181 210 165 c 0
 205 154 201 142 198 130 c 0
 195 119 193 108 191 97 c 0
 190 91 189 85 187 79 c 0
 183 63 177 51 170 37 c 0
 166 28 149 12 141 9 c 0
 126 2 119 -2 98 -2 c 0
 94 -2 90 -2 85 -2 c 0
 68 -1 44 4 37 17 c 0
 33 24 31 34 33 40 c 0
 36 52 53 71 60 80 c 0
 63 83 72 89 73 91 c 0
 73 92 75 94 79 97 c 0
 96 109 137 146 147 160 c 0
 151 164 156 167 159 172 c 0
 162 177 171 183 174 189 c 0
 178 195 182 197 187 203 c 0
 190 207 199 216 200 219 c 0xd0
EndSplineSet
EndChar

StartChar: Y
Encoding: 89 89 24
Width: 745
Flags: HW
LayerCount: 3
Fore
SplineSet
757 792 m 0
 771 791 778 785 795 785 c 0
 813 785 822 791 837 794 c 0
 852 797 858 803 876 804 c 0
 884 805 889 805 895 805 c 0
 911 805 919 801 927 789 c 0
 931 783 935 767 933 760 c 0
 931 751 920 738 909 729 c 0
 898 720 899 722 889 716 c 0
 882 711 872 709 865 705 c 0
 859 701 851 699 845 694 c 0
 843 693 839 690 837 689 c 0
 833 687 832 686 809 667 c 0
 792 653 785 645 779 638 c 0
 774 632 772 632 767 625 c 0
 761 618 759 618 754 610 c 0
 748 603 745 601 740 594 c 0
 735 587 730 583 725 576 c 0
 723 571 714 563 711 557 c 0
 709 552 699 544 696 538 c 0
 691 530 687 527 682 518 c 0
 677 509 672 506 667 497 c 0
 661 488 657 485 652 476 c 0
 647 468 641 463 637 454 c 0
 632 446 626 440 621 432 c 0
 617 424 612 421 606 411 c 0
 601 402 595 398 590 389 c 0
 586 382 579 375 575 368 c 0
 572 362 563 353 560 346 c 0
 556 338 550 333 545 325 c 0
 540 315 535 313 530 304 c 0
 525 296 520 291 516 284 c 0
 512 277 503 266 499 258 c 0
 497 253 493 247 491 243 c 0
 485 233 479 221 472 194 c 0
 462 157 466 155 466 136 c 0
 467 123 477 115 485 108 c 0
 488 103 497 101 502 97 c 0
 505 96 510 94 515 92 c 0
 534 88 551 76 551 57 c 0
 552 50 552 46 550 43 c 0
 547 36 538 22 535 20 c 0
 521 11 523 10 497 7 c 0
 474 5 449 4 421 4 c 0
 378 4 332 6 289 8 c 0
 249 10 242 10 232 15 c 0
 221 20 221 20 219 28 c 0
 218 34 219 39 220 43 c 0
 221 48 223 53 229 61 c 0
 236 71 241 71 250 76 c 0
 258 81 264 82 282 83 c 0
 311 85 336 95 349 118 c 0
 359 134 358 128 370 158 c 0
 374 171 379 184 382 195 c 0
 388 216 390 234 389 250 c 0
 387 260 388 268 386 277 c 0
 384 284 386 296 384 302 c 0
 382 309 383 319 381 326 c 0
 379 332 380 342 377 348 c 0
 376 354 376 362 374 368 c 0
 372 373 371 382 369 387 c 0
 366 391 367 402 365 406 c 0
 363 409 362 421 361 425 c 0
 359 427 357 441 356 443 c 0
 353 447 352 456 351 461 c 0
 348 466 348 472 345 478 c 0
 342 484 344 486 342 492 c 0
 339 496 338 506 337 511 c 0
 334 515 334 526 332 531 c 0
 330 537 331 547 329 555 c 0
 327 564 329 575 328 584 c 0
 326 592 327 601 324 607 c 0
 321 611 322 620 320 625 c 0
 319 627 317 629 317 631 c 0
 316 635 301 662 295 671 c 0
 287 683 281 689 280 689 c 0
 280 689 278 691 276 693 c 0
 273 697 264 700 262 704 c 0
 258 708 255 709 242 710 c 0
 218 712 210 715 208 732 c 0
 208 734 208 737 209 739 c 0
 213 755 232 777 244 782 c 0
 264 789 286 792 307 792 c 0
 341 792 377 785 416 783 c 0
 449 781 458 778 480 772 c 0
 489 770 495 760 492 750 c 0
 488 734 476 724 470 712 c 0
 467 708 458 699 457 696 c 0
 456 692 443 676 442 671 c 0
 441 669 440 666 439 664 c 0
 436 653 439 643 439 633 c 0
 439 623 443 619 443 610 c 0
 443 604 447 597 447 591 c 0
 447 585 451 579 452 573 c 0
 453 565 455 561 456 553 c 0
 457 545 459 543 460 535 c 0
 462 527 463 524 465 516 c 0
 466 507 468 509 470 499 c 0
 471 489 474 491 475 482 c 0
 476 474 478 472 479 466 c 0
 481 459 484 458 485 452 c 0
 486 445 489 441 490 435 c 0
 490 433 491 429 493 426 c 0
 504 408 507 406 518 406 c 2
 524 406 l 1
 536 417 539 420 555 439 c 0
 561 445 567 449 570 455 c 0
 573 460 582 467 585 472 c 0
 588 478 595 483 599 489 c 0
 605 497 606 496 612 504 c 0
 618 512 620 512 625 520 c 0
 630 527 635 531 640 538 c 0
 645 545 649 548 655 556 c 0
 660 565 662 565 668 574 c 0
 675 584 676 582 682 592 c 0
 687 598 694 604 697 610 c 0
 700 616 709 625 712 630 c 0
 714 634 717 639 719 641 c 0
 724 647 729 657 731 665 c 0
 732 669 733 673 733 675 c 0
 732 680 732 683 722 702 c 0
 712 720 708 719 709 747 c 0
 709 748 710 750 710 751 c 0
 712 759 720 770 726 780 c 1
 738 786 l 2
 749 791 750 792 757 792 c 0
EndSplineSet
EndChar

StartChar: Z
Encoding: 90 90 25
Width: 579
Flags: HW
LayerCount: 3
Fore
SplineSet
377 797 m 0
 394 798 445 798 500 798 c 0
 554 798 609 798 635 797 c 0
 689 796 695 795 714 790 c 0
 728 785 728 785 733 779 c 0
 737 773 740 761 737 749 c 0
 736 744 733 740 730 735 c 0
 724 726 725 724 718 716 c 0
 711 709 709 704 703 698 c 0
 698 693 694 687 690 682 c 0
 685 677 678 667 673 661 c 0
 668 655 666 650 660 644 c 0
 656 639 649 626 644 623 c 0
 640 619 634 608 630 604 c 0
 625 598 621 592 616 587 c 0
 607 579 592 559 581 554 c 0
 570 549 549 525 540 515 c 0
 535 509 530 502 525 498 c 0
 520 493 518 488 513 482 c 0
 509 477 502 467 497 463 c 0
 492 459 487 449 483 445 c 0
 478 441 473 433 469 428 c 0
 465 425 458 412 454 409 c 0
 452 407 443 395 440 392 c 0
 439 391 429 376 427 376 c 0
 424 374 414 359 410 355 c 0
 407 352 405 349 405 348 c 0
 404 345 394 336 392 332 c 0
 387 325 380 320 377 314 c 0
 372 307 368 303 363 296 c 0
 357 289 352 285 348 278 c 0
 344 272 338 267 333 260 c 0
 327 251 326 252 319 243 c 0
 313 233 311 234 305 226 c 0
 300 217 296 216 291 207 c 0
 285 199 282 198 277 190 c 0
 272 183 268 179 263 172 c 0
 257 164 254 161 248 152 c 0
 242 143 240 144 234 135 c 0
 231 130 220 119 218 110 c 0
 217 108 217 105 218 103 c 0
 219 101 220 100 238 99 c 0
 245 99 255 98 266 98 c 0
 315 98 394 102 416 106 c 0
 421 106 432 108 442 109 c 0
 470 111 467 114 485 120 c 0
 494 122 502 129 509 132 c 0
 513 134 523 142 527 143 c 0
 531 144 538 150 542 152 c 0
 549 155 566 164 575 164 c 0
 577 164 578 164 580 163 c 0
 581 163 583 158 584 154 c 0
 587 146 586 142 582 128 c 0
 581 124 581 120 579 114 c 0
 572 88 566 85 558 68 c 0
 549 50 529 26 513 20 c 0
 497 13 497 11 463 8 c 0
 416 5 410 4 346 2 c 0
 319 1 291 1 264 1 c 0
 186 1 112 4 54 10 c 0
 43 11 38 16 35 23 c 0
 34 26 35 31 37 38 c 0
 39 47 43 57 48 64 c 0
 54 72 58 81 64 88 c 0
 68 91 76 105 80 108 c 0
 84 111 91 122 95 126 c 0
 97 128 105 141 108 142 c 0
 110 143 118 154 120 156 c 0
 125 160 131 169 137 175 c 0
 140 178 142 181 142 181 c 0
 143 184 152 193 155 196 c 0
 157 199 169 211 170 214 c 0
 171 217 179 224 182 228 c 0
 188 236 188 233 196 243 c 0
 203 252 204 251 210 259 c 0
 215 268 218 267 225 276 c 0
 228 281 231 284 232 284 c 0
 236 284 256 312 259 316 c 0
 264 320 267 327 272 331 c 0
 274 333 281 343 284 345 c 0
 287 347 298 362 301 365 c 0
 306 368 308 374 313 378 c 0
 318 384 323 391 329 397 c 0
 332 400 333 402 333 403 c 0
 334 405 346 416 348 419 c 0
 350 422 361 433 362 436 c 0
 363 439 374 449 377 453 c 0
 381 459 387 464 391 470 c 0
 394 476 399 478 403 484 c 0
 405 487 417 499 418 502 c 0
 419 505 428 514 431 517 c 0
 436 524 441 528 446 536 c 0
 452 544 452 541 458 550 c 0
 464 558 467 560 473 568 c 0
 478 575 482 577 487 584 c 0
 492 591 498 596 502 602 c 0
 507 609 509 610 514 617 c 0
 520 625 524 628 529 635 c 0
 534 643 538 644 543 651 c 0
 546 655 556 666 557 669 c 0
 558 673 569 682 571 687 c 0
 575 693 592 706 579 710 c 0
 567 714 513 717 463 717 c 0
 430 717 399 716 381 712 c 0
 350 705 361 706 343 698 c 0
 334 693 337 693 328 687 c 0
 320 682 304 669 296 664 c 0
 288 659 291 658 283 654 c 0
 276 650 272 645 265 643 c 0
 259 640 247 633 240 633 c 0
 231 633 229 634 226 642 c 0
 223 650 224 659 226 668 c 0
 228 676 232 684 238 695 c 0
 244 706 247 717 254 726 c 0
 258 731 263 741 268 744 c 0
 269 745 272 749 275 753 c 0
 285 766 303 784 319 788 c 0
 340 793 344 796 377 797 c 0
EndSplineSet
EndChar

StartChar: a
Encoding: 97 97 26
Width: 473
Flags: HW
LayerCount: 3
Fore
SplineSet
215.5 482.849609375 m 0
 245.109375 494.287109375 300.099609375 485.454101562 323.643554688 477.049804688 c 0
 337.551757812 472.044921875 364.936523438 471.51953125 377.1875 476.325195312 c 0
 385.072265625 479.2109375 394.620117188 480.108398438 402.78125 482.922851562 c 0
 415.889648438 487.39453125 436.24609375 488.119140625 446.737304688 481.98046875 c 0
 463.78515625 472.13671875 464.629882812 459.961914062 461.362304688 434.637695312 c 0
 459.229492188 418.88671875 456.328125 419.1328125 453.237304688 408.102539062 c 0
 449.3984375 394.780273438 440.592773438 383.252929688 437.799804688 368.299804688 c 0
 433.84765625 347.91796875 426.178710938 328.3515625 422.6875 306.022460938 c 0
 420.526367188 291.55859375 417.15234375 286.658203125 415.049804688 272.962890625 c 0
 412.411132812 252.947265625 403.288085938 236.8203125 399.693359375 218.297851562 c 0
 397.708007812 208.25390625 393.2421875 201.380859375 391.568359375 190.384765625 c 0
 389.120117188 174.604492188 383.768554688 158.891601562 383.768554688 140.0703125 c 0
 383.768554688 130.427734375 388.237304688 127.309570312 404.568359375 125.71484375 c 0
 421.65234375 123.921875 431.041992188 120.125 429.918945312 101.065429688 c 0
 429.255859375 91.1220703125 423.454101562 80.294921875 419.193359375 74.892578125 c 0
 417.97265625 73.2587890625 412.825195312 63.7998046875 411.393554688 63.7998046875 c 0
 410.987304688 63.7998046875 409.362304688 62.0595703125 407.900390625 60.0302734375 c 0
 399.8125 48.8759765625 380.2421875 32.509765625 367.4375 29.4345703125 c 0
 357.860351562 26.90234375 356.344726562 23.0166015625 342.005859375 22.6201171875 c 0
 299.6328125 21.3916015625 273.779296875 48.0400390625 228.581054688 38.4248046875 c 0
 204.674804688 33.224609375 215.212890625 34.2333984375 201.768554688 29.4345703125 c 0
 187.331054688 23.9150390625 179.53515625 12.9501953125 165.287109375 8.41015625 c 0
 157.560546875 5.9453125 146.08203125 0 127.099609375 0 c 0
 108.426757812 0 91.333984375 5.15234375 81.1123046875 12.615234375 c 0
 68.5595703125 21.779296875 47.58203125 37.8310546875 40.162109375 52.2724609375 c 0
 36.02734375 61.125 27.2548828125 68.859375 24.724609375 79.3876953125 c 0
 23.0087890625 85.2958984375 18.6201171875 90.7900390625 16.9248046875 97.802734375 c 0
 14.54296875 108.66796875 11.7861328125 108.94921875 9.6123046875 121.727539062 c 0
 6.404296875 139.85546875 1.650390625 143.102539062 1.650390625 169.287109375 c 0
 1.650390625 187.775390625 2.625 195.2421875 5.9560546875 204.087890625 c 0
 8.8388671875 211.8046875 11.1171875 228.549804688 13.6748046875 234.174804688 c 0
 23.044921875 254.111328125 25.29296875 276.0078125 36.4248046875 293.262695312 c 0
 42.203125 302.713867188 44.3349609375 314.577148438 51.4560546875 322.625 c 0
 57.8671875 330.25 59.90625 342.853515625 67.2998046875 349.450195312 c 0
 77.0625 358.831054688 81.162109375 374.028320312 90.8623046875 383.59765625 c 0
 92.40625 385.192382812 93.7060546875 386.71484375 93.7060546875 387.150390625 c 0
 93.7060546875 388.888671875 101.564453125 396.399414062 102.887695312 398.169921875 c 0
 114.963867188 415.045898438 126.31640625 424.337890625 140.181640625 438.76953125 c 0
 143.106445312 441.887695312 155.130859375 451.747070312 169.268554688 462.477539062 c 0
 173.067382812 465.32421875 178.05859375 466.89453125 180.96875 469.727539062 c 0
 182.21875 470.954101562 193.041992188 474.458007812 194.130859375 475.672851562 c 0
 196.24609375 478.879882812 209.98046875 480.853515625 215.5 482.849609375 c 0
280.337890625 419.919921875 m 0
 272.165039062 423.8515625 264.299804688 426.829101562 254.987304688 425.4296875 c 0
 247.766601562 425.4296875 239.112304688 423.9296875 233.212890625 421.297851562 c 0
 229.556640625 419.629882812 226.0625 418.325195312 225.494140625 418.325195312 c 0
 221.03125 418.325195312 216.603515625 413.34375 212.818359375 411.655273438 c 0
 200.953125 406.268554688 183.465820312 385.241210938 174.0625 374.752929688 c 0
 167.616210938 367.46484375 164.249023438 356.778320312 158.380859375 348.724609375 c 0
 151.45703125 340.338867188 149.786132812 326.341796875 143.674804688 317.115234375 c 0
 141.037109375 313.248046875 138.134765625 300.9140625 135.549804688 296.959960938 c 0
 132.52734375 292.3359375 130.447265625 279.640625 127.912109375 274.267578125 c 0
 125.116210938 268.497070312 123.75 256.86328125 121.005859375 251.212890625 c 0
 117.653320312 244.48046875 116.340820312 227.313476562 113.125 217.35546875 c 0
 110.119140625 207.78515625 109.306640625 200.172851562 108.65625 175.450195312 c 0
 107.556640625 134.599609375 111.26171875 126.529296875 123.443359375 105.559570312 c 0
 129.533203125 95.4716796875 135.32421875 92.7265625 150.012695312 85.767578125 c 0
 166.061523438 78.1494140625 199.126953125 87.2119140625 207.943359375 94.25 c 0
 215.233398438 99.728515625 219.735351562 100.10546875 230.125 108.459960938 c 0
 235.741210938 113.071289062 254.494140625 126.650390625 261.731445312 139.5625 c 0
 266.002929688 147.184570312 273.60546875 152.8671875 277.331054688 161.45703125 c 0
 279.49609375 166.607421875 285.203125 171.068359375 285.456054688 176.247070312 c 0
 285.456054688 179.059570312 291.947265625 189.033203125 292.768554688 192.487304688 c 0
 294.168945312 198.375976562 298.223632812 206.08203125 299.349609375 212.280273438 c 0
 306.025390625 248.477539062 306.995117188 241.684570312 311.049804688 303.775390625 c 0
 312.1953125 321.029296875 309.881835938 379.345703125 304.224609375 392.8046875 c 0
 298.251953125 406.795898438 298.778320312 411.015625 280.337890625 419.919921875 c 0
EndSplineSet
EndChar

StartChar: b
Encoding: 98 98 27
Width: 484
Flags: HW
LayerCount: 3
Fore
SplineSet
100.942382812 751.521484375 m 0
 125.629882812 758.013671875 237.5390625 756.748046875 247.58203125 750.7421875 c 0
 263.915039062 740.840820312 263.797851562 740.952148438 266.147460938 732.942382812 c 0
 270.025390625 720.482421875 270.025390625 718.813476562 266.852539062 696.119140625 c 0
 263.2421875 669.112304688 258.323242188 666.080078125 254.162109375 645.9453125 c 0
 251.368164062 633.775390625 246.081054688 627.212890625 243.469726562 615.12890625 c 0
 240.924804688 603.61328125 234.396484375 592.551757812 231.837890625 580.974609375 c 0
 229.060546875 568.4140625 223.65234375 560.090820312 221.262695312 546.264648438 c 0
 220.205078125 540.146484375 217.737304688 529.911132812 215.974609375 523.458984375 c 0
 209.39453125 500.763671875 209.982421875 495.98046875 220.087890625 489.638671875 c 0
 229.487304688 483.630859375 234.775390625 483.075195312 273.432617188 483.7421875 c 0
 316.080078125 484.451171875 341.6875 490.55859375 380.9453125 489.75 c 0
 413.227539062 489.24609375 408.677734375 487.977539062 428.1796875 482.295898438 c 0
 438.364257812 479.541015625 450.8671875 468.919921875 454.3828125 460.045898438 c 0
 460.84375 444.751953125 462.9140625 448.31640625 465.427734375 420.552734375 c 0
 469.0703125 380.754882812 468.541015625 307.548828125 458.142578125 284.827148438 c 0
 454.01953125 275.313476562 453.399414062 266.204101562 448.389648438 257.905273438 c 0
 444.271484375 250.8359375 441.395507812 236.505859375 436.639648438 230.315429688 c 0
 432.45703125 224.869140625 430.028320312 213.62109375 425.830078125 208.509765625 c 0
 421.9375 203.508789062 418.767578125 191.560546875 414.90234375 186.59375 c 0
 410.61328125 181.450195312 408.302734375 172.319335938 403.740234375 167.236328125 c 0
 399.842773438 162.625 396.805664062 152.73828125 392.6953125 148.545898438 c 0
 383.34375 138.216796875 378.368164062 124.428710938 369.3125 113.8359375 c 0
 361.69140625 105.34765625 355.201171875 95.1337890625 347.809570312 87.13671875 c 0
 344.990234375 84.1328125 342.7578125 81.240234375 342.7578125 80.68359375 c 0
 342.7578125 80.1279296875 334.884765625 72.228515625 325.1328125 62.9951171875 c 0
 306.998046875 45.8251953125 297.154296875 40.3935546875 278.3671875 27.39453125 c 0
 271.764648438 22.6435546875 261.205078125 19.68359375 254.6328125 15.1572265625 c 0
 247.161132812 10.236328125 235.982421875 9.4013671875 226.315429688 5.478515625 c 0
 217.384765625 1.6962890625 211.157226562 0.6953125 175.3203125 -2.865234375 c 0
 154.2265625 -4.9033203125 147.178710938 -7.6982421875 124.20703125 -1.974609375 c 0
 112.809570312 0.806640625 111.987304688 1.2509765625 100.002929688 8.927734375 c 0
 81.3359375 21.1064453125 38.40234375 64.7998046875 24.919921875 82.3525390625 c 0
 22.9228515625 85.1337890625 17.7529296875 100.931640625 15.8720703125 110.276367188 c 0
 13.9150390625 119.913085938 21.19921875 164.124023438 22.5703125 175.802734375 c 0
 24.9150390625 193.3203125 30.5244140625 209.568359375 33.02734375 225.865234375 c 0
 35.376953125 239.455078125 42.5087890625 256.46875 44.3076171875 269.80859375 c 0
 46.1083984375 282.9609375 52.7431640625 293.059570312 55.4697265625 305.96484375 c 0
 58.171875 319.888671875 62.451171875 323.6171875 66.044921875 337.2265625 c 0
 69.251953125 350.3828125 73.244140625 352.251953125 77.08984375 363.481445312 c 0
 80.7685546875 373.928710938 85.8251953125 377.8359375 88.83984375 389.513671875 c 0
 94.4345703125 410.701171875 98.251953125 408.307617188 100.70703125 441.690429688 c 0
 102.776367188 467.60546875 107.001953125 475.282226562 110.6953125 498.205078125 c 0
 112.938476562 513.78125 118.814453125 522.500976562 121.26953125 537.03125 c 0
 123.680664062 550.470703125 130.063476562 560.533203125 133.01953125 573.41015625 c 0
 135.86328125 587.16796875 140.140625 591.080078125 143.594726562 605.672851562 c 0
 146.384765625 618.4375 165.166015625 662.055664062 148.177734375 670.419921875 c 0
 143.041992188 672.708007812 134.005859375 678.609375 128.4375 680.766601562 c 0
 125.463867188 681.97265625 116.030273438 690.333984375 113.6328125 690.333984375 c 0
 111.517578125 690.333984375 90.3671875 710.358398438 87.3125 715.25390625 c 0
 83.703125 721.037109375 73.994140625 729.680664062 78.6171875 738.950195312 c 0
 80.2626953125 742.287109375 92.9521484375 749.407226562 100.942382812 751.521484375 c 0
298.107421875 436.127929688 m 0
 291.29296875 437.795898438 259.09765625 438.241210938 251.107421875 436.794921875 c 0
 235.221679688 433.62890625 224.884765625 428.196289062 212.802734375 416.880859375 c 0
 201.459960938 405.936523438 201.975585938 403.6875 194.002929688 395.298828125 c 0
 190.5625 391.5 185.061523438 379.48046875 181.3125 376.719726562 c 0
 178.180664062 374.125 174.208984375 362.32421875 171.559570312 358.919921875 c 0
 167.604492188 354.104492188 163.713867188 339.432617188 160.044921875 334.22265625 c 0
 155.740234375 328.109375 152.553710938 313.473632812 148.8828125 306.521484375 c 0
 144.290039062 297.825195312 142.704101562 284.677734375 138.307617188 275.37109375 c 0
 133.647460938 265.508789062 131.358398438 247.20703125 127.14453125 237.1015625 c 0
 123.38671875 227.5390625 119.048828125 195.14453125 115.982421875 184.2578125 c 0
 111.688476562 167.993164062 107.791015625 128.20703125 115.982421875 112.946289062 c 0
 120.078125 105.190429688 122.091796875 96.2841796875 127.14453125 90.4736328125 c 0
 128.790039062 88.58203125 131.2578125 85.0224609375 132.66796875 82.4638671875 c 0
 136.309570312 75.677734375 146.1796875 66.1103515625 154.169921875 61.8828125 c 0
 170.384765625 53.205078125 169.797851562 53.427734375 182.370117188 53.427734375 c 2
 194.120117188 53.5390625 l 1
 207.044921875 59.5458984375 l 2
 232.854492188 71.5771484375 268.440429688 101.862304688 286.122070312 128.965820312 c 0
 296.571289062 146.553710938 312.749023438 160.602539062 320.66796875 177.471679688 c 0
 324.631835938 185.916992188 328.522460938 187.403320312 331.594726562 195.16015625 c 0
 334.265625 202.745117188 339.990234375 207.83203125 342.7578125 216.409179688 c 0
 346.002929688 226.463867188 350.162109375 229.002929688 353.567382812 239.21484375 c 0
 357.057617188 250.930664062 361.963867188 255.515625 364.84765625 268.918945312 c 0
 370.444335938 292.323242188 373.091796875 284.28515625 376.950195312 319.982421875 c 0
 379.53515625 344.235351562 379.41796875 354.803710938 376.245117188 374.829101562 c 0
 374.124023438 388.286132812 370.778320312 390.822265625 366.139648438 399.971679688 c 0
 363.084960938 405.755859375 352.157226562 416.547851562 346.282226562 419.440429688 c 0
 329.4296875 427.838867188 341.329101562 425.381835938 298.107421875 436.127929688 c 0
EndSplineSet
EndChar

StartChar: c
Encoding: 99 99 28
Width: 404
Flags: HW
LayerCount: 3
Fore
SplineSet
245.559570312 480.375 m 0
 261.127929688 485.48046875 305.830078125 489.1328125 322.51953125 480.83203125 c 0
 324.280273438 479.994140625 328.440429688 478.392578125 331.719726562 477.401367188 c 0
 353.525390625 470.623046875 376.418945312 446.893554688 383 427.380859375 c 0
 385.567382812 420.040039062 391.48046875 413.623046875 391.48046875 403.057617188 c 0
 391.48046875 397.872070312 389.240234375 393.14453125 385.799804688 391.0859375 c 0
 384.120117188 390.094726562 382.200195312 388.5703125 381.719726562 387.731445312 c 0
 379.487304688 384.083984375 362.959960938 377.62109375 357.959960938 376.827148438 c 0
 331.43359375 372.826171875 255.327148438 381.961914062 217.879882812 376.750976562 c 0
 197.567382812 373.694335938 185.373046875 361.684570312 175 350.215820312 c 0
 173.080078125 348.081054688 171.48046875 345.793945312 171.48046875 345.259765625 c 0
 171.48046875 344.7265625 170.280273438 342.97265625 168.759765625 341.37109375 c 0
 161.052734375 333.250976562 159.235351562 319.994140625 152.83984375 310.4140625 c 0
 145.258789062 300.297851562 144.204101562 284.6640625 137.559570312 273.356445312 c 0
 130.279296875 260.006835938 128.299804688 243.106445312 122.360351562 228.139648438 c 0
 119.87890625 222.018554688 117.31640625 201.205078125 115.879882812 193.674804688 c 0
 111.362304688 171.500976562 114.982421875 159.001953125 119.559570312 139.842773438 c 0
 121.010742188 134.310546875 132.666992188 117.043945312 137.879882812 117.043945312 c 0
 138.200195312 117.043945312 139.959960938 115.900390625 141.799804688 114.451171875 c 0
 148.47265625 109.109375 162.810546875 106.139648438 174.6796875 106.139648438 c 0
 195.256835938 105.935546875 203.662109375 111.647460938 218.200195312 124.897460938 c 0
 224.9140625 130.920898438 227.915039062 131.639648438 231.879882812 136.106445312 c 0
 238.561523438 143.05078125 250.42578125 145.42578125 258.919921875 150.822265625 c 0
 263.322265625 153.819335938 273.731445312 155.149414062 279.719726562 156.846679688 c 0
 289.215820312 159.561523438 297.375 155.934570312 305.719726562 152.271484375 c 1
 310.295898438 143.3359375 314.630859375 135.798828125 309.959960938 124.516601562 c 0
 307.123046875 117.755859375 307.743164062 115.676757812 303.879882812 110.5625 c 0
 297.202148438 102.520507812 288.2265625 89.482421875 277.080078125 81.892578125 c 0
 265.008789062 73.6962890625 258.361328125 66.2900390625 245.799804688 60.54296875 c 0
 232.836914062 54.1181640625 219.15234375 44.2216796875 208.759765625 39.650390625 c 0
 198.534179688 35.15234375 190.563476562 28.66796875 180.040039062 25.0859375 c 0
 160.797851562 19.396484375 145.591796875 6.357421875 123.400390625 2.9736328125 c 0
 110.83984375 1.0673828125 101.959960938 2.36328125 96.919921875 6.6337890625 c 0
 95.48046875 7.9296875 93.240234375 9.455078125 91.9599609375 10.0654296875 c 0
 78.802734375 16.5048828125 64.4033203125 35.236328125 54.51953125 45.59765625 c 0
 52.83984375 47.3515625 51.48046875 49.0283203125 51.48046875 49.333984375 c 0
 51.48046875 50.8271484375 44.59765625 57.724609375 43.6396484375 59.55078125 c 0
 39.275390625 67.5244140625 31.6611328125 74.7216796875 28.599609375 83.798828125 c 0
 26.4765625 89.46484375 22.302734375 93.33984375 21.080078125 100.040039062 c 0
 18.2470703125 114.301757812 14.6796875 117.241210938 14.6796875 139.690429688 c 0
 14.6796875 165.829101562 18.1416015625 171.48046875 21 192.53125 c 0
 23.8076171875 215.048828125 32.0615234375 231.604492188 36.2802734375 251.701171875 c 0
 39.5966796875 267.509765625 47.8984375 280.513671875 51.48046875 295.62109375 c 0
 52.734375 301.796875 56.724609375 305.379882812 58.6796875 311.481445312 c 0
 60.77734375 318.0234375 63.5390625 320.350585938 65.9599609375 326.502929688 c 0
 69.525390625 335.5625 78.423828125 342.317382812 81.5595703125 351.284179688 c 0
 82.3447265625 354.5234375 87.2333984375 358.6953125 89.240234375 361.8828125 c 0
 103.313476562 382.65234375 134.068359375 411.471679688 147.559570312 424.331054688 c 0
 153.383789062 429.66796875 170.162109375 443.293945312 177.879882812 448.197265625 c 0
 185.45703125 452.624023438 192.322265625 459.374023438 201.799804688 462.76171875 c 0
 211.604492188 466.499023438 220.907226562 474.905273438 232.6796875 476.943359375 c 0
 235.3203125 477.401367188 241.080078125 479.002929688 245.559570312 480.375 c 0
EndSplineSet
EndChar

StartChar: d
Encoding: 100 100 29
Width: 507
Flags: HW
LayerCount: 3
Fore
SplineSet
248.860351562 417.95703125 m 0
 240.811523438 421.771484375 238.197265625 425.375 227.41015625 425.375 c 0
 219.653320312 425.375 207.27734375 418.27734375 203.209960938 414.302734375 c 0
 197.049804688 408.282226562 190.009765625 400.54296875 190.009765625 399.682617188 c 0
 190.009765625 397.407226562 181.270507812 387.66796875 179.889648438 384.84765625 c 0
 171.345703125 365.640625 156.70703125 350.247070312 148.759765625 332.495117188 c 0
 145.100585938 324.321289062 141.0546875 321.459960938 138.309570312 312.607421875 c 0
 135.60546875 303.884765625 130.203125 299.083007812 127.860351562 289.924804688 c 0
 125.376953125 280.221679688 120.396484375 274.590820312 118.0703125 264.232421875 c 0
 114.508789062 249.962890625 110.177734375 243.6484375 106.959960938 225.962890625 c 0
 105.530273438 217.684570312 103.440429688 206.934570312 102.120117188 202.09765625 c 0
 95.849609375 178.125 96.0703125 132.759765625 102.559570312 118.35546875 c 0
 106.431640625 109.977539062 107.403320312 99.7314453125 113.009765625 93.3076171875 c 0
 126.208007812 78.2265625 140.515625 65.876953125 174.5 73.3125 c 0
 179.780273438 74.4951171875 183.629882812 76.21484375 187.700195312 79.224609375 c 0
 190.889648438 81.58984375 194.080078125 83.525390625 194.849609375 83.525390625 c 0
 198.462890625 83.525390625 227.111328125 113.041992188 231.58984375 121.794921875 c 0
 237.833984375 133.491210938 247.576171875 144.213867188 252.26953125 157.26953125 c 0
 256.049804688 167.03125 259.729492188 168.083984375 262.719726562 178.447265625 c 0
 265.81640625 188.53515625 270.555664062 194.12890625 273.059570312 204.462890625 c 0
 275.934570312 216.63671875 280.9296875 220.620117188 283.620117188 234.77734375 c 0
 286.798828125 251.158203125 291.732421875 256.438476562 294.0703125 273.262695312 c 0
 294.509765625 276.272460938 296.16015625 283.044921875 297.919921875 288.419921875 c 0
 307.443359375 319.598632812 303.578125 361.166015625 287.91015625 381.837890625 c 0
 285.599609375 384.84765625 283.1796875 388.39453125 282.41015625 389.900390625 c 0
 279 396.349609375 258.4296875 413.549804688 248.860351562 417.95703125 c 0
432.009765625 744.219726562 m 0
 454.745117188 748.31640625 472.569335938 743.770507812 483.16015625 731.96484375 c 0
 490.860351562 723.2578125 491.959960938 718.634765625 491.849609375 695.737304688 c 0
 491.629882812 672.41015625 490.08984375 660.370117188 485.469726562 647.362304688 c 0
 481.056640625 634.877929688 480.21484375 621.6484375 475.01953125 610.59765625 c 0
 470.819335938 601.103515625 469.124023438 586.172851562 464.900390625 576.627929688 c 0
 460.748046875 567.795898438 458.715820312 550.78515625 454.559570312 542.120117188 c 0
 450.84765625 534.137695312 447.341796875 513.73046875 443.669921875 505.78515625 c 0
 440.091796875 497.791015625 437.346679688 478.083984375 433.76953125 470.094726562 c 0
 428.751953125 459.305664062 427.78515625 446.412109375 423.650390625 433.4375 c 0
 420.376953125 422.967773438 414.4609375 383.331054688 412.099609375 371.41015625 c 0
 410.600585938 362.029296875 405.0546875 322.915039062 402.530273438 316.692382812 c 0
 398.7578125 307.24609375 396.778320312 290 392.51953125 281.432617188 c 0
 388.576171875 273.965820312 385.750976562 256.484375 381.959960938 249.075195312 c 0
 378.012695312 241.084960938 375.310546875 225.182617188 371.509765625 216.825195312 c 0
 366.750976562 206.23046875 365.502929688 189.765625 362.049804688 176.942382812 c 0
 356.221679688 153.590820312 354.249023438 124.126953125 379.3203125 132.974609375 c 0
 385.48046875 135.232421875 388.23046875 137.59765625 414.41015625 163.075195312 c 0
 430.030273438 178.232421875 444.549804688 191.455078125 446.639648438 192.422851562 c 0
 464.432617188 200.659179688 473.240234375 172.833007812 464.459960938 156.625 c 0
 461.719726562 151.53515625 458.140625 135.90234375 454.559570312 131.469726562 c 0
 450.642578125 126.620117188 448.2890625 117.466796875 444.110351562 112.872070312 c 0
 440.036132812 108.393554688 437.240234375 100.33984375 433.219726562 95.8876953125 c 0
 428.624023438 91.396484375 427.840820312 87.5751953125 423.3203125 82.6650390625 c 0
 405.001953125 62.7744140625 383.577148438 34.4306640625 362.049804688 22.25 c 0
 353.119140625 17.1591796875 353.057617188 15.3349609375 340.599609375 9.45703125 c 0
 325.530273438 2.4697265625 319.919921875 2.1474609375 308.150390625 7.6298828125 c 0
 299.844726562 11.3759765625 291.060546875 12.7392578125 284.719726562 17.3046875 c 0
 280.241210938 20.5302734375 264.37109375 25.1298828125 259.309570312 27.732421875 c 0
 247.2734375 34.1689453125 231.888671875 25.580078125 222.459960938 22.787109375 c 0
 213.46875 20.3916015625 207.438476562 15.111328125 198.48046875 12.3603515625 c 0
 189.155273438 9.6796875 180.412109375 1.8251953125 169.990234375 1.8251953125 c 0
 168.889648438 1.8251953125 163.5 0.427734375 157.889648438 -1.29296875 c 0
 127.7265625 -10.50390625 89.50390625 -3.232421875 70.76953125 8.8125 c 0
 66.58984375 11.5 62.740234375 13.650390625 62.1904296875 13.650390625 c 0
 59.66015625 13.650390625 38.8701171875 33 30.73046875 42.8896484375 c 0
 14.9892578125 62.193359375 18.005859375 61.03515625 9.0595703125 73.419921875 c 0
 2.900390625 81.375 1.1396484375 100.6171875 2.900390625 142.650390625 c 0
 5.2421875 199.560546875 8.4306640625 204.560546875 14.009765625 245.205078125 c 0
 16.744140625 265.513671875 20.6396484375 267.091796875 24.4599609375 282.400390625 c 0
 26.7548828125 292.6171875 31.763671875 297.643554688 34.91015625 306.587890625 c 0
 39.21875 319.221679688 50.3837890625 329.291015625 55.3701171875 341.202148438 c 0
 56.580078125 343.9609375 66.8095703125 356.493164062 66.8095703125 359.155273438 c 0
 66.8095703125 361.670898438 76.986328125 372.66796875 78.3603515625 374.7421875 c 0
 88.658203125 389.837890625 93.802734375 395.216796875 103.440429688 406.34765625 c 0
 117.299804688 421.934570312 141.940429688 444.294921875 148.98046875 447.842773438 c 0
 166.677734375 456.865234375 181.6875 472.40234375 203.759765625 477.512695312 c 0
 208.049804688 478.48046875 215.639648438 480.629882812 220.809570312 482.349609375 c 0
 236.708984375 487.65234375 278.344726562 488.965820312 299.459960938 483.962890625 c 0
 303.08984375 483.102539062 311.009765625 482.45703125 317.059570312 482.349609375 c 0
 338.872070312 482.349609375 351.130859375 491.81640625 357.099609375 508.150390625 c 0
 358.530273438 512.01953125 360.0703125 515.674804688 360.620117188 516.3203125 c 0
 364.690429688 521.264648438 369.309570312 557.70703125 369.309570312 585.120117188 c 0
 369.309570312 598.127929688 366.780273438 628.334960938 365.240234375 633.387695312 c 0
 364.482421875 636.100585938 348.369140625 659.717773438 347.309570312 662.3046875 c 0
 343.900390625 671.012695312 344.23046875 700.252929688 347.75 706.809570312 c 0
 352.919921875 716.162109375 371.620117188 729.4921875 381.959960938 731.212890625 c 0
 389.032226562 732.155273438 403.006835938 739.40625 411 740.672851562 c 0
 414.959960938 741.317382812 424.419921875 742.9296875 432.009765625 744.219726562 c 0
EndSplineSet
EndChar

StartChar: question
Encoding: 63 63 30
Width: 440
Flags: HW
LayerCount: 3
Fore
SplineSet
46.240234375 104.137695312 m 0
 58.4169921875 105.5625 66.23046875 104.255859375 93.11328125 95.7060546875 c 0
 100.236328125 93.4501953125 109.54296875 83.9501953125 114.59765625 73.8564453125 c 2
 119.193359375 64.474609375 l 1
 119.193359375 49.630859375 l 2
 119.193359375 28.7880859375 115.0078125 24.5244140625 105.407226562 14.599609375 c 0
 100.122070312 9.1376953125 98.513671875 8.306640625 85.3017578125 3.912109375 c 2
 70.9404296875 -0.837890625 l 1
 57.84375 -0.7587890625 44.74609375 -0.6787109375 31.6494140625 -0.599609375 c 1
 17.0966796875 6.431640625 12.078125 5.8134765625 9.58984375 26.8310546875 c 0
 8.556640625 35.7373046875 8.556640625 41.912109375 10.0498046875 57.7060546875 c 0
 12.1181640625 81.693359375 13.3818359375 86.7998046875 18.0927734375 91.6689453125 c 0
 22.5732421875 96.4189453125 37.9677734375 103.1875 46.240234375 104.137695312 c 0
322.543945312 693.849609375 m 1
 314.584960938 706.419921875 317.1875 710.47265625 295.661132812 710.712890625 c 0
 272.693359375 711.041992188 270.85546875 705.055664062 255.91015625 699.90625 c 0
 251.630859375 698.485351562 239.778320312 688.505859375 236.37890625 688.505859375 c 0
 233.690429688 688.505859375 223.258789062 678.44140625 220.984375 677.34375 c 0
 215.37109375 674.25 215.086914062 671.768554688 208.805664062 667.130859375 c 0
 188.9765625 652.120117188 169.124023438 627.788085938 161.127929688 610.962890625 c 0
 153.084960938 594.8125 152.969726562 591.369140625 160.323242188 578.543945312 c 0
 170.611328125 560.752929688 182.059570312 548.952148438 208.805664062 555.625 c 0
 213.630859375 556.931640625 216.502929688 559.424804688 238.90625 581.75 c 0
 243.048828125 586.032226562 257.720703125 593.282226562 262.802734375 596.237304688 c 0
 264.985351562 597.424804688 272.337890625 598.731445312 282.448242188 599.799804688 c 2
 298.533203125 601.462890625 l 2
 302.3828125 604.588867188 310.701171875 611.150390625 312.6640625 614.049804688 c 0
 315.306640625 618.206054688 322.084960938 664.400390625 322.314453125 679.599609375 c 2
 322.543945312 693.849609375 l 1
77.2587890625 312.662109375 m 0
 77.2587890625 314.296875 87.5986328125 326.172851562 87.5986328125 327.387695312 c 0
 87.5986328125 330.287109375 97.068359375 340.607421875 98.7431640625 343.537109375 c 0
 106.754882812 356.55078125 123.594726562 369.63671875 130.911132812 383.081054688 c 0
 131.337890625 383.779296875 150.037109375 405.966796875 154.80859375 414.3125 c 0
 156.416992188 416.806640625 158.255859375 418.943359375 158.829101562 418.943359375 c 0
 160.8046875 418.943359375 167.9609375 432.612304688 169.514648438 434.619140625 c 0
 172.9609375 439.130859375 176.0625 449.581054688 176.0625 457.0625 c 0
 176.0625 468.890625 165.123046875 474.252929688 152.969726562 476.537109375 c 0
 139.10546875 479.084960938 126.700195312 485.903320312 117.35546875 494.112304688 c 0
 115.057617188 496.25 111.840820312 498.862304688 110.232421875 499.931640625 c 0
 104.987304688 503.684570312 81.67578125 532.643554688 72.43359375 544.106445312 c 0
 62.5390625 555.794921875 63.375 568.395507812 71.5146484375 582.818359375 c 0
 76.9609375 592.030273438 77.263671875 598.41015625 82.7734375 606.450195312 c 0
 86.9111328125 612.236328125 88.4169921875 622.565429688 92.76953125 627.706054688 c 0
 102.520507812 639.946289062 106.168945312 656.340820312 116.436523438 667.962890625 c 0
 118.962890625 670.8125 120.916992188 673.543945312 120.916992188 674.255859375 c 0
 120.916992188 677.001953125 130.323242188 686.768554688 132.17578125 689.575195312 c 0
 142.978515625 706.323242188 175.737304688 738.520507812 191.11328125 746.8125 c 0
 197.329101562 750.024414062 195.021484375 751.616210938 202.142578125 754.887695312 c 0
 217.725585938 762.94140625 231.33984375 774.55859375 251.313476562 778.28125 c 0
 263.030273438 780.219726562 271.232421875 782.999023438 281.759765625 784.8125 c 0
 303.775390625 788.099609375 331.5546875 782.451171875 346.78515625 779.231445312 c 0
 358.46875 776.81640625 362.151367188 773.091796875 371.02734375 768.662109375 c 0
 378.264648438 764.981445312 397.91015625 745.03125 401.471679688 738.025390625 c 0
 404.7890625 730.85546875 409.942382812 725.360351562 412.041992188 716.412109375 c 0
 418.37109375 689.42578125 423.147460938 685.3203125 423.30078125 639.462890625 c 0
 423.30078125 592.586914062 420.947265625 598.049804688 412.731445312 576.287109375 c 0
 408.530273438 566.071289062 407.30859375 567.275390625 402.62109375 559.662109375 c 0
 399.2890625 554.200195312 394.004882812 547.668945312 377.689453125 528.90625 c 0
 365.052734375 514.418945312 357.125 506.224609375 311.399414062 460.505859375 c 0
 210.98828125 360.043945312 166.642578125 313.612304688 161.81640625 303.875 c 0
 158.6328125 297.659179688 156.157226562 298.697265625 152.166015625 290.931640625 c 0
 146.630859375 280.44140625 141.850585938 279.83984375 142.975585938 261.71875 c 0
 144.407226562 239.874023438 166.732421875 218.258789062 155.61328125 194.505859375 c 0
 151.408203125 185.467773438 135.405273438 177.721679688 122.41015625 177.049804688 c 0
 97.935546875 175.561523438 74.4580078125 191.638671875 65.541015625 209.349609375 c 0
 55.0869140625 229.893554688 56.0048828125 225.856445312 56.0048828125 250.912109375 c 0
 56.0048828125 283.184570312 57.19140625 273.737304688 65.0810546875 291.40625 c 0
 67.263671875 296.15625 70.9404296875 302.450195312 73.123046875 305.537109375 c 0
 75.4208984375 308.505859375 77.2587890625 311.831054688 77.2587890625 312.662109375 c 0
EndSplineSet
EndChar

StartChar: bracketleft
Encoding: 91 91 31
Width: 431
Flags: HW
LayerCount: 3
Fore
SplineSet
343 777 m 0xe0
 351 789 370 793 390 793 c 0
 415 793 442 786 455 784 c 0
 476 780 532 783 523 750 c 0
 522 746 520 743 518 739 c 0
 513 729 494 711 486 707 c 0
 479 703 473 696 465 694 c 0
 442 687 439 682 400 682 c 0
 382 682 379 681 376 676 c 0
 376 675 364 632 351 581 c 0
 318 456 264 248 217 69 c 0xe0
 195 -11 179 -78 178 -80 c 0
 178 -87 187 -85 200 -86 c 0
 229 -88 270 -96 275 -100 c 0
 282 -106 287 -121 285 -133 c 0
 284 -145 276 -169 273 -169 c 0
 273 -169 269 -172 267 -174 c 0
 260 -181 257 -181 238 -185 c 0
 230 -186 219 -186 207 -186 c 0
 181 -186 147 -185 125 -184 c 0
 93 -183 89 -183 88 -179 c 0
 87 -177 87 -176 94 -146 c 0xd0
 125 -20 123 -11 161 135 c 0
 169 163 178 203 190 246 c 0
 229 390 283 587 299 640 c 0
 313 691 315 691 330 739 c 0
 339 767 341 775 343 777 c 0xe0
EndSplineSet
EndChar

StartChar: bracketright
Encoding: 93 93 32
Width: 425
Flags: HW
LayerCount: 3
Fore
SplineSet
330 792 m 0
 334 793 367 793 406 793 c 0
 459 793 475 793 477 792 c 0
 481 790 479 784 473 756 c 0
 456 687 452 656 440 602 c 0
 431 557 405 458 376 350 c 0
 338 208 293 48 271 -16 c 0
 258 -56 252 -78 236 -132 c 0
 219 -191 219 -191 212 -192 c 0
 212 -192 178 -193 139 -193 c 0
 84 -193 16 -191 12 -190 c 0
 5 -188 -3 -178 -4 -173 c 0
 -5 -169 -2 -154 2 -139 c 0
 4 -130 7 -122 10 -118 c 0
 17 -107 32 -104 43 -100 c 0
 55 -96 103 -93 125 -88 c 0
 138 -86 166 -85 173 -77 c 0
 175 -76 185 -42 279 310 c 2
 381 693 l 1
 378 698 376 699 361 701 c 0
 339 703 337 706 315 710 c 0
 277 714 283 715 261 723 c 0
 251 725 250 731 245 736 c 0
 240 738 239 751 247 763 c 0
 251 769 265 781 272 783 c 0
 276 784 308 790 330 792 c 0
EndSplineSet
EndChar

StartChar: zero
Encoding: 48 48 33
Width: 421
Flags: HW
LayerCount: 3
Fore
SplineSet
305 408 m 0
 299 409 288 417 280 413 c 0
 275 410 258 396 249 385 c 0
 245 382 242 377 239 375 c 0
 234 372 229 363 224 360 c 0
 219 355 216 347 211 343 c 0
 205 337 201 329 196 322 c 0
 188 312 183 297 176 284 c 0
 173 278 166 257 161 237 c 0
 156 219 152 201 151 192 c 0
 150 182 151 172 150 162 c 0
 149 153 152 147 153 140 c 0
 154 132 163 117 168 113 c 0
 173 109 176 104 184 102 c 0
 193 99 209 95 229 95 c 0
 233 95 236 95 240 95 c 0
 275 97 269 94 285 100 c 0
 291 102 296 102 301 105 c 0
 314 113 324 117 335 132 c 0
 341 141 348 149 353 160 c 0
 368 197 379 220 393 273 c 0
 402 308 400 307 402 324 c 0
 404 344 393 361 381 369 c 0
 376 373 371 378 366 380 c 0
 362 382 359 385 355 386 c 0
 346 388 340 394 332 397 c 0
 323 400 314 405 305 408 c 0
323 473 m 0
 325 474 326 474 328 474 c 0
 337 474 350 469 356 468 c 0
 367 467 367 464 376 463 c 0
 383 461 386 458 392 457 c 0
 398 455 398 453 404 451 c 0
 409 450 410 448 415 446 c 0
 422 444 426 438 433 435 c 0
 435 434 440 429 442 429 c 0
 447 429 453 421 456 419 c 0
 458 418 460 413 462 413 c 0
 464 413 466 409 468 408 c 0
 471 405 477 396 478 392 c 0
 479 385 482 379 482 371 c 0
 482 361 484 352 483 340 c 0
 482 331 484 327 483 317 c 0
 480 300 481 297 476 275 c 0
 473 264 471 253 468 243 c 0
 464 227 459 213 454 203 c 0
 447 190 442 174 434 162 c 0
 430 158 428 151 424 147 c 0
 418 139 413 129 408 123 c 0
 404 120 404 116 400 113 c 0
 399 112 397 110 397 110 c 0
 396 105 387 98 384 95 c 2
 384 95 360 72 355 69 c 0
 350 66 345 61 340 58 c 0
 336 56 331 54 327 50 c 0
 322 46 314 43 309 40 c 0
 303 35 293 33 286 28 c 0
 280 24 272 22 266 18 c 0
 258 13 248 11 241 7 c 0
 238 5 232 3 230 2 c 0
 221 -5 212 2 203 4 c 0
 196 5 193 8 185 9 c 0
 174 11 166 18 155 20 c 0
 150 21 145 24 140 26 c 0
 132 28 125 34 118 37 c 0
 111 40 104 46 100 51 c 0
 99 52 99 53 98 53 c 0
 87 53 79 90 76 96 c 0
 73 100 74 108 71 112 c 0
 68 115 64 127 61 130 c 0
 58 131 63 153 61 153 c 0
 60 153 70 189 87 253 c 2
 95 284 l 1
 103 317 l 2
 103 318 124 349 125 351 c 0
 129 354 138 370 150 380 c 0
 164 392 178 403 194 413 c 0
 195 414 201 419 202 419 c 0
 207 419 217 428 220 430 c 0
 225 432 232 438 237 440 c 0
 245 443 252 449 259 451 c 0
 264 453 268 456 273 457 c 0
 278 458 281 461 286 462 c 0
 297 465 311 473 323 473 c 0
EndSplineSet
EndChar

StartChar: one
Encoding: 49 49 34
Width: 262
Flags: HW
LayerCount: 3
Fore
SplineSet
189 470 m 0
 207 473 210 475 234 475 c 0
 261 474 263 472 284 470 c 0
 319 468 314 466 341 463 c 0
 346 462 361 457 359 450 c 0
 358 447 358 447 340 433 c 0
 327 424 328 422 320 414 c 0
 316 410 311 399 308 393 c 0
 300 381 272 280 254 213 c 0
 247 186 240 164 239 156 c 0
 237 144 229 106 230 101 c 0
 231 98 232 91 234 88 c 0
 242 78 248 61 244 45 c 0
 242 37 236 28 227 21 c 0
 215 11 214 12 204 7 c 0
 199 4 189 3 183 1 c 0
 171 -3 146 -4 123 -4 c 0
 93 -4 64 -2 62 0 c 0
 61 2 50 5 49 7 c 0
 46 11 40 15 44 25 c 0
 49 36 52 39 58 46 c 0
 65 54 89 74 95 81 c 0
 98 84 102 88 105 93 c 0
 110 103 113 103 119 119 c 0
 127 139 129 139 139 171 c 0
 149 204 162 238 171 271 c 0
 174 283 176 295 178 307 c 0
 180 320 188 364 188 368 c 0
 187 373 189 386 188 389 c 0
 185 397 186 398 178 408 c 0
 170 419 165 425 157 434 c 0
 153 439 142 444 153 451 c 0
 166 458 170 461 180 467 c 0
 183 468 187 469 189 470 c 0
EndSplineSet
EndChar

StartChar: two
Encoding: 50 50 35
Width: 361
Flags: HW
LayerCount: 3
Fore
SplineSet
242 378 m 0
 234 372 l 0
 227 372 208 353 203 349 c 0
 196 343 184 333 177 329 c 0
 172 326 167 321 162 319 c 0
 155 317 143 310 135 310 c 0
 130 310 126 313 125 320 c 0
 124 323 125 327 126 331 c 0
 129 341 137 352 142 357 c 0
 151 365 158 376 167 385 c 0
 180 398 196 413 207 421 c 0
 208 422 210 423 210 423 c 0
 214 439 271 455 279 459 c 0
 287 465 299 466 308 470 c 0
 311 472 320 473 324 475 c 0
 330 478 342 479 353 479 c 0
 365 479 377 478 383 475 c 0
 391 472 405 470 410 465 c 0
 415 461 420 458 425 454 c 0
 425 452 427 451 427 451 c 0
 441 451 443 405 443 394 c 0
 444 387 441 371 437 355 c 0
 433 340 427 326 423 317 c 0
 416 306 412 292 405 284 c 0
 392 269 380 256 364 244 c 0
 358 238 351 233 344 229 c 0
 338 226 330 221 324 219 c 0
 318 216 310 211 304 208 c 0
 287 202 269 187 256 171 c 0
 252 165 246 160 242 154 c 0
 239 149 231 142 229 135 c 0
 227 129 235 124 238 121 c 0
 242 117 249 115 258 115 c 0
 277 115 302 123 307 126 c 0
 312 130 319 132 324 136 c 0
 328 141 336 143 341 147 c 0
 345 150 347 150 354 150 c 0
 364 150 362 147 367 144 c 0
 371 141 371 133 371 127 c 0
 372 123 372 118 369 107 c 0
 364 92 361 89 357 80 c 0
 353 71 348 65 342 58 c 0
 339 53 318 34 309 28 c 0
 294 19 290 13 268 12 c 0
 232 10 170 7 121 7 c 0
 109 7 98 8 88 8 c 0
 64 8 62 10 48 13 c 0
 36 15 27 32 31 46 c 0
 34 57 36 60 42 66 c 0
 46 71 58 81 60 82 c 0
 64 84 68 89 71 91 c 0
 81 98 104 118 115 129 c 0
 120 135 129 143 132 145 c 0
 160 163 164 166 196 196 c 0
 224 222 236 234 266 256 c 0
 272 261 278 267 285 272 c 0
 291 276 286 273 298 282 c 0
 305 287 313 293 321 304 c 0
 324 308 325 308 328 313 c 0
 332 319 344 339 348 354 c 0
 350 362 350 369 345 372 c 0
 340 376 332 381 324 383 c 0
 318 384 314 387 307 388 c 0
 298 389 288 393 279 393 c 0
 274 393 270 393 265 390 c 0
 259 387 252 384 246 380 c 0
 245 379 243 378 242 378 c 0
EndSplineSet
EndChar

StartChar: three
Encoding: 51 51 36
Width: 389
Flags: HW
LayerCount: 3
Fore
SplineSet
312 473 m 0xe0
 322 475 336 478 347 478 c 0
 349 478 351 478 353 478 c 0
 360 476 383 471 384 469 c 0
 388 466 396 462 399 459 c 0xd0
 401 457 402 455 403 455 c 0
 406 455 421 431 424 424 c 0
 425 418 427 418 428 411 c 0
 428 405 431 403 431 397 c 0
 431 394 433 390 433 388 c 0
 436 380 435 368 432 356 c 0xe0
 429 345 423 333 416 325 c 0
 412 320 409 314 404 310 c 0
 400 307 396 297 392 294 c 0
 388 290 383 283 380 279 c 0
 375 274 373 268 368 263 c 0
 364 259 360 250 355 246 c 0
 351 242 347 234 343 230 c 0
 339 226 336 219 334 213 c 0
 332 206 332 200 334 197 c 0
 336 193 336 187 338 184 c 0
 342 179 343 175 347 168 c 0
 355 155 362 142 363 137 c 0
 364 131 366 131 366 125 c 0
 367 120 370 116 370 109 c 0
 371 101 374 98 373 89 c 0
 372 79 374 74 373 62 c 0
 371 44 369 24 364 4 c 0
 362 -4 359 -12 355 -20 c 0
 351 -29 342 -52 337 -59 c 0
 332 -67 327 -82 321 -89 c 0
 317 -95 314 -103 308 -110 c 0
 303 -116 300 -122 295 -128 c 0
 289 -134 289 -136 284 -141 c 0
 282 -143 279 -146 279 -146 c 0
 278 -149 247 -175 239 -178 c 0
 234 -181 229 -185 223 -187 c 0
 215 -190 210 -194 200 -196 c 0
 190 -198 182 -202 172 -204 c 0
 162 -206 146 -206 127 -206 c 0
 100 -206 69 -205 60 -201 c 0
 53 -198 43 -196 38 -192 c 0
 37 -190 34 -188 32 -187 c 0
 28 -185 18 -174 13 -166 c 0
 7 -159 2 -145 -1 -139 c 0
 -6 -128 -12 -112 -8 -93 c 0
 -4 -79 12 -63 21 -60 c 0
 27 -57 36 -53 43 -53 c 0
 47 -53 51 -54 53 -56 c 0
 66 -67 63 -61 85 -99 c 0
 100 -123 104 -127 113 -137 c 0
 116 -141 126 -142 138 -142 c 0
 153 -142 171 -140 179 -137 c 0
 187 -134 196 -133 202 -128 c 0
 204 -127 208 -125 210 -124 c 0
 222 -119 232 -106 240 -97 c 0
 247 -90 248 -84 254 -71 c 0
 259 -60 263 -48 266 -35 c 0xd0
 274 -6 278 25 280 45 c 0
 281 52 279 58 279 64 c 0
 279 68 274 76 275 79 c 0
 278 92 251 109 246 116 c 0
 244 119 236 123 233 126 c 0
 228 130 227 129 222 134 c 0
 220 137 217 139 217 139 c 0
 214 139 212 146 210 147 c 0
 204 154 199 163 201 170 c 0
 203 178 216 190 220 196 c 0
 222 199 272 244 281 255 c 0
 285 260 293 266 295 271 c 0
 298 276 305 283 308 289 c 0
 315 305 323 313 329 336 c 0
 337 367 330 392 318 401 c 0
 310 407 313 410 294 410 c 0
 274 410 266 405 251 401 c 0
 242 398 239 395 231 392 c 0
 224 389 222 386 215 382 c 0
 202 374 179 349 169 349 c 0
 167 349 166 350 165 352 c 0
 162 356 162 361 163 366 c 0
 166 379 182 393 193 402 c 0
 206 414 222 424 235 434 c 0
 237 436 239 437 240 437 c 0
 242 437 254 445 256 446 c 0
 260 448 265 453 269 455 c 0
 274 457 283 463 288 464 c 0
 296 466 302 471 312 473 c 0xe0
EndSplineSet
EndChar

StartChar: four
Encoding: 52 52 37
Width: 469
Flags: HW
LayerCount: 3
Fore
SplineSet
322 268 m 0
 323 283 316 282 302 272 c 0
 292 266 265 241 252 230 c 0
 250 228 248 226 248 225 c 0
 247 223 237 215 235 213 c 0
 230 207 228 207 225 202 c 0
 221 198 217 195 213 191 c 0
 203 177 189 161 183 139 c 0
 182 134 180 129 180 123 c 0
 180 106 204 96 228 96 c 0
 230 96 232 96 234 96 c 0
 254 99 256 102 268 106 c 0
 273 108 279 113 283 115 c 0
 285 116 293 124 297 129 c 0
 300 132 302 140 305 150 c 0
 311 172 317 203 317 208 c 0
 317 212 324 247 323 258 c 0
 323 261 322 265 322 268 c 0
398 451 m 0
 412 463 421 475 443 475 c 0
 464 474 471 461 472 444 c 0
 473 427 474 431 440 301 c 0
 423 236 409 179 408 173 c 0
 404 152 407 132 419 122 c 0
 423 119 423 117 428 114 c 0
 433 112 435 108 440 106 c 0
 443 105 450 98 453 98 c 0
 454 98 462 88 463 84 c 0
 465 78 464 72 463 67 c 0
 461 60 457 54 452 46 c 0
 445 37 424 22 411 13 c 0
 394 0 373 -7 358 -28 c 0
 351 -37 351 -39 340 -74 c 0
 333 -97 330 -97 322 -114 c 0
 309 -139 287 -166 256 -166 c 0
 251 -166 247 -165 242 -164 c 0
 237 -162 232 -155 232 -148 c 0
 232 -131 232 -133 240 -98 c 0
 250 -56 255 -36 254 -31 c 0
 253 -9 253 -5 242 4 c 0
 235 9 214 11 196 11 c 0
 189 11 182 11 177 10 c 0
 168 9 114 7 100 7 c 0
 75 7 66 10 59 20 c 0
 52 29 53 25 41 41 c 2
 35 50 l 1
 35 54 35 59 37 65 c 0
 39 73 45 83 49 89 c 0
 53 95 57 104 62 109 c 0
 66 113 69 120 73 123 c 0
 76 126 84 137 87 139 c 0
 89 141 94 148 96 150 c 0
 100 153 104 160 108 163 c 0
 110 165 115 171 117 172 c 0
 118 173 135 190 142 196 c 0
 163 214 183 235 203 254 c 0
 214 265 225 274 230 280 c 0
 234 284 237 286 240 290 c 0
 246 298 253 302 262 313 c 0
 264 315 273 322 274 324 c 0
 275 327 283 334 286 337 c 0
 304 356 311 363 330 383 c 0
 337 390 342 396 349 403 c 0
 354 409 356 408 360 414 c 0
 370 425 389 443 398 451 c 0
EndSplineSet
EndChar

StartChar: five
Encoding: 53 53 38
Width: 361
Flags: HW
LayerCount: 3
Fore
SplineSet
399 468 m 0
 404 471 417 473 427 473 c 0
 432 473 435 472 437 471 c 0
 438 470 440 466 441 462 c 0
 443 455 442 449 438 434 c 0
 437 429 435 424 433 418 c 0
 426 391 424 392 415 375 c 0
 411 368 407 366 403 361 c 0
 399 357 389 355 384 352 c 0
 375 348 366 347 311 346 c 0
 254 345 271 346 242 340 c 0
 216 334 197 318 190 291 c 0
 188 285 188 280 187 274 c 0
 185 257 187 259 190 249 c 0
 192 239 201 233 207 227 c 0
 211 223 219 221 224 218 c 0
 232 213 253 212 273 212 c 0
 291 212 304 208 318 204 c 0
 326 202 328 199 333 195 c 0
 339 192 348 178 351 170 c 0
 352 166 358 159 357 156 c 0
 356 152 359 144 360 139 c 0
 361 129 364 129 362 115 c 0
 360 87 365 96 350 39 c 0
 334 -20 334 -12 320 -44 c 0
 314 -58 308 -65 303 -76 c 0
 300 -82 292 -92 289 -98 c 0
 286 -103 280 -107 277 -112 c 0
 273 -117 255 -133 251 -135 c 0
 246 -138 243 -141 237 -143 c 0
 230 -146 224 -150 219 -153 c 0
 213 -155 208 -159 203 -162 c 0
 197 -165 192 -169 185 -171 c 0
 176 -175 179 -177 166 -180 c 0
 154 -183 148 -187 134 -189 c 0
 107 -192 107 -196 69 -196 c 0
 31 -196 43 -196 27 -190 c 0
 12 -183 -1 -154 -9 -139 c 0
 -12 -133 -14 -120 -13 -115 c 0
 -10 -102 4 -89 11 -80 c 0
 20 -66 38 -52 55 -52 c 0
 61 -52 67 -54 71 -59 c 0
 85 -75 87 -75 100 -101 c 0
 109 -117 111 -121 115 -127 c 0
 121 -133 127 -136 132 -140 c 0
 136 -143 143 -144 156 -144 c 0
 176 -144 181 -141 194 -135 c 0
 200 -132 212 -124 217 -118 c 0
 221 -112 225 -110 229 -103 c 0
 234 -93 238 -89 245 -75 c 0
 248 -68 252 -58 254 -53 c 0
 260 -41 267 -21 272 -2 c 0
 277 15 279 32 280 41 c 0
 280 53 284 68 281 74 c 0
 277 85 280 84 269 100 c 0
 257 118 262 111 251 119 c 0
 245 124 226 127 212 128 c 0
 183 130 161 129 146 139 c 0
 120 156 117 175 130 225 c 0
 132 233 135 243 138 254 c 0
 142 267 150 289 154 304 c 0
 170 358 176 373 182 386 c 0
 185 391 192 410 195 414 c 0
 208 431 210 433 221 439 c 0
 229 444 232 445 236 446 c 0
 241 447 247 447 254 447 c 0
 277 447 310 444 335 444 c 0
 347 444 359 445 365 447 c 1
 365 447 385 462 392 464 c 0
 395 465 398 467 399 468 c 0
EndSplineSet
EndChar

StartChar: six
Encoding: 54 54 39
Width: 503
Flags: HW
LayerCount: 3
Fore
SplineSet
418 425 m 0xe8
 412 432 399 434 386 434 c 0
 371 434 354 431 342 426 c 0
 333 422 315 419 306 415 c 0
 300 412 291 410 285 406 c 0
 283 405 278 402 275 400 c 0
 261 392 250 374 239 359 c 0
 234 350 223 321 218 310 c 0
 210 289 198 257 190 227 c 0
 184 205 180 184 181 170 c 0
 181 161 180 151 182 145 c 0
 184 144 184 139 185 135 c 0
 187 120 200 90 213 79 c 0
 218 75 220 70 227 68 c 0
 230 67 235 65 237 63 c 0
 242 60 252 58 265 58 c 0
 281 58 301 61 310 64 c 0
 318 67 329 69 337 73 c 0
 343 77 354 82 361 86 c 0
 369 92 384 104 387 108 c 0
 390 112 398 119 400 124 c 0
 405 133 413 141 418 153 c 0
 421 159 424 167 426 170 c 0
 433 181 439 199 444 219 c 0
 453 254 461 296 464 322 c 0
 466 344 465 340 463 354 c 0
 460 371 441 402 418 425 c 0xe8
548 757 m 0
 552 759 581 766 604 766 c 0
 620 766 632 762 631 750 c 0
 631 749 l 0
 628 739 609 719 593 710 c 0
 587 706 583 702 577 700 c 0
 571 698 563 692 556 690 c 0
 546 687 540 682 528 679 c 0
 517 677 511 672 500 669 c 0
 490 666 487 663 478 659 c 0
 471 656 466 651 459 648 c 0
 453 646 446 641 441 638 c 0
 436 635 429 630 424 627 c 0
 421 625 420 624 420 623 c 0
 419 621 406 614 404 612 c 0
 400 609 394 604 389 601 c 0
 365 584 321 546 311 533 c 0
 304 525 295 517 291 503 c 0
 289 497 291 489 295 487 c 0
 297 485 306 484 320 484 c 0
 334 484 354 485 378 487 c 0
 380 487 382 487 385 487 c 0
 406 487 454 484 467 478 c 0
 477 473 488 472 497 466 c 0
 501 463 503 461 504 461 c 0
 509 461 516 453 519 451 c 0
 525 448 525 445 531 442 c 0
 536 439 538 433 543 429 c 0
 546 428 547 426 547 425 c 0
 546 423 554 416 555 415 c 0
 558 411 580 386 583 376 c 2
 585 371 l 1
 567 309 l 2
 536 200 525 167 518 157 c 0
 515 154 503 130 501 127 c 0
 496 122 490 113 485 107 c 0
 468 90 462 84 452 77 c 0
 428 58 431 61 419 52 c 0
 397 36 403 42 390 33 c 0
 386 30 375 25 371 22 c 0
 366 18 355 14 350 11 c 0
 343 7 327 4 318 1 c 0
 310 -1 291 -3 271 -3 c 0
 250 -3 228 -1 216 2 c 0
 205 5 189 6 181 11 c 0
 176 14 165 17 162 21 c 0xd8
 160 24 150 28 148 32 c 0
 147 33 145 36 143 37 c 0
 126 51 109 88 97 109 c 0
 96 112 95 115 95 116 c 0
 96 119 89 128 89 131 c 0
 87 138 84 139 83 145 c 0
 82 151 79 155 79 163 c 0
 78 171 74 175 75 185 c 0
 77 212 74 213 86 259 c 0xe8
 99 308 105 313 118 348 c 0
 125 366 134 378 141 395 c 0
 147 410 154 418 160 431 c 0
 165 443 173 453 178 463 c 0
 182 472 190 481 194 490 c 0
 199 499 207 507 211 515 c 0
 216 524 220 526 226 535 c 0
 232 545 234 544 240 553 c 0
 243 558 253 566 254 570 c 0xd8
 255 573 264 581 267 584 c 0
 272 591 278 596 283 602 c 0
 286 605 287 607 288 607 c 0
 289 607 291 609 293 611 c 0
 302 622 344 656 367 673 c 0
 373 677 381 681 385 685 c 0
 389 688 398 692 401 695 c 0
 405 698 414 702 419 705 c 0
 425 710 433 712 440 716 c 0
 449 721 453 721 461 726 c 0
 469 731 478 732 486 736 c 0
 495 741 506 743 515 747 c 0
 525 752 539 753 548 757 c 0
EndSplineSet
EndChar

StartChar: seven
Encoding: 55 55 40
Width: 410
Flags: HW
LayerCount: 3
Fore
SplineSet
185 464 m 0x80
 194 476 211 489 226 489 c 0x80
 230 489 232 488 235 487 c 0
 242 485 273 483 285 481 c 0
 301 479 333 477 384 476 c 0
 452 474 463 474 483 470 c 0
 506 465 511 463 504 433 c 0
 503 431 503 430 502 428 c 0
 498 413 491 394 487 391 c 0
 484 389 477 379 475 377 c 0
 468 371 452 352 451 351 c 0
 447 347 442 339 438 336 c 0
 435 334 428 324 426 322 c 0
 421 318 418 310 414 306 c 0
 409 302 406 294 401 290 c 0
 397 287 392 277 388 274 c 0
 385 271 378 259 375 255 c 0
 370 251 367 244 362 239 c 0
 358 235 354 226 349 222 c 0
 345 217 341 209 336 204 c 0
 331 198 329 193 324 188 c 0
 320 184 314 173 310 169 c 0
 306 165 302 158 298 153 c 0
 294 149 288 138 284 134 c 0
 280 130 276 123 272 119 c 0
 268 115 262 104 258 100 c 0
 254 95 250 88 245 83 c 0
 241 78 237 71 232 66 c 0
 227 60 224 53 219 48 c 0
 215 44 211 36 207 32 c 0
 203 27 198 17 194 13 c 0
 189 9 185 0 181 -5 c 0
 177 -9 171 -20 167 -24 c 0
 162 -28 158 -37 154 -41 c 0
 150 -46 145 -54 141 -59 c 0
 137 -64 132 -74 127 -78 c 0
 123 -83 119 -90 115 -94 c 0
 110 -99 107 -106 102 -110 c 0
 98 -115 93 -123 89 -127 c 0
 85 -131 81 -138 76 -142 c 0
 72 -147 70 -151 65 -156 c 0
 64 -157 55 -168 53 -168 c 0
 52 -168 38 -179 35 -180 c 0
 33 -180 29 -182 26 -184 c 0
 19 -187 12 -189 5 -189 c 0
 -10 -189 -22 -182 -25 -174 c 0
 -27 -170 -26 -150 -24 -144 c 0
 -22 -136 -10 -113 -6 -109 c 0
 -1 -105 2 -98 6 -94 c 0
 10 -90 13 -84 18 -80 c 0
 23 -76 26 -70 31 -66 c 0
 39 -58 45 -48 54 -40 c 0
 58 -36 61 -32 66 -27 c 0
 71 -23 75 -16 80 -11 c 0
 82 -9 85 -7 85 -6 c 0
 86 -4 93 4 96 7 c 0
 100 13 104 14 107 20 c 0
 113 27 113 26 119 34 c 0
 125 41 127 41 133 49 c 0
 135 52 144 61 145 63 c 0
 146 66 154 74 156 77 c 0
 160 82 165 86 168 91 c 0
 172 97 175 98 180 104 c 0
 186 111 188 111 192 116 c 0
 196 122 198 123 204 130 c 0
 210 137 213 137 217 143 c 0
 220 147 223 149 226 153 c 0
 230 157 237 164 240 169 c 0
 242 171 244 173 245 173 c 0
 247 173 261 190 263 193 c 0
 272 203 280 208 286 217 c 0
 289 222 295 227 298 232 c 0
 302 238 306 241 310 247 c 0
 315 254 318 255 323 262 c 0
 329 269 329 268 334 274 c 0
 339 280 354 293 365 299 c 0
 375 304 383 317 387 331 c 0
 390 344 391 357 386 364 c 0
 384 367 382 370 381 370 c 0
 380 370 377 371 374 373 c 0
 368 377 346 380 337 383 c 0
 332 384 327 385 321 385 c 0x40
 306 385 290 380 277 378 c 0
 263 376 255 371 242 369 c 0
 230 367 223 363 211 360 c 0
 196 357 194 354 176 351 c 0
 166 350 155 346 148 346 c 0
 141 346 137 350 137 362 c 0
 137 365 137 368 138 372 c 0
 142 386 151 405 156 417 c 0
 161 430 165 435 172 446 c 0
 176 455 179 457 185 464 c 0x80
EndSplineSet
EndChar

StartChar: eight
Encoding: 56 56 41
Width: 370
Flags: HW
LayerCount: 3
Fore
SplineSet
255 309 m 0xf2
 251 312 246 314 239 314 c 0
 233 314 228 312 224 309 c 0
 214 302 198 287 189 275 c 0
 185 268 183 269 179 261 c 0
 174 253 171 250 166 240 c 0
 160 228 158 228 152 213 c 0xea
 150 209 147 202 145 198 c 0
 140 189 134 175 131 162 c 0
 128 151 126 140 127 135 c 0
 128 128 125 112 128 109 c 0
 128 109 129 107 129 105 c 0
 130 99 138 83 142 81 c 0
 147 78 148 74 155 71 c 0
 169 67 162 65 187 61 c 0
 214 58 228 56 238 56 c 0
 246 56 252 58 259 60 c 0
 267 63 270 64 274 68 c 0
 281 73 307 100 310 104 c 0
 314 109 317 110 321 116 c 0
 329 129 342 141 348 162 c 0
 352 176 350 183 349 192 c 0
 344 215 329 240 314 257 c 0
 310 262 311 264 306 268 c 0
 301 271 303 273 298 276 c 0
 294 279 293 282 288 285 c 0
 284 287 281 293 276 295 c 0
 273 296 267 303 263 304 c 0
 261 305 257 307 255 309 c 0xf2
381 642 m 0
 377 645 367 648 357 648 c 0
 349 648 340 646 335 643 c 0
 329 639 322 638 316 633 c 0
 303 623 308 628 283 605 c 0
 275 597 267 588 266 586 c 0
 263 580 260 580 256 573 c 0
 251 566 243 553 240 542 c 0
 239 537 238 533 239 529 c 0
 240 526 241 513 243 511 c 0
 245 506 248 498 249 492 c 0
 252 484 262 472 265 465 c 0
 267 462 270 460 273 456 c 0
 274 455 274 453 275 453 c 0
 277 453 284 444 287 443 c 0
 296 438 293 436 308 432 c 0
 315 430 321 429 328 429 c 0
 344 429 355 437 363 454 c 0
 369 466 372 469 378 484 c 0
 383 501 401 536 409 565 c 0xec
 412 575 413 584 412 591 c 0
 410 599 407 609 404 615 c 0
 400 628 389 636 381 642 c 0
83 35 m 0
 82 35 76 45 75 45 c 0
 75 45 60 75 60 76 c 0
 61 79 56 87 56 90 c 0
 56 96 53 100 53 106 c 0
 54 112 52 121 53 129 c 0
 54 141 54 153 58 169 c 0xf2
 63 188 68 197 75 212 c 0
 80 222 84 226 88 235 c 0
 91 241 97 246 100 251 c 0
 102 256 107 259 110 264 c 0
 117 273 139 296 154 311 c 0
 159 315 165 322 168 327 c 0
 170 331 175 337 178 340 c 0
 189 359 190 362 191 367 c 0
 194 379 190 393 185 397 c 0
 182 400 182 403 179 406 c 0
 172 414 171 430 167 439 c 0
 166 444 166 451 165 456 c 0
 164 461 166 476 165 481 c 0
 164 491 167 511 172 530 c 0
 179 556 189 581 193 587 c 0
 196 591 201 603 205 607 c 0
 219 624 234 647 252 657 c 0
 257 660 258 663 265 667 c 0
 273 671 275 673 282 676 c 0
 290 678 293 682 303 685 c 0
 317 688 322 693 339 694 c 0
 346 694 360 695 375 695 c 0
 398 695 425 694 435 690 c 0
 439 688 452 684 455 680 c 0
 456 679 458 677 459 676 c 0
 460 674 473 649 478 639 c 0
 482 628 484 623 484 622 c 0
 483 620 486 608 486 605 c 0
 486 592 489 593 485 570 c 0
 484 568 485 565 484 563 c 0xec
 479 546 471 522 467 517 c 0
 462 510 458 502 453 495 c 0
 447 488 448 486 443 480 c 0
 434 469 411 441 400 434 c 0
 396 432 391 427 386 424 c 0
 377 420 362 407 359 394 c 0
 358 390 358 386 361 382 c 0
 362 381 362 379 362 377 c 0
 364 368 375 341 379 331 c 0
 387 308 401 281 409 257 c 0
 413 247 414 238 417 227 c 0
 418 221 417 214 412 197 c 0xe2
 404 167 399 159 389 139 c 0
 384 127 381 126 376 117 c 0
 372 109 371 108 365 101 c 0
 357 89 330 60 317 53 c 0
 312 50 309 46 304 44 c 0
 299 41 294 37 288 35 c 0
 281 32 276 28 267 25 c 0
 257 21 252 18 241 16 c 0
 237 16 229 14 223 12 c 0
 208 8 199 7 163 7 c 0
 127 7 120 8 110 13 c 0
 103 16 99 15 96 20 c 0
 92 24 88 26 85 31 c 0
 84 33 83 35 83 35 c 0
EndSplineSet
EndChar

StartChar: nine
Encoding: 57 57 42
Width: 436
Flags: HW
LayerCount: 3
Fore
SplineSet
342 482 m 0x78
 343 482 344 482 346 482 c 0
 360 482 390 478 395 474 c 0
 399 472 413 468 417 464 c 0
 419 462 431 458 433 455 c 0
 435 453 446 447 447 445 c 0
 448 444 457 438 457 437 c 0
 457 436 458 434 460 432 c 0
 470 424 486 402 488 392 c 0
 489 388 492 383 493 378 c 0
 493 372 497 366 497 360 c 0
 497 349 500 347 499 334 c 0
 498 323 499 314 498 303 c 0
 497 293 494 278 489 261 c 0x74
 479 225 464 181 455 160 c 0
 447 145 441 124 434 112 c 0
 430 104 421 82 416 76 c 0
 411 69 404 54 400 48 c 0
 394 40 392 31 385 24 c 0
 380 19 378 13 373 8 c 0
 369 3 363 -5 358 -10 c 0
 353 -15 352 -19 346 -24 c 0
 339 -31 340 -32 333 -38 c 0
 330 -41 327 -43 327 -44 c 0
 327 -44 324 -47 321 -49 c 0
 281 -84 260 -102 215 -132 c 0
 209 -135 204 -140 198 -143 c 0
 192 -146 187 -149 181 -152 c 0
 175 -155 170 -159 163 -162 c 0
 156 -165 152 -168 144 -171 c 0
 136 -174 130 -178 122 -180 c 0
 112 -183 107 -187 96 -190 c 0
 89 -191 65 -202 49 -202 c 0
 43 -202 39 -200 36 -197 c 0
 31 -190 44 -178 47 -174 c 0
 54 -166 71 -154 79 -148 c 0
 84 -144 93 -141 98 -138 c 0
 104 -134 115 -132 120 -129 c 0
 125 -126 137 -123 142 -120 c 0
 144 -118 160 -112 162 -110 c 0
 166 -106 173 -103 178 -100 c 0
 183 -97 188 -95 192 -91 c 0
 195 -88 201 -84 206 -81 c 0
 226 -66 247 -51 265 -34 c 0
 269 -30 283 -19 284 -15 c 0
 285 -13 293 -6 296 -2 c 0
 302 7 307 10 310 22 c 0
 311 25 311 27 312 30 c 0
 314 41 311 45 304 45 c 0
 296 45 282 38 272 36 c 0
 266 35 258 33 254 32 c 0
 245 28 231 27 219 27 c 0xb8
 206 27 195 28 189 32 c 0
 181 35 173 37 166 42 c 0
 162 44 159 46 158 46 c 0
 154 46 147 54 144 56 c 0
 137 59 139 61 132 64 c 0
 126 67 124 71 119 74 c 0
 115 77 114 81 110 84 c 0
 103 88 85 111 82 120 c 0
 80 127 79 126 77 133 c 0
 76 140 73 145 73 152 c 0
 73 162 70 163 71 176 c 0
 72 202 71 201 80 243 c 0
 82 252 83 260 85 268 c 0
 92 293 101 314 107 323 c 0
 112 330 116 341 122 348 c 0
 126 354 131 362 136 368 c 0
 141 372 144 379 149 384 c 0
 151 386 158 395 161 397 c 0
 162 398 164 401 167 404 c 0
 176 415 200 432 212 440 c 0
 219 444 222 447 229 450 c 0
 236 453 241 458 250 460 c 0
 260 463 264 466 276 469 c 0
 294 473 294 476 318 480 c 0
 328 481 339 482 342 482 c 0x78
386 439 m 0
 379 445 364 448 347 448 c 0
 327 448 306 444 295 436 c 0
 287 430 284 430 275 420 c 0
 267 413 259 407 253 399 c 0
 250 395 246 393 242 388 c 0
 238 383 233 379 229 373 c 0
 224 366 221 365 216 356 c 0
 210 348 207 345 203 337 c 0
 197 326 190 319 183 304 c 0
 181 298 178 289 176 286 c 0
 171 276 165 259 161 243 c 0
 157 227 153 211 153 201 c 0
 153 189 150 180 152 170 c 0
 153 164 153 155 156 151 c 0
 159 148 168 121 174 121 c 0x74
 176 121 183 113 185 111 c 0
 190 109 195 103 201 102 c 0
 204 101 208 100 210 98 c 0
 217 95 232 93 248 93 c 0xb4
 262 93 275 94 281 97 c 0
 287 99 299 103 304 106 c 0
 308 109 317 113 321 116 c 0
 321 116 325 118 328 120 c 0
 337 126 355 142 363 152 c 0
 369 159 376 165 379 176 c 0
 379 177 381 183 385 190 c 0
 389 199 395 214 399 229 c 0
 404 246 407 263 408 274 c 0
 409 287 413 316 412 322 c 0
 411 330 414 348 413 355 c 0
 411 362 413 373 410 379 c 0
 409 384 409 393 407 398 c 0
 405 402 404 409 402 411 c 0
 401 412 400 415 399 418 c 0
 397 422 389 436 386 439 c 0
EndSplineSet
EndChar

StartChar: colon
Encoding: 58 58 43
Width: 171
Flags: HW
LayerCount: 3
Fore
SplineSet
100 116 m 0xd0
 111 118 118 122 127 122 c 0
 132 122 136 121 142 118 c 0
 153 113 160 104 160 90 c 0
 160 77 163 77 156 51 c 2
 151 35 l 1
 141 20 133 5 117 -3 c 0
 108 -9 106 -11 89 -11 c 0
 72 -11 70 -7 61 -2 c 0
 49 4 44 19 40 32 c 0
 40 34 40 39 40 46 c 2
 41 57 l 1
 50 78 56 90 73 100 c 0
 78 103 79 106 84 108 c 0
 89 110 95 115 100 116 c 0xd0
179 483 m 0
 186 487 198 489 211 489 c 0
 223 489 234 487 239 483 c 0
 243 480 248 479 251 475 c 0
 257 464 258 461 261 453 c 0
 261 451 261 444 259 436 c 0
 257 428 254 420 252 417 c 0
 246 407 243 403 232 393 c 0
 219 381 217 379 212 376 c 0
 210 375 206 374 205 372 c 0
 199 367 188 365 178 365 c 0
 166 365 156 368 152 373 c 0
 151 374 149 376 148 376 c 0
 140 381 133 399 133 411 c 0
 133 418 132 426 134 434 c 0xe0
 135 436 136 439 138 442 c 0
 146 457 148 459 155 467 c 0
 161 475 172 478 179 483 c 0
EndSplineSet
EndChar

StartChar: semicolon
Encoding: 59 59 44
Width: 257
Flags: HW
LayerCount: 3
Fore
SplineSet
226 474 m 0xc0
 232 479 246 481 258 481 c 0
 270 481 280 479 285 475 c 0
 289 471 295 470 298 466 c 0
 306 456 305 452 308 444 c 0
 309 442 308 434 306 426 c 0
 304 418 301 411 298 408 c 0
 292 398 289 394 278 384 c 0
 265 372 263 370 258 368 c 0
 256 367 253 365 252 364 c 0
 246 359 234 356 224 356 c 0
 213 356 202 359 198 364 c 0
 197 365 195 367 194 368 c 0
 186 372 179 390 179 402 c 0
 179 409 179 417 181 425 c 0
 182 428 182 430 184 433 c 0
 192 448 195 450 202 458 c 0
 209 466 218 469 226 474 c 0xc0
160 108 m 0
 168 106 178 106 183 102 c 0
 190 98 199 96 204 89 c 0
 206 86 208 83 209 78 c 0
 211 67 211 47 206 28 c 0
 205 23 203 18 201 13 c 0
 197 5 194 -5 188 -10 c 0
 184 -13 180 -20 176 -23 c 0
 173 -25 169 -30 165 -33 c 0
 161 -35 157 -39 153 -41 c 0
 148 -44 143 -52 138 -55 c 0
 131 -59 125 -68 120 -73 c 0
 117 -75 111 -83 108 -85 c 0
 103 -88 95 -94 89 -96 c 0
 81 -98 68 -105 58 -105 c 0
 55 -105 53 -104 50 -103 c 0
 45 -100 33 -95 32 -90 c 0
 29 -86 28 -76 35 -69 c 0
 39 -66 43 -61 47 -59 c 0
 47 -59 49 -58 50 -57 c 0
 54 -54 69 -45 88 -35 c 0
 98 -30 101 -26 104 -16 c 0xa0
 105 -13 107 -9 107 -4 c 0
 109 10 104 13 96 20 c 0
 75 36 78 35 73 39 c 0
 69 43 67 52 69 61 c 0
 70 64 71 67 73 70 c 0
 76 74 82 82 86 84 c 0
 94 88 110 99 119 101 c 0
 129 104 141 108 153 108 c 0
 156 108 158 108 160 108 c 0
EndSplineSet
EndChar

StartChar: exclam
Encoding: 33 33 45
Width: 358
Flags: HW
LayerCount: 3
Fore
SplineSet
178 125 m 0x60
 186 132 204 138 219 138 c 0xa0
 225 138 230 137 234 135 c 0
 241 132 249 131 253 126 c 0
 254 125 256 122 259 121 c 0
 264 117 275 97 276 90 c 0
 279 81 283 68 279 53 c 0
 279 52 278 51 278 50 c 0x60
 272 36 261 22 250 17 c 0
 248 16 244 14 242 13 c 0
 233 8 218 5 198 5 c 0
 195 5 192 5 189 5 c 0x88
 156 7 143 17 133 37 c 0
 130 45 130 56 133 69 c 0
 134 74 137 79 139 84 c 0
 146 98 147 97 154 105 c 0
 158 109 171 121 172 121 c 0
 173 121 176 123 178 125 c 0x60
320 722 m 0
 328 750 363 769 393 769 c 0
 402 769 412 767 418 763 c 0
 432 755 433 748 429 725 c 0
 422 690 412 629 397 574 c 0x10
 390 547 382 522 373 502 c 0x08
 367 489 363 477 356 470 c 0
 348 462 339 437 333 422 c 0
 329 411 312 357 301 315 c 0
 292 281 282 251 278 243 c 0
 271 229 264 216 259 212 c 0
 243 197 238 194 226 188 c 1
 216 194 217 198 216 212 c 0
 214 228 221 255 225 279 c 0
 231 311 231 314 250 390 c 0x04
 266 455 271 462 273 500 c 0
 275 528 269 516 271 540 c 0
 273 566 274 581 285 622 c 0
 286 627 288 634 290 641 c 0x10
 301 679 304 689 313 707 c 0x08
 317 714 320 721 320 722 c 0
EndSplineSet
EndChar

StartChar: quotedbl
Encoding: 34 34 46
Width: 443
Flags: HW
LayerCount: 3
Fore
SplineSet
486 753 m 4
 493 767 511 779 528 779 c 4
 532 779 535 779 538 778 c 4
 550 775 563 770 570 761 c 4
 571 760 573 758 574 758 c 4
 584 752 597 723 596 705 c 4
 596 693 594 681 590 665 c 4
 588 657 586 649 581 639 c 4
 576 627 570 609 564 599 c 4
 559 591 555 580 550 572 c 4
 545 565 543 559 538 552 c 4
 534 547 531 540 527 535 c 4
 518 524 511 515 495 501 c 4
 489 496 485 492 479 488 c 4
 474 485 475 484 469 480 c 4
 458 472 456 471 451 467 c 4
 449 465 446 463 445 463 c 4
 439 463 425 449 420 446 c 4
 415 444 411 440 407 439 c 4
 405 438 393 432 391 433 c 4
 388 433 388 439 389 444 c 4
 392 457 400 465 405 474 c 4
 408 480 412 482 416 487 c 6
 416 487 438 510 444 517 c 4
 446 519 448 521 449 521 c 4
 450 521 459 535 459 536 c 4
 463 541 467 551 470 562 c 4
 473 574 475 586 474 591 c 4
 473 596 473 603 471 607 c 4
 469 611 469 616 468 621 c 4
 464 631 465 643 463 654 c 4
 462 666 464 695 470 718 c 4
 473 729 477 738 481 744 c 4
 483 747 485 751 486 753 c 4
255 778 m 4
 260 784 278 789 288 789 c 4
 294 789 312 783 314 779 c 4
 315 778 316 776 318 775 c 4
 323 772 333 751 335 743 c 4
 337 728 340 719 336 697 c 4
 335 689 333 678 332 673 c 4
 324 644 313 621 301 603 c 4
 297 597 293 589 288 584 c 4
 281 576 276 564 268 556 c 4
 266 554 264 552 264 552 c 4
 263 549 254 542 253 540 c 4
 239 523 206 490 197 479 c 4
 194 475 189 470 186 466 c 4
 176 454 170 446 159 446 c 4
 157 446 155 446 152 447 c 4
 144 450 142 460 145 471 c 4
 147 477 151 483 155 488 c 4
 159 493 161 497 165 503 c 4
 175 512 167 506 184 523 c 4
 186 525 189 528 189 528 c 4
 190 530 198 539 199 541 c 4
 201 546 207 549 210 555 c 4
 213 561 217 569 219 576 c 4
 222 588 219 603 217 611 c 4
 216 617 215 614 213 620 c 4
 212 626 211 624 210 630 c 4
 208 639 202 649 203 659 c 4
 204 671 201 673 204 691 c 4
 205 696 206 700 207 704 c 4
 212 724 220 739 227 750 c 4
 232 757 246 772 251 775 c 4
 253 776 255 777 255 778 c 4
EndSplineSet
EndChar

StartChar: dollar
Encoding: 36 36 47
Width: 471
Flags: HW
LayerCount: 3
Fore
SplineSet
386 289 m 0x8c
 383 291 378 292 377 292 c 0
 354 292 330 235 317 187 c 0
 311 166 308 147 309 136 c 0
 310 116 311 102 334 102 c 0
 336 102 337 102 339 102 c 0
 371 105 406 132 418 175 c 0
 418 176 419 178 419 179 c 2
 423 196 l 1
 422 202 419 219 420 223 c 0
 422 229 414 245 412 251 c 0
 399 279 395 285 386 289 c 0x8c
355 621 m 0
 352 632 348 649 335 649 c 0
 332 649 328 648 324 646 c 0
 311 639 300 623 289 611 c 0
 283 605 279 598 274 592 c 0
 269 588 267 583 264 572 c 2
 261 562 l 1
 268 549 l 2
 279 525 282 524 296 514 c 0
 300 511 303 510 308 510 c 0
 323 510 337 529 347 543 c 1
 352 562 l 2xb4
 359 587 355 591 356 608 c 0
 356 612 356 618 355 621 c 0
416 780 m 0
 427 790 434 796 443 796 c 0
 447 796 450 795 455 793 c 0
 460 791 464 788 467 785 c 0
 469 782 471 780 471 780 c 0
 479 780 489 758 495 755 c 0
 502 750 502 746 512 742 c 0
 519 739 520 733 530 731 c 0
 541 727 558 721 564 712 c 0
 574 700 576 705 588 684 c 0
 598 667 606 635 598 607 c 0
 594 591 584 576 567 565 c 1
 557 559 l 1
 547 559 536 559 526 559 c 1
 517 566 507 570 500 579 c 0
 489 592 480 615 463 615 c 0
 459 615 440 605 439 603 c 0
 439 602 437 599 433 596 c 0
 424 588 421 578 413 566 c 0
 408 558 408 557 402 535 c 0xb4
 395 508 398 503 397 485 c 0
 395 465 410 443 423 435 c 0
 432 430 431 427 440 423 c 0
 449 419 449 414 457 410 c 0
 463 407 468 400 474 398 c 0
 478 397 482 388 487 385 c 0
 496 375 510 345 512 333 c 0
 514 323 516 321 517 310 c 0
 518 297 520 295 519 279 c 0
 518 263 518 242 512 220 c 0
 510 212 506 203 502 195 c 0
 498 187 486 160 481 154 c 0
 477 149 468 132 464 128 c 0
 459 124 454 115 449 110 c 0
 435 97 404 65 387 53 c 0
 372 43 364 34 351 28 c 0
 346 25 341 19 336 17 c 0
 322 9 294 -20 282 -34 c 0
 278 -38 277 -41 271 -56 c 0
 263 -78 249 -106 240 -115 c 0
 232 -124 221 -138 209 -143 c 0
 202 -146 196 -147 190 -147 c 0
 178 -147 171 -141 171 -129 c 0
 172 -127 176 -109 180 -89 c 0
 192 -42 192 -39 192 -20 c 0
 192 -4 190 -2 186 6 c 0
 182 16 176 25 163 28 c 0
 153 31 142 37 131 40 c 0
 119 43 115 48 106 53 c 0
 89 61 69 89 65 107 c 0
 63 114 60 115 59 124 c 0
 58 138 54 158 60 182 c 0xcc
 72 225 96 238 133 243 c 0
 134 243 135 243 137 243 c 0
 153 243 166 228 169 217 c 0xa4
 172 206 177 191 178 179 c 0
 179 162 185 150 190 136 c 0
 191 129 198 122 204 122 c 0
 228 122 245 187 256 215 c 0
 263 233 270 254 276 275 c 0xcc
 286 311 289 344 268 349 c 0
 262 351 258 358 250 361 c 0
 242 364 241 368 234 373 c 0
 227 377 218 384 213 391 c 0
 211 397 205 399 201 405 c 0
 189 421 164 457 162 470 c 0
 161 474 160 478 159 481 c 0
 156 488 160 507 165 527 c 0
 173 555 183 585 191 596 c 0
 198 606 200 613 207 620 c 0
 211 624 220 639 224 642 c 0
 225 643 227 646 230 649 c 0
 236 656 289 703 296 707 c 0
 304 711 306 714 314 717 c 0
 321 720 332 728 340 731 c 0
 350 734 365 742 373 749 c 0
 388 760 395 762 416 780 c 0
EndSplineSet
EndChar

StartChar: e
Encoding: 101 101 48
Width: 429
Flags: HW
LayerCount: 3
Fore
SplineSet
273.080078125 478.15625 m 0
 293.122271535 481.129215075 331.510759983 493.605353087 352.280273438 481.731445312 c 0
 356.534179688 479.219726562 366.178710938 477.37890625 369.559570312 474.581054688 c 0
 371.983398438 472.576171875 382.7265625 468.564453125 384.950195312 466.375 c 0
 385.940429688 465.400390625 388.190429688 463.9375 389.900390625 463.125 c 0
 394.040039062 461.255859375 409.4296875 447.362304688 411.5 443.543945312 c 0
 414.346679688 438.661132812 418.48046875 436.73828125 420.049804688 429.8125 c 0
 421.7265625 422.620117188 426.071289062 412.569335938 425.629882812 403 c 0
 425.053710938 392.858398438 421.524414062 386.721679688 419.599609375 379.193359375 c 0
 416.683686117 369.408368457 407.772313022 361.899416089 402.5 353.84375 c 0
 397.6875 346.491210938 394.6875 345.166015625 385.580078125 335.96875 c 0
 365.959960938 315.981445312 333.110351562 288.356445312 317.900390625 278.931640625 c 0
 305.908088655 271.56849775 295.912995764 262.092876667 282.799804688 255.9375 c 0
 258.682345767 245.487856598 236.126597963 228.372440978 213.5 217.75 c 0
 205.629882812 214.33984375 200.50390625 208.225585938 192.440429688 204.181640625 c 0
 177.754882812 196.325195312 165.947265625 185.54296875 152.66015625 175.5 c 0
 143.66015625 168.755859375 126.919921875 153.481445312 123.23046875 148.6875 c 0
 119.262695312 143.419921875 115.400390625 142.508789062 115.400390625 133.737304688 c 0
 115.400390625 125.858398438 124.03125 115.407226562 128.629882812 110.662109375 c 0
 139.563476562 99.41796875 144.215820312 96.775390625 153.01953125 90.59375 c 0
 169.05852764 80.1690836974 204.327713729 92.0712480755 213.5 99.0439453125 c 0
 222.365954572 105.361671882 232.855786975 108.229060355 241.400390625 114.724609375 c 0
 246.1484375 118.399414062 258.8203125 125.44921875 265.969726562 130.568359375 c 0
 268.490234375 132.518554688 271.009765625 134.0625 271.639648438 134.0625 c 0
 272.26953125 134.0625 273.98046875 135.200195312 275.509765625 136.581054688 c 0
 277.940429688 138.775390625 285.58984375 142.1875 296.299804688 145.924804688 c 0
 311.538085938 151.234375 330.272460938 134.936523438 323.9296875 119.03125 c 0
 310.789058997 87.3935179599 286.906037636 76.7354944946 257.599609375 53.21875 c 0
 255.080078125 51.1875 252.650390625 49.5625 252.290039062 49.5625 c 0
 250.162109375 49.5625 242.2109375 43.02734375 239.690429688 41.84375 c 0
 225.766914243 35.8097421759 213.93157387 24.7502217729 199.099609375 19.0126953125 c 0
 191.151367188 16.2216796875 191.024414062 13.6396484375 182.450195312 11.4560546875 c 0
 179.030273438 10.4814453125 174.259765625 8.53125 171.919921875 7.2314453125 c 0
 157.958984375 -0.8056640625 116.203125 2.33984375 104.150390625 7.6376953125 c 0
 95.4169921875 11.5791015625 92.361328125 11.0322265625 84.259765625 15.84375 c 0
 80.9296875 17.875 77.599609375 19.5 77.0595703125 19.5 c 0
 74.8203125 19.5 69.8076171875 24.697265625 67.7001953125 26 c 0
 62.47265625 29.3037109375 42.1669921875 46.1796875 38.5400390625 54.599609375 c 0
 33.0948127009 65.6628866699 23.5994727582 75.7632180764 21.7998046875 91 c 0
 21.259765625 95.224609375 19.8203125 102.456054688 18.650390625 107.005859375 c 0
 13.9697265625 124.962890625 13.7900390625 157.299804688 18.2900390625 175.90625 c 0
 20.845703125 186.39453125 22.328125 204.810546875 25.849609375 214.09375 c 0
 29.4169921875 223.416015625 30.11328125 233.92578125 34.400390625 241.880859375 c 0
 37.833984375 248.08203125 39.013671875 257.048828125 42.5 262.924804688 c 0
 49.0403792659 273.550775201 51.7620826385 288.722445044 59.419921875 298.106445312 c 0
 70.0251875895 311.098530605 74.2077480836 328.47105395 85.51953125 340.599609375 c 0
 92.3067111367 347.49289816 95.7908275413 356.805998165 102.709960938 363.674804688 c 0
 108.856445312 370.055664062 113.268554688 377.0703125 119.450195312 383.581054688 c 0
 134.262568231 399.386268689 159.416959444 421.734005724 177.23046875 435.744140625 c 0
 180.01953125 437.856445312 182.629882812 439.5625 182.990234375 439.5625 c 0
 184.640625 439.5625 193.762695312 446.5 195.58984375 447.28125 c 0
 204.856208632 451.685122803 213.676626572 459.901123714 224.66015625 462.637695312 c 0
 232.184570312 464.745117188 234.133789062 468.366210938 243.01953125 470.03125 c 0
 254.908203125 472.586914062 258.598632812 475.805664062 273.080078125 478.15625 c 0
263 404.21875 m 0
 255.71875 401.845703125 248.443359375 400.918945312 243.110351562 396.90625 c 0
 240.950195312 395.362304688 238.610351562 394.0625 238.0703125 394.0625 c 0
 235.705078125 394.0625 229.025390625 388 227 386.75 c 0
 212.113457151 377.530516105 182.426975089 350.961598843 174.620117188 336.862304688 c 0
 168.790721116 325.858983808 153.932846077 310.270733938 162.830078125 294.206054688 c 0
 167.7421875 285.624023438 177.24609375 280.08203125 187.669921875 278.768554688 c 0
 201.889648438 276.981445312 219.259765625 278.443359375 224.389648438 281.856445312 c 0
 227.171875 283.650390625 238.666015625 288.625 240.950195312 290.875 c 0
 241.940429688 291.849609375 243.919921875 293.231445312 245.360351562 293.880859375 c 0
 253.73046875 297.78125 297.830078125 336.456054688 302.059570312 343.525390625 c 0
 302.509765625 344.337890625 303.950195312 346.043945312 305.299804688 347.34375 c 0
 333.127958026 374.349210441 295.703036892 415.064449975 263 404.21875 c 0
EndSplineSet
EndChar

StartChar: f
Encoding: 102 102 49
Width: 394
Flags: HW
LayerCount: 3
Fore
SplineSet
306.674804688 727.15625 m 0
 323.858398438 733.16015625 328.6171875 733.16015625 345.801757812 726.889648438 c 0
 359.225585938 721.848632812 373.139648438 714.159179688 377.52734375 703.407226562 c 0
 379.774414062 698.0703125 379.774414062 674.1875 377.52734375 667.916992188 c 0
 375.038085938 660.588867188 356.43359375 640.795898438 342.893554688 636.696289062 c 0
 313.166015625 627.694335938 286.6953125 606.30078125 278.783203125 578.791015625 c 0
 277.592773438 574.655273438 274.817382812 567.850585938 272.702148438 563.581054688 c 0
 265.828125 549.837890625 262.259765625 518.884765625 265.9609375 505.67578125 c 0
 267.150390625 501.5390625 271.77734375 495.668945312 284.99609375 481.526367188 c 0
 311.961914062 452.70703125 318.174804688 440.69921875 315.134765625 423.887695312 c 0
 313.243164062 413.5 299.333984375 400.412109375 289.490234375 397.737304688 c 0
 279.723632812 395.048828125 270.995117188 389.169921875 262.259765625 385.99609375 c 0
 256.83984375 383.994140625 241.109375 370.251953125 241.109375 367.716796875 c 0
 241.109375 365.087890625 230.376953125 352.633789062 229.344726562 348.637695312 c 0
 226.392578125 338.846679688 219.16796875 327.965820312 216.2578125 316.215820312 c 0
 212.481445312 300.622070312 207.616210938 295.684570312 204.229492188 278.590820312 c 0
 200.450195312 259.520507812 195.446289062 252.75 192.067382812 232.29296875 c 0
 188.474609375 212.653320312 182.416015625 202.760742188 179.642578125 183.861328125 c 0
 176.302734375 161.3203125 170.82421875 155.942382812 166.952148438 132.493164062 c 0
 162.802734375 106.98046875 157.475585938 100.876953125 153.336914062 74.1884765625 c 0
 150.600585938 56.2314453125 145.397460938 49.7587890625 142.629882812 30.826171875 c 0
 139.9296875 12.66015625 132.452148438 -5.48828125 129.411132812 -22.54296875 c 0
 126.4375 -38.8828125 120.216796875 -48.7919921875 117.381835938 -65.638671875 c 0
 114.766601562 -81.740234375 107.729492188 -92.3955078125 104.427734375 -106.465820312 c 0
 101.8046875 -117.643554688 96.1396484375 -123.411132812 92.5302734375 -132.8828125 c 0
 89.0673828125 -141.97265625 83.4462890625 -147.802734375 78.1220703125 -155.565429688 c 0
 59.3515625 -183.18359375 43.3564453125 -197.326171875 34.5 -194.524414062 c 0
 19.5263671875 -189.603515625 12.4248046875 -168.500976562 12.4248046875 -150.361328125 c 0
 12.4248046875 -132.703125 27.0888671875 -100.58984375 30.1376953125 -80.58203125 c 0
 33.064453125 -61.37890625 39.8701171875 -48.2001953125 42.6962890625 -26.8125 c 0
 46.2216796875 -2.8701171875 51.310546875 2.87890625 54.857421875 26.95703125 c 0
 58.2275390625 49.5361328125 64.3662109375 61.513671875 67.4150390625 83.39453125 c 0
 72.0498046875 120.817382812 87.181640625 155.94140625 92.3984375 192.80078125 c 0
 95.0849609375 211.776367188 101.637695312 223.90234375 104.427734375 241.5 c 0
 107.22265625 257.193359375 114.134765625 269.967773438 117.381835938 289.264648438 c 0
 121.279296875 312.869140625 130.88671875 327.04296875 129.807617188 355.575195312 c 0
 128.676757812 386.381835938 112.6015625 394.79296875 103.23828125 410.545898438 c 0
 98.3330078125 419.384765625 96.720703125 418.458007812 90.9443359375 427.356445312 c 0
 88.4326171875 431.225585938 85.9208984375 434.427734375 85.2607421875 434.427734375 c 0
 82.7841796875 434.427734375 67.134765625 454.326171875 74.4208984375 458.444335938 c 0
 75.875 459.111328125 83.673828125 460.711914062 92.001953125 461.913085938 c 0
 129.846679688 467.13671875 155.959960938 477.124023438 167.216796875 506.4765625 c 0
 174.461914062 526.419921875 185.834960938 551.99609375 191.670898438 573.454101562 c 0
 195.612304688 587.9453125 199.94140625 590.798828125 203.435546875 603.340820312 c 0
 206.178710938 613.493164062 213.559570312 621.856445312 216.522460938 631.493164062 c 0
 219.703125 640.482421875 225.745117188 646.18359375 229.344726562 654.44140625 c 0
 235.276367188 668.048828125 247.09375 678.618164062 254.724609375 690.598632812 c 0
 258.430664062 696.11328125 280.708007812 711.0625 289.490234375 718.884765625 c 0
 291.869140625 721.15234375 298.743164062 724.48828125 306.674804688 727.15625 c 0
EndSplineSet
EndChar

StartChar: g
Encoding: 103 103 50
Width: 526
Flags: HW
LayerCount: 3
Fore
SplineSet
456.874023438 492.598632812 m 0
 472.9296875 495.209960938 501.951171875 509.303710938 516.530273438 496.547851562 c 0
 518.708984375 494.624023438 520.887695312 493.00390625 521.40625 493.00390625 c 0
 521.924804688 493.00390625 525.348632812 489.561523438 529.083984375 485.41015625 c 0
 537.809570312 475.759765625 542.930664062 460.07421875 535.30859375 446.0234375 c 0
 533.129882812 441.568359375 519.642578125 428.40625 515.077148438 426.077148438 c 0
 509.24609375 423.3671875 505.506835938 418.641601562 498.7890625 416.155273438 c 0
 491.124023438 413.412109375 487.608398438 409.696289062 479.69921875 407.04296875 c 0
 473.526367188 404.97265625 468.556640625 399.848632812 463.513671875 398.334960938 c 0
 455.58203125 395.890625 440.8984375 378.081054688 439.443359375 365.125 c 0
 436.762695312 341.249023438 433.72265625 342.520507812 429.068359375 326.245117188 c 0
 426.303710938 315.698242188 422.577148438 313.213867188 419.212890625 303.362304688 c 0
 412.53515625 284.317382812 398.275390625 269.6015625 390.473632812 252.028320312 c 0
 387.020507812 244.80859375 384.362304688 244.37890625 380.6171875 237.853515625 c 0
 371.47265625 221.91796875 356.854492188 210.952148438 341.400390625 200.897460938 c 0
 335.698242188 197.188476562 323.170898438 195.112304688 315.462890625 192.797851562 c 0
 306.747070312 190.063476562 301.767578125 189.456054688 271.991210938 188.241210938 c 0
 237.276367188 186.858398438 240.287109375 184.1328125 221.46484375 178.622070312 c 0
 208.790039062 175.159179688 186.916015625 157.110351562 186.916015625 137.110351562 c 0
 186.916015625 124.28515625 190.83984375 122.375976562 194.282226562 113.518554688 c 0
 195.463867188 110.176757812 206.110351562 98.1123046875 206.110351562 95.7998046875 c 0
 206.110351562 92.537109375 239.658203125 83.181640625 245.950195312 78.486328125 c 0
 247.353515625 77.4970703125 263.172851562 70.3037109375 263.172851562 68.8671875 c 0
 263.172851562 67.3662109375 277.438476562 60.046875 278.942382812 58.7421875 c 0
 284.100585938 54.546875 288.713867188 53.11328125 293.986328125 48.4150390625 c 0
 296.4765625 46.1875 298.862304688 44.4658203125 299.485351562 44.4658203125 c 0
 301.901367188 44.4658203125 309.889648438 36.83203125 312.454101562 35.353515625 c 0
 316.915039062 32.7216796875 323.866210938 27.25390625 331.3359375 20.4697265625 c 0
 333.9296875 18.0400390625 336.419921875 16.1162109375 337.04296875 16.1162109375 c 0
 337.561523438 16.1162109375 339.740234375 14.39453125 342.022460938 12.3701171875 c 0
 360.088867188 -5.2607421875 395.791015625 -29.6640625 399.084960938 -60.0234375 c 0
 401.263671875 -80.7802734375 399.915039062 -103.865234375 395.97265625 -109.838867188 c 0
 394.831054688 -111.559570312 392.548828125 -115.7109375 390.681640625 -118.951171875 c 0
 387.568359375 -124.72265625 367.233398438 -145.883789062 364.84765625 -145.883789062 c 0
 364.329101562 -145.883789062 362.045898438 -147.40234375 359.971679688 -149.326171875 c 0
 344.572265625 -162.208007812 323.975585938 -168.686523438 306.540039062 -178.790039062 c 0
 300.594726562 -182.416992188 288.219726562 -184.661132812 282.98828125 -188.307617188 c 0
 277.658203125 -191.93359375 261.021484375 -193.848632812 251.759765625 -196.610351562 c 0
 234.252929688 -201.440429688 194.771484375 -203.092773438 174.985351562 -198.534179688 c 0
 160.41796875 -195.40625 139.634765625 -194.052734375 125.081054688 -188.509765625 c 0
 115.518554688 -184.868164062 101.577148438 -183.516601562 92.607421875 -179.397460938 c 0
 86.2841796875 -176.40625 72.0205078125 -173.74609375 66.8779296875 -169.981445312 c 0
 63.3291015625 -167.740234375 48.947265625 -162.8671875 45.919921875 -160.16015625 c 0
 43.5673828125 -158.0546875 32.6875 -153.580078125 30.5654296875 -151.25 c 0
 29.8388671875 -150.338867188 26.93359375 -148.111328125 24.0283203125 -146.389648438 c 0
 17.4921875 -142.23828125 1.099609375 -126.241210938 -1.3896484375 -121.482421875 c 0
 -6.431640625 -112.133789062 -7.728515625 -116.318359375 -12.69921875 -98.09375 c 0
 -18.353515625 -77.2109375 -14.10546875 -67.8603515625 -10.6240234375 -52.3291015625 c 0
 -8.921875 -44.49609375 -3.4873046875 -38.896484375 -0.6640625 -32.3828125 c 0
 2.1357421875 -26.171875 6.525390625 -22.03515625 10.541015625 -16.8916015625 c 0
 19.826171875 -4.376953125 45.544921875 19.5517578125 58.162109375 25.9375 c 0
 70.2841796875 31.853515625 79.6220703125 43.056640625 96.3427734375 43.8583984375 c 0
 116.711914062 44.8203125 109.059570312 53.28515625 106.509765625 65.728515625 c 0
 105.784179688 68.7666015625 103.60546875 74.537109375 101.633789062 78.587890625 c 0
 92.8154296875 96.4072265625 92.8154296875 132.3515625 101.737304688 145.209960938 c 0
 106.485351562 152.161132812 106.415039062 153.80859375 112.112304688 160.09375 c 0
 126.958007812 176.869140625 122.744140625 172.796875 130.995117188 186.215820312 c 0
 136.182617188 194.620117188 137.012695312 201.91015625 136.182617188 233.803710938 c 0
 135.153320312 270.462890625 129.151367188 320.17578125 132.965820312 347.912109375 c 0
 137.969726562 384.744140625 138.821289062 376.594726562 145.208984375 395.297851562 c 0
 148.528320312 405.017578125 159.111328125 418.787109375 174.673828125 433.772460938 c 0
 187.434570312 446.0234375 195.215820312 452.706054688 199.366210938 454.83203125 c 0
 204.338867188 457.116210938 206.931640625 461.568359375 212.438476562 464.147460938 c 0
 223.5625 469.791992188 231.93359375 478.158203125 243.563476562 483.284179688 c 0
 259.748046875 490.126953125 273.854492188 500.6171875 296.891601562 500.39453125 c 0
 311.891601562 500.39453125 324.294921875 494.6015625 337.665039062 493.00390625 c 0
 368.7578125 488.579101562 411.1875 478.048828125 442.348632812 489.358398438 c 0
 444.630859375 490.168945312 451.16796875 491.6875 456.874023438 492.598632812 c 0
313.69921875 438.329101562 m 0
 297.297851562 443.51171875 281.930664062 431.138671875 269.916015625 426.178710938 c 0
 264.83203125 424.052734375 261.512695312 421.622070312 246.26171875 408.358398438 c 0
 232.166992188 396.359375 226.901367188 387.14453125 217.9375 377.8828125 c 0
 212.998046875 373.0625 214.0234375 369.790039062 209.637695312 363.70703125 c 0
 205.180664062 357.754882812 202.575195312 347.494140625 199.159179688 340.825195312 c 0
 184.419921875 312.056640625 202.749023438 278.506835938 224.888671875 273.291015625 c 0
 230.865234375 271.9296875 240.015625 268.1328125 246.053710938 265.697265625 c 0
 259.541015625 265.697265625 273.028320312 265.697265625 286.516601562 265.697265625 c 1
 302.385742188 273.322265625 313.220703125 276.865234375 323.659179688 292.629882812 c 0
 331.055664062 304.232421875 346.163085938 323.200195312 350.9453125 338.59765625 c 0
 351.87890625 341.938476562 353.954101562 347.204101562 355.61328125 350.342773438 c 0
 361.3203125 361.48046875 362.150390625 385.780273438 357.2734375 394.690429688 c 0
 356.028320312 396.91796875 353.434570312 401.575195312 351.567382812 405.017578125 c 0
 345.7578125 415.75 323.969726562 434.88671875 313.69921875 438.329101562 c 0
176.852539062 6.4970703125 m 0
 161.375 8.9052734375 146.046875 20.7119140625 129.95703125 16.1162109375 c 0
 123.819335938 14.2333984375 115.586914062 1.833984375 110.037109375 -4.0322265625 c 0
 106.138671875 -8.154296875 105.540039062 -14.75 101.737304688 -19.8271484375 c 0
 97.3564453125 -26.00390625 96.1005859375 -34.30859375 91.9853515625 -40.583984375 c 0
 87.853515625 -46.8837890625 86.197265625 -55.9306640625 82.6474609375 -62.8583984375 c 0
 74.6396484375 -78.62890625 83.90234375 -93.6552734375 97.2763671875 -98.2958984375 c 0
 104.762695312 -101.124023438 105.66015625 -104.654296875 113.150390625 -107.00390625 c 0
 120.948242188 -109.44921875 131.625976562 -116.146484375 140.8515625 -117.432617188 c 0
 157.506835938 -120.20703125 165.494140625 -124.509765625 187.5390625 -125.8359375 c 0
 212.853515625 -127.25390625 239.724609375 -125.8359375 251.241210938 -122.19140625 c 0
 271.646484375 -116.307617188 293.967773438 -113.974609375 307.888671875 -102.750976562 c 0
 310.170898438 -100.827148438 313.491210938 -98.4990234375 315.254882812 -97.587890625 c 0
 320.740234375 -94.3759765625 332.4296875 -78.5244140625 326.771484375 -71.1611328125 c 0
 325.629882812 -69.642578125 323.659179688 -66.60546875 322.517578125 -64.3779296875 c 0
 320.130859375 -59.7197265625 304.46484375 -44.330078125 298.965820312 -40.98828125 c 0
 288.458984375 -34.8359375 279.360351562 -26.53125 267.115234375 -21.7509765625 c 0
 250.631835938 -15.6015625 236.080078125 -5.74609375 215.965820312 -2.8173828125 c 0
 202.174804688 -0.615234375 190.94921875 4.5322265625 176.852539062 6.4970703125 c 0
EndSplineSet
EndChar

StartChar: h
Encoding: 104 104 51
Width: 401
Flags: HW
LayerCount: 3
Fore
SplineSet
271 759 m 0xf0
 277 763 284 765 290 765 c 0
 299 765 306 762 309 757 c 0
 319 744 318 735 318 716 c 0
 318 703 315 689 302 642 c 0
 297 623 291 598 282 566 c 0xf0
 273 536 267 517 264 504 c 0
 261 492 259 486 260 485 c 0
 261 471 273 464 289 464 c 0
 294 464 300 465 305 466 c 0
 316 469 322 472 326 476 c 0
 330 480 339 482 345 485 c 0
 353 490 379 493 389 496 c 0
 396 498 401 499 414 499 c 0
 436 499 432 495 445 491 c 0
 451 489 453 483 457 480 c 0
 465 473 467 456 468 445 c 0
 470 436 462 397 459 379 c 0xea
 455 355 418 201 413 176 c 0
 400 128 l 0
 395 110 387 72 386 63 c 0
 386 55 393 47 401 47 c 0
 412 47 431 62 449 88 c 2
 480 131 l 1
 495 118 l 1
 434 21 399 -11 350 -11 c 0
 282 -11 293 62 311 131 c 0
 330 204 l 0xe4
 340 234 349 266 356 292 c 0
 362 314 366 332 368 341 c 0
 373 368 370 364 368 378 c 0
 367 388 355 407 348 412 c 0
 337 419 342 423 316 423 c 0
 296 423 295 422 285 415 c 0
 282 413 279 411 279 411 c 0
 274 411 251 385 248 379 c 0
 244 371 236 360 232 350 c 0
 216 311 216 322 194 239 c 0
 130 0 l 1
 32 0 l 1
 69 135 l 0
 109 269 112 279 121 314 c 0
 134 361 161 479 173 526 c 0xea
 193 609 189 606 199 656 c 0
 202 671 204 683 207 695 c 0
 210 708 215 719 227 729 c 0
 237 738 243 741 250 747 c 0
 255 751 267 756 271 759 c 0xf0
EndSplineSet
EndChar

StartChar: i
Encoding: 105 105 52
Width: 325
Flags: HW
LayerCount: 3
Fore
SplineSet
194.731445312 716.98828125 m 0
 207.103515625 739.890625 234.188476562 762.076171875 268.6015625 751.13671875 c 0
 286.586914062 745.549804688 303.322265625 730.768554688 310.620117188 715.03125 c 0
 315.383789062 704.750976562 318.1171875 704.126953125 318.297851562 688.60546875 c 2
 318.297851562 677.62109375 l 1
 313.213867188 667.3984375 l 2
 304.719726562 650.045898438 296.654296875 641.612304688 278.04296875 634.556640625 c 0
 236.41015625 619.25 206.908203125 641.685546875 194.731445312 669.46484375 c 0
 190.581054688 678.92578125 190.684570312 709.375976562 194.731445312 716.98828125 c 0
132.06640625 296.235351562 m 0
 132.06640625 303.951171875 125.041015625 318.65234375 113.598632812 318.85546875 c 0
 108.826171875 318.85546875 106.647460938 318.311523438 104.67578125 316.6796875 c 0
 88.802734375 303.412109375 84.4453125 300.3671875 78.8427734375 298.518554688 c 0
 55.7666015625 290.994140625 42.0048828125 306.762695312 50.93359375 328.96875 c 0
 54.6318359375 337.932617188 55.115234375 345.55859375 59.9599609375 352.893554688 c 0
 63.107421875 357.938476562 66.3212890625 369.200195312 69.81640625 373.23046875 c 0
 73.4619140625 377.051757812 77.1845703125 388.182617188 80.8134765625 392.587890625 c 0
 82.78515625 395.088867188 84.3408203125 397.58984375 84.3408203125 398.3515625 c 0
 84.3408203125 400.895507812 94.060546875 413.846679688 95.2353515625 416.186523438 c 0
 102.4765625 430.609375 125.489257812 456.338867188 135.697265625 462.622070312 c 0
 143.34375 467.237304688 144.899414062 470.649414062 153.54296875 473.280273438 c 0
 168.55859375 477.706054688 173.665039062 483.61328125 195.353515625 483.28515625 c 0
 226.879882812 482.715820312 230.971679688 459.977539062 239.447265625 438.48046875 c 1
 239.447265625 409.661132812 l 2
 239.447265625 359.524414062 229.420898438 336.612304688 221.809570312 294.27734375 c 0
 218.76953125 276.51953125 214.786132812 274.719726562 211.954101562 258.389648438 c 0
 209.725585938 245.77734375 204.387695312 237.087890625 202.616210938 225.330078125 c 0
 201.889648438 221.088867188 199.607421875 212.0625 197.428710938 205.2109375 c 0
 193.071289062 191.6171875 191.204101562 176.936523438 191.204101562 157.361328125 c 0
 191.307617188 138.65625 193.3828125 134.5234375 203.134765625 134.5234375 c 0
 220.301757812 134.5234375 227.165039062 149.963867188 230.213867188 165.299804688 c 0
 232.767578125 177.643554688 242.016601562 185.092773438 258.122070312 185.092773438 c 0
 269.327148438 184.983398438 270.883789062 184.440429688 281.465820312 177.48046875 c 0
 297.668945312 166.723632812 285.49609375 149.05078125 280.532226562 135.17578125 c 0
 278.303710938 128.751953125 272.134765625 123.424804688 270.572265625 118.102539062 c 0
 269.953125 115.994140625 260.715820312 103.450195312 260.715820312 101.24609375 c 0
 260.715820312 100.375976562 259.056640625 97.7666015625 257.084960938 95.482421875 c 0
 252.57421875 90.2822265625 249.364257812 79.955078125 245.776367188 74.16796875 c 0
 242.869140625 69.8154296875 241.719726562 59.8994140625 239.447265625 55.13671875 c 0
 237.4765625 51.1123046875 222.536132812 35.2353515625 217.66015625 32.0810546875 c 0
 208.044921875 25.66796875 197.286132812 15.8466796875 184.459960938 12.1796875 c 0
 171.192382812 8.3876953125 169.765625 3.7822265625 151.778320312 1.8486328125 c 0
 118.178710938 -1.84765625 89.568359375 16.2080078125 84.755859375 48.8291015625 c 0
 81.6865234375 70.0087890625 85.8310546875 117.782226562 89.5283203125 129.0859375 c 0
 92.8701171875 139.375 95.0751953125 158.583984375 99.48828125 167.2578125 c 0
 103.51171875 175.9921875 105.6484375 192.650390625 109.759765625 201.94921875 c 0
 113.650390625 211.23828125 114.259765625 222.268554688 118.1640625 230.767578125 c 0
 122.002929688 239.576171875 122.625 241.642578125 124.388671875 253.278320312 c 0
 126.868164062 269.737304688 132.06640625 277.875 132.06640625 296.235351562 c 0
EndSplineSet
EndChar

StartChar: j
Encoding: 106 106 53
Width: 260
Flags: HW
LayerCount: 3
Fore
SplineSet
178 193 m 0xd0
 216 334 l 0
 221 353 230 390 232 400 c 0
 232 407 225 415 217 415 c 0
 209 415 192 405 179 387 c 2
 141 336 l 1
 129 347 l 1
 184 435 219 466 261 466 c 0
 314 466 311 405 290 328 c 0
 211 32 l 0
 198 -12 184 -43 170 -80 c 0
 163 -94 160 -97 152 -109 c 0
 148 -114 143 -120 140 -123 c 0
 138 -125 135 -128 135 -129 c 0
 134 -134 121 -143 118 -147 c 0
 105 -161 75 -185 56 -195 c 0
 51 -198 44 -201 42 -203 c 0
 39 -204 30 -205 21 -205 c 0
 12 -205 2 -204 -1 -203 c 0
 -15 -195 -20 -192 -23 -185 c 0
 -27 -177 -28 -170 -26 -161 c 0
 -24 -154 -19 -148 -13 -140 c 0
 -5 -131 5 -122 11 -119 c 0
 19 -115 23 -112 33 -108 c 0
 46 -104 47 -100 63 -96 c 0
 73 -94 97 -86 102 -78 c 0
 103 -76 114 -40 127 6 c 0
 140 50 157 116 168 155 c 0
 171 168 175 180 178 193 c 0xd0
325 745 m 0
 337 760 357 768 374 768 c 0
 390 768 403 761 406 745 c 2
 409 737 l 1
 405 721 400 704 395 687 c 1
 386 675 379 666 366 660 c 0
 359 658 341 656 326 656 c 0
 315 656 306 657 301 658 c 0
 296 660 288 675 288 682 c 0
 288 684 288 686 289 688 c 0xe0
 292 700 302 715 307 724 c 0
 311 731 321 739 325 745 c 0
EndSplineSet
EndChar

StartChar: k
Encoding: 107 107 54
Width: 510
Flags: HW
LayerCount: 3
Fore
SplineSet
149.474609375 743.637695312 m 0
 175.416015625 748.653320312 185.079101562 753.676757812 220.606445312 753.424804688 c 2
 244.474609375 753.200195312 l 1
 258.475585938 745.107421875 282.599609375 733.65625 289.481445312 720.912109375 c 0
 299.153320312 703.0703125 283.578125 662.309570312 280.575195312 641.825195312 c 0
 277.354492188 622.131835938 272.685546875 616.83203125 269.768554688 596.9375 c 0
 266.515625 576.763671875 261.022460938 566.946289062 257.893554688 546.200195312 c 0
 256.587890625 537.537109375 254.212890625 525.950195312 252.549804688 520.325195312 c 0
 247.5625 503 248.512695312 500.75 263 496.25 c 0
 275.231445312 492.424804688 285.206054688 491.637695312 327.481445312 491.637695312 c 0
 408.438476562 491.637695312 434.833984375 488.665039062 471.762695312 467.674804688 c 0
 476.393554688 465.200195312 485.181640625 455.75 491.119140625 446.75 c 0
 500.7265625 430.821289062 493.780273438 378.463867188 487.793945312 370.25 c 0
 484.297851562 365.51953125 481.096679688 353.958984375 477.106445312 349.887695312 c 0
 475.5625 348.3125 473.068359375 344.825195312 471.643554688 342.012695312 c 0
 468.318359375 335.712890625 462.737304688 329.412109375 446.706054688 314.224609375 c 0
 434.119140625 302.1875 423.668945312 294.762695312 411.081054688 288.462890625 c 0
 400.532226562 283.6171875 399.602539062 279.704101562 386.737304688 276.875 c 0
 379.576171875 275.3671875 366.087890625 268.022460938 359.068359375 266.637695312 c 0
 352.591796875 265.037109375 347.522460938 259.890625 342.5625 256.849609375 c 0
 340.541015625 255.6796875 332.022460938 245.262695312 330.450195312 245.262695312 c 0
 327.8828125 245.262695312 321.971679688 230.390625 320.119140625 226.587890625 c 0
 312.379882812 211.455078125 312.899414062 168.333984375 320.119140625 148.287109375 c 0
 324.280273438 136.459960938 324.203125 127.744140625 330.806640625 120.5 c 0
 332.825195312 118.137695312 335.318359375 114.650390625 336.387695312 112.849609375 c 0
 339 108.349609375 352.65625 101.262695312 358.59375 101.262695312 c 0
 363.106445312 101.262695312 377.59375 106.662109375 384.837890625 111.049804688 c 0
 388.875 113.412109375 399.5625 122.525390625 418.206054688 139.512695312 c 0
 429.252929688 149.532226562 431.139648438 148.783203125 441.599609375 155.262695312 c 0
 458.4296875 165.493164062 471.2734375 150.53125 470.21875 134.224609375 c 0
 469.34765625 122.463867188 466.126953125 122.241210938 461.075195312 114.762695312 c 0
 456.404296875 107.848632812 453.3046875 105.66015625 448.130859375 99.125 c 0
 428.893554688 75.3876953125 379.494140625 29.8251953125 355.625 13.7373046875 c 0
 346.0078125 7.177734375 337.732421875 -1.6044921875 322.018554688 1.1376953125 c 0
 307.525390625 3.5400390625 306.927734375 8.4736328125 296.369140625 12.3876953125 c 0
 283.418945312 17.7216796875 273.004882812 28.88671875 262.525390625 36.6875 c 0
 255.994140625 42.2001953125 249.581054688 50.75 243.643554688 61.775390625 c 0
 236.755859375 74.599609375 236.637695312 75.275390625 234.262695312 107.450195312 c 0
 232.8671875 126.448242188 228.254882812 135.016601562 224.049804688 148.737304688 c 0
 221.791015625 157.030273438 217.750976562 159.598632812 213.956054688 166.512695312 c 0
 212.53125 169.325195312 206.59375 175.849609375 200.65625 181.25 c 0
 189.731445312 191.375 185.21875 193.512695312 175.71875 193.512695312 c 0
 164.64453125 193.512695312 157.662109375 180.477539062 151.612304688 173.599609375 c 0
 147.616210938 168.731445312 143.90234375 157.942382812 140.09375 152.787109375 c 0
 135.684570312 146.819335938 133.666015625 134.256835938 129.643554688 127.587890625 c 0
 124.658203125 119.6171875 121.91015625 104.2890625 118.599609375 94.400390625 c 0
 116.9375 89.6748046875 115.037109375 80.4501953125 114.325195312 73.1376953125 c 0
 110.732421875 39.1015625 90.7587890625 24.6796875 66.349609375 6.4248046875 c 0
 56.205078125 -1.1416015625 22.1650390625 -2.4765625 14.693359375 7.8876953125 c 0
 0.39453125 27.98828125 8.5302734375 57.18359375 12.0810546875 83.4873046875 c 0
 16.55859375 115.904296875 27.4853515625 137.745117188 34.1689453125 166.962890625 c 0
 37.5654296875 181.814453125 42.9765625 188.884765625 45.9248046875 202.849609375 c 0
 48.7060546875 216.025390625 54.34765625 223.991210938 57.3251953125 237.837890625 c 0
 62.4326171875 261.59375 74.7060546875 284.387695312 79.53125 308.487304688 c 0
 82.814453125 324.604492188 87.556640625 330.59375 90.693359375 347.075195312 c 0
 94.2958984375 367.552734375 98.0556640625 366.331054688 102.331054688 388.700195312 c 0
 105.387695312 404.759765625 110.1015625 412.05859375 112.543945312 427.962890625 c 0
 115.901367188 449.391601562 121.60546875 456.872070312 124.181640625 480.049804688 c 0
 126.750976562 501.423828125 132.500976562 515.588867188 134.275390625 537.200195312 c 0
 135.106445312 545.862304688 136.53125 561.950195312 137.481445312 572.974609375 c 0
 140.331054688 604.362304688 140.212890625 618.200195312 136.887695312 633.724609375 c 0
 133.470703125 650.080078125 128.681640625 652.228515625 123.943359375 663.200195312 c 0
 122.875 665.674804688 120.262695312 669.837890625 118.244140625 672.424804688 c 0
 111.950195312 680.1875 108.150390625 699.200195312 110.643554688 710.450195312 c 0
 113.255859375 722.599609375 116.224609375 726.3125 131.068359375 736.212890625 c 0
 137.599609375 740.487304688 141.043945312 741.837890625 149.474609375 743.637695312 c 0
354.556640625 412.662109375 m 0
 346.186523438 416.987304688 306.904296875 419.853515625 300.049804688 418.962890625 c 0
 298.150390625 418.625 289.005859375 417.387695312 279.862304688 416.150390625 c 0
 255.497070312 412.904296875 232.923828125 401.440429688 223.693359375 387.012695312 c 0
 219.931640625 380.856445312 217.14453125 381.905273438 213.956054688 373.849609375 c 0
 210.65625 364.754882812 205.09765625 360.422851562 202.674804688 350.224609375 c 0
 199.3125 337.130859375 193.293945312 325.94921875 193.293945312 308.825195312 c 2
 193.174804688 295.325195312 l 2
 196.247070312 290.404296875 202.331054688 279.733398438 206.237304688 278.112304688 c 0
 213.481445312 274.962890625 234.737304688 277.325195312 245.424804688 282.612304688 c 0
 253.262695312 286.556640625 265.404296875 288.60546875 272.143554688 293.075195312 c 0
 285.405273438 301.451171875 301.9921875 305.251953125 313.943359375 314.787109375 c 0
 319.171875 319.189453125 324.997070312 320.44921875 330.450195312 324.799804688 c 0
 333.4296875 327.177734375 345.265625 332.98828125 346.599609375 335.9375 c 0
 346.837890625 336.724609375 349.09375 338.525390625 351.46875 340.099609375 c 0
 361.681640625 346.625 378.543945312 365.075195312 379.731445312 371.037109375 c 0
 384.080078125 392.462890625 369.256835938 405.141601562 354.556640625 412.662109375 c 0
EndSplineSet
EndChar

StartChar: l
Encoding: 108 108 55
Width: 327
Flags: HW
LayerCount: 3
Fore
SplineSet
114.223632812 125.475585938 m 0
 114.223632812 113.486328125 115.68359375 111.056640625 130.130859375 111.728515625 c 0
 145.288085938 112.143554688 144.327148438 115.749023438 154.624023438 120.541015625 c 0
 164.331054688 124.756835938 180.436523438 137.34375 191.362304688 137.34375 c 0
 203.393554688 137.34375 198.663085938 107.041992188 193.129882812 100.213867188 c 0
 189.704101562 95.88671875 184.060546875 82.478515625 179.874023438 79.1806640625 c 0
 175.865234375 75.76171875 173.284179688 69.265625 169.142578125 65.66796875 c 0
 167.249023438 64.0234375 164.344726562 60.8505859375 162.830078125 58.6181640625 c 0
 154.192382812 46.32421875 123.583984375 19.31640625 108.037109375 9.85546875 c 0
 98.8486328125 4.7880859375 98.0888671875 0.6943359375 83.0400390625 1.2783203125 c 0
 68.3671875 1.685546875 68.982421875 5.0751953125 59.8095703125 9.85546875 c 0
 50.97265625 14.0859375 36.4541015625 26.541015625 30.8984375 34.53125 c 0
 28.12109375 38.408203125 24.8388671875 42.873046875 23.32421875 44.5185546875 c 0
 17.89453125 50.74609375 12.71875 87.0537109375 15.49609375 99.2734375 c 0
 16.25390625 102.446289062 17.7685546875 113.255859375 18.9052734375 123.243164062 c 0
 22.185546875 152.926757812 27.4169921875 156.15234375 31.5302734375 180.818359375 c 0
 34.26953125 195.606445312 41.4814453125 208.590820312 43.5234375 222.53125 c 0
 45.8271484375 236.005859375 53.0703125 249.5078125 55.896484375 263.185546875 c 0
 59.310546875 278.2109375 64.1298828125 282.801757812 67.51171875 297.965820312 c 0
 70.7421875 312.455078125 76.44921875 319.563476562 79.37890625 333.803710938 c 0
 82.248046875 348.045898438 88.1357421875 355.592773438 91.3720703125 370.111328125 c 0
 94.50390625 385.268554688 99.9013671875 389.901367188 102.987304688 405.125976562 c 0
 106.352539062 420.215820312 112.291992188 427.822265625 115.360351562 442.9609375 c 0
 118.631835938 458.794921875 123.446289062 462.163085938 126.72265625 478.798828125 c 0
 130.653320312 497.087890625 136.201171875 506.943359375 138.842773438 526.85546875 c 0
 141.515625 546.759765625 147.72265625 566.272460938 149.57421875 586.663085938 c 0
 151.467773438 606.755859375 151.467773438 662.098632812 149.57421875 672.438476562 c 0
 148.184570312 680.8984375 141.74609375 692.765625 134.549804688 700.520507812 c 0
 126.951171875 708.4765625 123.061523438 725.456054688 123.061523438 743.760742188 c 0
 123.061523438 792.391601562 135.553710938 803.321289062 193.76171875 805.80078125 c 0
 232.166992188 807.577148438 277.802734375 806.5703125 297.286132812 788.05859375 c 0
 306.275390625 779.4140625 314.509765625 767.859375 316.349609375 753.395507812 c 0
 318.622070312 735.18359375 316.09765625 712.741210938 310.416015625 699.815429688 c 0
 305.943359375 690.299804688 304.470703125 676.66796875 299.1796875 667.85546875 c 0
 294.404296875 659.706054688 292.736328125 649.669921875 287.817382812 642.475585938 c 0
 284.298828125 637.892578125 279.758789062 623.34375 275.697265625 619.563476562 c 0
 271.767578125 615.57421875 266.100585938 599.920898438 262.8203125 595.123046875 c 0
 257.521484375 588.219726562 257.57421875 582.154296875 252.340820312 574.208007812 c 0
 246.889648438 565.663085938 244.98828125 557.46484375 239.463867188 549.298828125 c 0
 234.455078125 541.89453125 232.770507812 532.31640625 227.72265625 524.975585938 c 0
 221.84765625 516.432617188 220.299804688 503.064453125 216.360351562 491.60546875 c 0
 212.171875 478.873046875 208.969726562 453.260742188 203.987304688 441.66796875 c 0
 199.490234375 430.680664062 197.555664062 413.776367188 192.499023438 403.48046875 c 0
 188.142578125 394.611328125 185.052734375 374.934570312 180.504882812 366.46875 c 0
 175.962890625 358.013671875 172.541992188 337.873046875 168.51171875 328.868164062 c 0
 164.013671875 319.451171875 161.0703125 300.860351562 156.643554688 291.73828125 c 0
 152.267578125 282.719726562 148.70703125 261.837890625 144.5234375 252.493164062 c 0
 139.583007812 242.147460938 137.66796875 223.674804688 133.03515625 212.895507812 c 0
 128.0078125 200.731445312 125.268554688 178.655273438 120.662109375 165.54296875 c 0
 116.749023438 153.44140625 114.223632812 138.048828125 114.223632812 125.475585938 c 0
EndSplineSet
EndChar

StartChar: m
Encoding: 109 109 56
Width: 866
Flags: HW
LayerCount: 3
Fore
SplineSet
827.184570312 202.71484375 m 0
 839.125976562 202.71484375 852.139648438 192.381835938 852.139648438 180.576171875 c 0
 852.139648438 172.034179688 846.00390625 164.32421875 843.514648438 157.102539062 c 0
 838.676757812 143.060546875 828.041992188 132.43359375 821.89453125 119.9453125 c 0
 815.840820312 107.645507812 806.344726562 98.55859375 798.89453125 87.3486328125 c 0
 788.498046875 71.2548828125 778.532226562 61.8984375 768.3046875 48.8564453125 c 0
 761.865234375 40.4013671875 736.565429688 15.1474609375 731.620117188 12.3662109375 c 0
 724.069335938 7.984375 723.52734375 4.2841796875 712.0703125 1.9091796875 c 0
 695.118164062 -1.9951171875 671.8671875 -10.4501953125 652.615234375 -1.9853515625 c 0
 643.270507812 2.033203125 637.447265625 2.5498046875 629.5 9.1396484375 c 0
 625.8203125 12.2548828125 622.485351562 14.7021484375 622.025390625 14.7021484375 c 0
 620.868164062 14.7021484375 609.655273438 30.763671875 608.915039062 31.3896484375 c 0
 605.327148438 34.365234375 602.734375 44.8271484375 599.71484375 49.857421875 c 0
 592.510742188 61.5322265625 593.701171875 102.272460938 599.71484375 115.495117188 c 0
 603.577148438 124.1171875 606.528320312 140.7265625 610.525390625 149.42578125 c 0
 614.764648438 157.870117188 617.432617188 174.41015625 621.565429688 182.690429688 c 0
 625.752929688 191.081054688 628.19140625 209.147460938 632.375 217.956054688 c 0
 643.645507812 243.168945312 645.809570312 275.010742188 653.3046875 304.620117188 c 0
 655.14453125 311.8515625 655.834960938 318.303710938 655.950195312 328.427734375 c 2
 656.065429688 342.333984375 l 1
 651.91015625 349.033203125 646.208007812 360.05078125 639.16015625 356.462890625 c 0
 618.087890625 346.001953125 569.776367188 292.423828125 545.08984375 265.014648438 c 0
 508.059570312 223.852539062 505.64453125 221.071289062 497.940429688 210.057617188 c 0
 491.962890625 201.384765625 490.4453125 203.26171875 485.405273438 194.37109375 c 0
 483.450195312 191.034179688 481.379882812 188.252929688 480.8046875 188.252929688 c 0
 479.719726562 188.252929688 470.51171875 172.194335938 469.650390625 171.454101562 c 0
 466.505859375 168.791992188 461.055664062 157.388671875 458.379882812 153.875976562 c 0
 454.0625 148.208007812 452.391601562 138.677734375 448.490234375 132.071289062 c 0
 442.899414062 122.474609375 441.125976562 89.318359375 436.530273438 79.0048828125 c 0
 432.942382812 71.2626953125 431.912109375 61.5458984375 427.21484375 54.86328125 c 0
 422.806640625 48.9404296875 420.158203125 40.3232421875 415.254882812 35.2841796875 c 0
 400.264648438 19.814453125 378.025390625 -13.99609375 345.794921875 -0.205078125 c 0
 329.06640625 6.8076171875 325.619140625 15.001953125 317.96484375 27.49609375 c 0
 314.745117188 32.724609375 314.514648438 33.837890625 314.514648438 44.294921875 c 0
 314.514648438 55.30859375 314.629882812 55.642578125 318.655273438 61.5390625 c 0
 324.639648438 70.22265625 323.177734375 70.8671875 328.889648438 80.33984375 c 0
 334.061523438 88.75390625 336.322265625 102.708007812 340.849609375 111.15625 c 0
 346.057617188 121.231445312 347.826171875 139.526367188 351.775390625 149.204101562 c 0
 357.282226562 162.5234375 357.952148438 179.959960938 363.16015625 193.815429688 c 0
 366.8125 203.451171875 368.6875 222.315429688 372.360351562 232.307617188 c 0
 381.215820312 254.48046875 383.528320312 278.170898438 393.98046875 298.389648438 c 0
 398.250976562 306.653320312 400.239257812 319.302734375 404.21484375 327.315429688 c 0
 411.708007812 342.416015625 413.799804688 373.504882812 396.165039062 378.37890625 c 0
 385.444335938 381.248046875 376.235351562 372.78515625 369.139648438 368.811523438 c 0
 366.955078125 367.4765625 360.514648438 361.69140625 354.764648438 355.90625 c 0
 338.252929688 339.21484375 327.802734375 326.385742188 308.995117188 305.84375 c 0
 300.561523438 296.54296875 293.056640625 283.965820312 284.384765625 274.693359375 c 0
 282.315429688 272.46875 280.58984375 270.1328125 280.58984375 269.46484375 c 0
 280.58984375 266.668945312 269.45703125 255.2578125 267.594726562 252.5546875 c 0
 259.294921875 239.782226562 253.359375 235.502929688 248.16015625 224.186523438 c 0
 242.106445312 210.34375 232.552734375 201.169921875 227 190.143554688 c 0
 221.840820312 180.162109375 218.841796875 179.780273438 215.155273438 169.673828125 c 0
 211.340820312 160.0234375 209.11328125 161.532226562 205.264648438 151.428710938 c 0
 202.205078125 144.126953125 196.474609375 138.798828125 194.684570312 132.73828125 c 0
 192.532226562 123.627929688 186.345703125 119.01953125 183.0703125 110.377929688 c 0
 181.338867188 105.809570312 172.490234375 94.6044921875 172.490234375 90.4638671875 c 0
 172.490234375 86.12890625 163.456054688 73.8173828125 161.565429688 69.548828125 c 0
 155.486328125 56.4306640625 145.995117188 45.765625 139.485351562 33.169921875 c 0
 136.150390625 26.7177734375 132.700195312 22.490234375 121.775390625 11.365234375 c 0
 97.248046875 -13.548828125 71.3515625 6.0634765625 61.169921875 27.607421875 c 0
 55.0751953125 40.2900390625 54.9599609375 45.9638671875 59.6748046875 66.43359375 c 0
 63.3876953125 81.64453125 64.025390625 94.9560546875 69.6796875 106.26171875 c 0
 73.87890625 115.255859375 76.427734375 135.54296875 80.375 145.087890625 c 0
 84.80859375 155.810546875 86.443359375 172.680664062 90.83984375 183.580078125 c 0
 95.4677734375 194.524414062 98.1845703125 217.606445312 102.33984375 229.415039062 c 0
 107.192382812 243.203125 108.533203125 261.099609375 112.575195312 276.250976562 c 0
 116.370117188 290.157226562 117.865234375 300.28125 119.129882812 319.75 c 0
 119.934570312 332.655273438 119.934570312 332.655273438 116.9453125 335.547851562 c 0
 115.334960938 337.10546875 113.150390625 338.440429688 112.115234375 338.440429688 c 0
 102.89453125 338.440429688 75.3154296875 311.18359375 75.3154296875 311.18359375 c 1
 61.6298828125 299.057617188 58.1796875 296.610351562 51.39453125 294.2734375 c 0
 31.955078125 287.5234375 12.845703125 299.604492188 9.1904296875 312.963867188 c 0
 4.6220703125 328.631835938 14.669921875 341.63671875 20 352.346679688 c 0
 24.666015625 361.374023438 37.2998046875 377.087890625 41.044921875 382.161132812 c 0
 42.9560546875 385.026367188 62.9853515625 408.475585938 70.71484375 417.5390625 c 0
 86.2734375 435.748046875 113.400390625 461.10546875 130.28515625 471.606445312 c 0
 137.526367188 475.712890625 143.056640625 480.81640625 151.099609375 483.509765625 c 0
 164.846679688 488.018554688 163.962890625 494.079101562 181.690429688 494.079101562 c 0
 196.9921875 494.247070312 202.7890625 483.381835938 211.360351562 474.053710938 c 0
 214.004882812 471.049804688 216.190429688 467.934570312 216.190429688 467.15625 c 0
 216.190429688 466.377929688 217.684570312 464.041015625 219.41015625 461.927734375 c 0
 225.58984375 454.657226562 228.508789062 443.383789062 232.98046875 433.002929688 c 0
 235.969726562 426.215820312 236.084960938 424.76953125 236.084960938 409.083984375 c 0
 236.084960938 387.359375 222.965820312 343.693359375 245.169921875 347.78515625 c 0
 249.76953125 348.563476562 261.26953125 357.463867188 279.440429688 374.040039062 c 0
 287.5546875 381.587890625 308.873046875 400.68359375 313.25 408.3046875 c 0
 315.671875 412.522460938 320.723632812 416.922851562 323.254882812 422.43359375 c 0
 325.669921875 427.662109375 338.89453125 441.90234375 341.424804688 441.90234375 c 0
 342 441.90234375 344.64453125 443.682617188 347.405273438 445.907226562 c 0
 351.995117188 449.607421875 363.326171875 454.209960938 366.83984375 458.034179688 c 0
 369.833007812 461.290039062 380.131835938 465.73046875 384.08984375 468.602539062 c 0
 396.948242188 478.420898438 414.044921875 482.127929688 430.89453125 488.182617188 c 0
 452.17578125 495.90234375 467.7421875 480.40234375 480.344726562 472.2734375 c 0
 485.024414062 469.255859375 488.310546875 459.653320312 491.73046875 454.139648438 c 0
 494.950195312 449.133789062 496.099609375 445.462890625 498.169921875 433.55859375 c 0
 500.35546875 421.098632812 500.700195312 414.646484375 500.700195312 387.056640625 c 2
 500.815429688 354.905273438 l 1
 508.323242188 348.522460938 511.952148438 345.12109375 524.96484375 353.903320312 c 0
 547.97265625 369.690429688 573.836914062 394.173828125 594.540039062 414.201171875 c 0
 609.250976562 428.791992188 637.94140625 449.711914062 648.245117188 458.8125 c 0
 651.004882812 461.1484375 653.879882812 463.040039062 654.684570312 463.040039062 c 0
 657.983398438 463.040039062 669.931640625 472.424804688 673.889648438 473.497070312 c 0
 692.221679688 478.954101562 710.567382812 487.75390625 731.849609375 477.61328125 c 0
 736.91015625 475.0546875 741.740234375 473.052734375 742.544921875 473.052734375 c 0
 745.795898438 473.052734375 752.4765625 465.416015625 756.344726562 462.706054688 c 0
 762.909179688 458.108398438 768.666015625 449.151367188 773.594726562 444.016601562 c 0
 775.08984375 442.458984375 778.424804688 435.227539062 781.0703125 427.884765625 c 0
 787.509765625 409.750976562 787.39453125 404.188476562 780.955078125 391.39453125 c 0
 778.080078125 385.721679688 774.860351562 381.048828125 772.790039062 379.602539062 c 0
 767.1484375 375.600585938 766.556640625 368.532226562 762.78515625 360.467773438 c 0
 758.875 351.678710938 758.184570312 348.786132812 754.96484375 326.536132812 c 0
 752.537109375 308.631835938 749.376953125 305.72265625 746.455078125 286.708984375 c 0
 743.5546875 268.474609375 738.790039062 262.73046875 735.530273438 247.66015625 c 0
 733.256835938 236.911132812 726.694335938 226.290039062 723.915039062 216.732421875 c 0
 721.426757812 207.90625 715.928710938 203.123046875 713.6796875 194.1484375 c 0
 708.3203125 175.13671875 703.073242188 173.547851562 701.950195312 143.752929688 c 0
 701.004882812 121.015625 699.763671875 109.264648438 713.10546875 109.264648438 c 0
 717.934570312 109.264648438 719.315429688 109.821289062 723.455078125 113.4921875 c 0
 750.1015625 136.73828125 751.916015625 143.852539062 773.940429688 168.672851562 c 0
 787.874023438 184.551757812 808.649414062 202.71484375 827.184570312 202.71484375 c 0
EndSplineSet
EndChar

StartChar: n
Encoding: 110 110 57
Width: 605
Flags: HW
LayerCount: 3
Fore
SplineSet
140.42578125 45.298828125 m 0
 140.42578125 44.400390625 130.994140625 34.0537109375 130.994140625 33.2998046875 c 0
 130.994140625 29.953125 109.916992188 13.69140625 105.057617188 10.0732421875 c 0
 100.377929688 6.7333984375 85.25 0.07421875 77.6123046875 0.07421875 c 0
 49.3632536583 -0.331171809728 30.33897312 38.5924575009 46.6767578125 69.6796875 c 0
 53.631914656 83.8609173529 56.4222949334 99.6970502641 64.78515625 112.05859375 c 0
 73.2273838109 123.803630631 75.841082672 139.317005725 82.798828125 152.4375 c 0
 87.162109375 160.301757812 88.3603515625 173.26953125 91.3818359375 182.971679688 c 0
 93.6455078125 190.201171875 94.400390625 194.892578125 95.6259765625 209.66015625 c 0
 97.7724609375 236.353515625 100.413085938 231.9140625 104.5859375 249.270507812 c 0
 106.823242188 258.72265625 110.986328125 261.916015625 113.922851562 270.498046875 c 0
 117.7578125 281.702148438 121.220703125 282.96484375 122.977539062 298.33984375 c 0
 124.447518994 313.965374376 137.511188759 353.990036327 113.168945312 346.41015625 c 0
 102.488146398 343.143876397 96.2501044034 336.300804309 87.1376953125 331.258789062 c 0
 79.6875 327.182617188 70.3505859375 321.259765625 59.9755859375 314.029296875 c 0
 53.2993131694 309.295367214 40.0849892325 301.215959347 29.7001953125 303.03125 c 0
 16.5615234375 305.348632812 10.779296875 324.623046875 10.931640625 333.334960938 c 0
 11.025390625 340.641601562 16.7783203125 359.331054688 20.080078125 363.25390625 c 0
 22.310546875 365.8515625 26.8125 375.141601562 29.5107421875 377.09765625 c 0
 36.0393966321 381.35454741 39.5103182749 393.769980397 46.6767578125 397.018554688 c 0
 47.4306640625 397.40234375 48.845703125 398.6328125 49.7890625 399.709960938 c 0
 61.13671875 414.10546875 117.31640625 459.877929688 131.18359375 468.162109375 c 0
 143.564154599 475.614953181 148.448129338 482.159179688 169.569335938 482.159179688 c 0
 191.444000931 482.159179688 205.115851447 474.853673721 220.216796875 468.469726562 c 0
 225.969726562 466.008789062 236.061523438 457.779296875 238.13671875 453.703125 c 0
 243.318359375 443.373046875 245.0859375 447.21484375 248.416992188 427.552734375 c 0
 251.557617188 408.723632812 248.633789062 391.841796875 247.001953125 374.098632812 c 0
 245.963867188 361.79296875 245.115234375 357.638671875 241.719726562 348.025390625 c 0
 238.40625 338.515625 231.586914062 306.9140625 243.51171875 307.26171875 c 0
 259.907226562 307.447265625 304.329101562 355.318359375 309.34375 361.638671875 c 0
 311.512695312 364.252929688 313.588867188 366.407226562 313.965820312 366.407226562 c 0
 315.534179688 366.407226562 320.7421875 373.801757812 322.359375 375.328125 c 0
 331.40625 383.8125 339.680664062 395.073242188 349.05078125 403.479492188 c 0
 350.991210938 405.061523438 354.970703125 411.015625 356.407226562 411.015625 c 0
 356.87890625 411.015625 359.047851562 412.862304688 361.123046875 415.092773438 c 0
 384.512695312 439.935546875 413.657226562 463.854492188 427.33203125 469.545898438 c 0
 445.63013585 477.007722911 481.748355973 492.18493083 511.744140625 482.159179688 c 0
 518.4609375 479.838867188 531.833007812 470.977539062 531.833007812 464.931640625 c 0
 531.833007812 464.546875 533.342773438 461.701171875 535.133789062 458.625 c 0
 543.044921875 444.765625 541.817382812 400.461914062 539.567382812 375.63671875 c 0
 538.118164062 359.950195312 533.799804688 347.474609375 530.984375 329.10546875 c 0
 528.434570312 313.506835938 525.063476562 309.106445312 522.307617188 294.801757812 c 0
 518.547201084 274.799600368 508.575543117 256.160349135 504.104492188 237.1171875 c 0
 500.432129713 221.14611932 490.976306795 206.240271395 486.939453125 190.509765625 c 0
 483.764160326 176.596807395 477.130859375 165.677447334 477.130859375 147.20703125 c 0
 477.224609375 134.055664062 479.770507812 130.286132812 489.108398438 130.286132812 c 0
 494.493164062 130.286132812 500.477539062 134.83984375 504.859375 136.82421875 c 0
 507.59375 138.0546875 516.743164062 144.900390625 526.551757812 152.822265625 c 0
 552.676757812 173.97265625 558.712890625 178.280273438 565.787109375 180.587890625 c 0
 577.333007812 184.501953125 588.607421875 180.646484375 592.383789062 174.126953125 c 0
 597.318057495 164.978577849 602.704083743 161.246678843 604.079101562 145.668945312 c 0
 605.021484375 136.208984375 600.588867188 117.903320312 597.004882812 116.135742188 c 0
 594.7265625 114.6484375 590.357421875 104.19921875 588.233398438 102.060546875 c 0
 581.35952001 94.7003637417 576.216711372 86.3374608297 568.993164062 79.140625 c 0
 553.020507812 64.0576171875 532.013671875 43.552734375 513.819335938 31.455078125 c 0
 502.793960119 24.0991119878 492.040711957 16.4339526713 477.979492188 12.611328125 c 0
 462.32421875 8.81640625 461.743164062 5.2705078125 434.216796875 5.8427734375 c 2
 417.901367188 6.07421875 l 1
 413.109016881 8.13315940367 404.603031446 11.7824575042 400.453125 13.072265625 c 0
 389.700195312 16.2255859375 366.499023438 35.76171875 362.443359375 45.22265625 c 0
 357.731445312 55.7890625 354.631835938 55.5869140625 352.163085938 73.6025390625 c 0
 349.91796875 89.8984375 352.858398438 127.338867188 358.293945312 138.36328125 c 0
 365.587991871 153.829883843 367.795605227 171.596988111 375.7421875 186.35546875 c 0
 379.546875 193.594726562 380.616210938 202.799804688 384.702148438 209.66015625 c 0
 388.32421875 216.122070312 389.776367188 227.734375 393.284179688 234.348632812 c 0
 396.697265625 240.5703125 399.076171875 254.260742188 402.244140625 260.421875 c 0
 405.783203125 267.525390625 408.026367188 282.495117188 411.015625 290.41796875 c 0
 417.329101562 307.09765625 423.59765625 347.366210938 409.600585938 356.639648438 c 0
 404.790039062 359.946289062 400.263671875 360.176757812 395.076171875 357.254882812 c 0
 387.301757812 352.993164062 373.59765625 339.483398438 365.838867188 332.489257812 c 0
 360.274414062 327.643554688 354.9921875 322.336914062 352.729492188 319.336914062 c 0
 349.618164062 314.897460938 349.017578125 316.135742188 345.08984375 311.415039062 c 0
 343.21484375 309.12109375 335.658203125 303.176757812 335.658203125 301.03125 c 0
 335.658203125 300.647460938 333.866210938 298.571289062 331.696289062 296.493164062 c 0
 324.604492188 289.723632812 316.625976562 280.4140625 310.381835938 272.266601562 c 0
 305.533843979 265.237485736 296.398138051 258.534385252 292.083984375 251.5 c 0
 289.852539062 247.694335938 284.233398438 243.602539062 282.275390625 239.809570312 c 0
 273.669064798 224.019420834 256.538501021 211.444757311 247.284179688 196.893554688 c 0
 236.530583349 179.345935713 221.405314454 167.047223216 211.256835938 149.514648438 c 0
 205.665015116 140.128686441 198.981269161 135.022576106 193.713867188 125.44140625 c 0
 188.606476442 116.149975587 179.693597103 108.58020983 175.69921875 98.4443359375 c 0
 171.38769189 88.5968832471 162.414267178 80.8478831403 158.063476562 70.9873046875 c 0
 156.362304688 66.4814453125 150.879882812 61.0693359375 149.008789062 56.681640625 c 0
 147.9921875 54.2978515625 140.42578125 47.2255859375 140.42578125 45.298828125 c 0
EndSplineSet
EndChar

